<?xml version="1.0" encoding="utf-8"?>
<!-- Generator: Adobe Illustrator 21.0.0, SVG Export Plug-In . SVG Version: 6.00 Build 0)  -->
<svg version="1.1" id="Camada_1" xmlns:serif="http://www.serif.com/"
	 xmlns="http://www.w3.org/2000/svg" xmlns:xlink="http://www.w3.org/1999/xlink" x="0px" y="0px" viewBox="0 0 1000 1000"
	 style="enable-background:new 0 0 1000 1000;" xml:space="preserve">
<style type="text/css">
	.st0{fill:#1C1C1C;}
	.st1{font-family:'AvenirNext-Regular';}
	.st2{font-size:77.0353px;}
</style>
<g>
	<g>
		<text transform="matrix(1 0 0 1 276.2993 397.6787)" class="st0 st1 st2">LOJAS</text>
	</g>
	<g>
		<path class="st0" d="M900.1,505.3c0.9,0.3,1.8-0.3,2.4-1c14.6-15.5,29.6-48.4,29.6-48.4c3-4.9,1.7-11.3-3-14.3
			c-4.6-3-10.8-1.4-13.8,3.5c-0.5,0.9-1,1.8-1.2,2.7c-2.5,14-2.2,29.2-15.4,54.6C898.1,503.7,898.9,505,900.1,505.3z"/>
		<path class="st0" d="M910.6,512.1c-1,0.8-0.8,2.3,0.1,3.1c0.7,0.6,1.7,0.5,2.6,0.1c19.8-7.7,47.4-31,47.4-31
			c4.8-3.2,6.4-9.5,3.4-14.2c-2.9-4.7-9.2-5.9-14-2.7c-0.8,0.6-1.7,1.2-2.3,2C939.7,480.9,933.4,494.8,910.6,512.1z"/>
		<path class="st0" d="M979.9,506.8c-1-5.4-6.3-8.9-12-7.8c-1,0.2-2,0.5-2.8,1c-12,7.6-23,18.1-50.7,25.6c-1.2,0.3-1.6,1.9-1,2.9
			c0.4,0.9,1.4,1.1,2.4,1.1c21.2,0.3,55.6-11,55.6-11C977,517.5,980.8,512.2,979.9,506.8z"/>
		<path class="st0" d="M537.3,467.9c-4.2-2.6-7.7-1.9-10.6,1.9c-3.2,3.5-4.9,7.2-5.1,11.1c-0.2,3.9,1,6.8,3.6,8.7
			c2.6,1.9,5.6,2.3,9.2,1c1.3-0.6,2.4-2,3.4-4.1c1-2.1,1.6-4.3,1.9-6.8c0.3-2.4,0.3-4.7,0-7C539.4,470.4,538.6,468.8,537.3,467.9z"
			/>
		<path class="st0" d="M915.4,562.5c-1,0-1.9,0.6-2.9,1.7c-1,1.1-2.4,3.5-4.3,7c-2.9,5.5-6.4,10.3-10.6,14.5
			c-4.2,4.2-7.9,6.8-11.1,7.7c-1.9,0.6-3.4,0.9-4.3,0.7c-1-0.2-2.3-0.7-3.9-1.7c-1-0.3-1.9-0.8-2.9-1.4c-1-0.6-1.4-1.3-1.4-1.9
			c-0.3-0.6-0.1-1.8,0.7-3.4c0.8-1.6,1.8-3.4,3.1-5.3c1.6-1.9,3.1-4.5,4.6-7.7c1.4-3.2,2.8-6.1,4.1-8.7c6.1-14.5,8.4-26.1,6.8-34.8
			c-1.6-8.7-6.8-13-15.5-13c-7.4,0-13.8,3.3-19.1,9.9c-5.3,6.6-8.8,16-10.4,28.3c-1.6,11.6-0.3,21.4,3.9,29.5l3.4,7.7l-3.9,1.9
			c-3.9,1.3-7.9,0.4-12.1-2.7c-4.2-3.1-6.6-6.8-7.2-11.3c-1.3-5.8-1-12.6,0.7-20.5c1.8-7.9,4.4-14.2,8-19.1c1-1.6,1.8-3.1,2.7-4.3
			c0.8-1.3,1.2-2.2,1.2-2.9c0-3.9-2.7-5.8-8.2-5.8c-1.6,0-3.1,0.4-4.6,1.2c-1.4,0.8-3.5,2.5-6,5.1c-5.5,5.8-9.4,13.4-11.8,22.7
			c-0.8,3-1.3,6-1.6,8.9c-0.8,1.6-1.8,3.9-3,6.8c-1.3,3.1-2.9,7.2-4.8,12.3c-9,23.5-16.6,38.5-22.7,44.9c-2.6,2.9-4.4,4.4-5.6,4.6
			c-1.1,0.2-2.5-1-4.1-3.6c-2.3-2.6-3.2-9.1-2.9-19.6c0.3-10.5,1.8-22.8,4.3-36.9c3.9-22.5,4.8-36.5,2.9-42c-3.5-9-10-10.6-19.3-4.8
			c-5.5,3.5-12.3,10.4-20.5,20.5c-8.2,10.1-16.8,22-25.8,35.5c-5.8,9.7-8.4,13-7.7,10.1c0-1,0.3-3.2,1-6.8c0.6-3.5,1.3-7.6,1.9-12.1
			c1-5.5,1.8-9.5,2.4-12.1c0.6-2.6,1.3-4.2,1.9-4.8c0.6-0.6,2.1-1.8,4.3-3.4c2.2-1.6,4.7-3.4,7.2-5.3c3.2-2.2,6.8-5.2,10.9-8.9
			c4-3.7,8.1-7.7,12.3-12.1c4.2-4.3,8.2-8.8,12.1-13.3c3.9-4.5,7.1-8.5,9.7-12.1c11.6-16.4,18.9-31.8,22-46.1
			c3.1-14.3,1.7-27.1-4.1-38.4c-4.5-8.4-10.4-14.2-17.6-17.4c-7.2-3.2-14.2-2.7-21,1.4c-4.5,2.9-8.5,6.4-12.1,10.4
			c-3.5,4-7.1,9.4-10.6,16.2c-1.6,3.5-3.4,7.4-5.3,11.6c-1.9,4.2-3.2,7.6-3.9,10.1c-4.2,11.3-8.5,28.2-13,50.7
			c-4.1,20.4-8.6,46.5-13.5,78c-1.9,4.1-3.9,8.1-6.1,12c-3.1,5.6-6,10.6-8.9,15c-2.9,4.3-5.6,7.7-8,9.9c-2.4,2.3-4.1,2.9-5.1,1.9
			c-5.8-4.5-5.8-23.5,0-57c1-5.8,1.7-11.4,2.2-16.9c0.5-5.5,0.8-10.6,1-15.5c0.2-4.8,0.2-9,0.2-12.6c0-3.5-0.2-6.1-0.5-7.7
			c-1.9-5.5-5.2-8.8-9.7-9.9c-4.5-1.1-9,0.1-13.5,3.6c-10.6,8.4-25.1,27.2-43.5,56.5c-2.6,3.9-4.7,7.2-6.3,9.9
			c-1.6,2.7-2.6,4.1-2.9,4.1l1-8.7c1-6.1,1.3-11.9,1-17.4c-0.3-5.5-1.3-9-2.9-10.6c-3.2-3.2-6.9-3.1-11.1,0.5
			c-1.3,1.6-2.7,4.8-4.1,9.7c-1.4,4.8-2.7,10.1-3.6,15.9c-0.6,3.3-1,6.7-1.4,10c-2,4.8-4.2,9.6-6.5,14.4c-2.7,5.6-5.6,10.8-8.5,15.5
			c-2.9,4.7-5.7,8.7-8.5,12.1c-2.7,3.4-5.1,5.6-7,6.5c-1.6,1.3-2.8,1.9-3.6,1.9c-0.8,0-1.7-0.3-2.7-1c-8.7-5.8-9.3-27.2-1.9-64.2
			c2.6-12.2,4-20.9,4.3-26.1c0.3-5.1-0.5-8.7-2.4-10.6c-1.3-1.6-2.9-2.4-4.8-2.4s-3.7,0.6-5.3,1.9c-1.3,1-2.7,3.8-4.3,8.5
			c-1.6,4.7-3.3,10.1-5.1,16.4c-1.8,6.3-3.3,13-4.6,20c-0.3,1.5-0.5,3-0.8,4.4c-0.7,1.8-1.6,4-2.6,6.7
			c-9.3,22.9-17.7,38.4-25.1,46.6c-7.4,8.2-13,8.1-16.9-0.2c-1.3-2.9-2.1-6.6-2.4-11.1c-0.3-4.5,0-10.9,1-19.1
			c1-8.2,2.6-18.6,4.8-31.1c2.2-12.6,5.1-28.2,8.7-46.8c1.3-6.1,2.5-12,3.6-17.6c1.1-5.6,2.2-10.7,3.1-15.2c1-4.5,1.8-8.3,2.4-11.3
			c0.6-3.1,1-5.1,1-6c0-4.2,0.6-6.6,1.9-7.2c0.3-0.3,3.1-1,8.2-2.2c5.1-1.1,11.3-2.3,18.4-3.6c5.1-1,9.5-1.7,13-2.2
			c3.5-0.5,6.7-0.9,9.4-1.2c2.7-0.3,5.2-0.5,7.5-0.5c2.2,0,4.7,0,7.2,0c6.8,0.6,11.4,1.5,14,2.7c2.6,1.1,4.7,3.8,6.3,8
			c1.3,3.5,2.4,5.3,3.4,5.3c0.3-0.3,1.1-0.5,2.4-0.5c1,0,1.4-1.4,1.2-4.1c-0.2-2.7-1-5.4-2.7-8c-5.2-9.7-17.7-13.2-37.7-10.6
			c-2.3,0.3-5.6,0.9-9.9,1.7c-4.3,0.8-9,1.6-14,2.4c-5,0.8-9.8,1.6-14.5,2.4c-4.7,0.8-8.3,1.5-10.9,2.2c0,0.3-0.2-0.5-0.5-2.4
			c-0.3-1.9-0.5-4.2-0.5-6.8c-0.3-5.5-0.9-9.1-1.7-10.9c-0.8-1.8-2.3-2.7-4.6-2.7c-2.3,0-4.2,1.5-5.8,4.6c-1.6,3.1-4,10.1-7.2,21
			c0,0.6-1.9,1.4-5.8,2.2c-3.9,0.8-8.5,1.6-14,2.4c-5.5,0.8-11.3,1.5-17.6,2.2c-6.3,0.6-12,1.1-17.1,1.4c-9.3,0.3-16.3,0.2-20.8-0.5
			c-4.5-0.6-8-2.2-10.6-4.8c-1.6-1.6-2.7-3-3.1-4.1c-0.5-1.1-0.7-3-0.7-5.6c0-4.2-0.6-6.4-1.9-6.8c-1.6-0.6-2.9-0.1-3.9,1.7
			c-1,1.8-1.4,4.1-1.4,7c0,2.3,0.3,4,1,5.3c0.6,1.3,2.1,3.1,4.3,5.3c2.6,2.9,5.6,5,9.2,6.3c3.5,1.3,8.5,2.3,15,2.9
			c4.8,0.6,12.2,0.6,22.2-0.2c10-0.8,19.8-2,29.5-3.6c1.6-0.3,3.3-0.6,5.1-1c1.8-0.3,3.3-0.6,4.6-1c1.3-0.3,2.6-0.5,3.9-0.5
			c0,0.3-0.4,2.7-1.2,7.2c-0.8,4.5-2,10-3.6,16.4c-5.2,23.5-9.3,43-12.3,58.4c-2.9,14.7-4.9,26.9-5.9,36.8c-1.9,4.1-4,8.2-6.2,12.2
			c-3.1,5.6-6,10.6-8.9,15c-2.9,4.3-5.6,7.7-8,9.9c-2.4,2.3-4.1,2.9-5.1,1.9c-5.8-4.5-5.8-23.5,0-57c1-5.8,1.7-11.4,2.2-16.9
			c0.5-5.5,0.8-10.6,1-15.5c0.2-4.8,0.2-9,0.2-12.6c0-3.5-0.2-6.1-0.5-7.7c-1.9-5.5-5.2-8.8-9.7-9.9c-4.5-1.1-9,0.1-13.5,3.6
			c-10.6,8.4-25.1,27.2-43.5,56.5c-2.6,3.9-4.7,7.2-6.3,9.9c-1.6,2.7-2.6,4.1-2.9,4.1l1-8.7c1-6.1,1.3-11.9,1-17.4
			c-0.3-5.5-1.3-9-2.9-10.6c-3.2-3.2-6.9-3.1-11.1,0.5c-1.3,1.6-2.7,4.8-4.1,9.7c-1.4,4.8-2.7,10.1-3.6,15.9c-0.4,2.3-0.7,4.6-1,6.9
			c-1.5,3.3-3.6,8.1-6.2,14.4c-10.3,26.1-18.4,41.7-24.1,46.8c-2.6,2.3-4.3,3-5.3,2.2c-1-0.8-2.3-3.5-3.9-8
			c-1.3-4.5-1.8-9.8-1.4-15.9c0.3-6.1,1.6-14.5,3.9-25.1c1.9-9.3,2.9-15.9,2.9-19.8c0-3.9-0.8-6.6-2.4-8.2c-1-1.6-2.3-2.4-3.9-2.4
			c-1.6,0-3.7,2-6.3,6c-2.6,4-6.4,11.2-11.6,21.5c-10.9,21.2-18.4,31.2-22.2,29.9c-3.9-1.3-5-8.9-3.4-22.7c1-8.7,2.6-16.7,4.8-24.1
			c2.2-7.4,4.8-13.8,7.7-19.3c2.9-5.5,6-9.7,9.4-12.6c3.4-2.9,6.7-4,9.9-3.4c2.6,0.6,4.8,2.1,6.8,4.3c1.9,2.3,3.2,4.8,3.9,7.7
			c0.6,3.2,1.9,4.8,3.9,4.8c1.6,0,2.5-0.2,2.7-0.7c0.2-0.5,0.2-2,0.2-4.6c-0.3-7.7-3.5-13.7-9.4-17.9c-6-4.2-12.6-5.1-20-2.9
			c-8.7,1.9-16.4,8.2-23.2,18.8c-7.2,10.7-11.9,21.8-14.1,33.3c-1.4,2.3-3,4.7-4.7,7.3c-2.9,4.2-6,8.5-9.4,12.8
			c-3.4,4.3-6.8,8.5-10.4,12.6c-3.5,4-6.8,7.5-9.7,10.4c-6.4,6.1-13.2,10.9-20.3,14.2c-7.1,3.4-12.7,4.8-16.9,4.1
			c-2.9-0.3-6-1.5-9.4-3.6c-3.4-2.1-6.8-4.5-10.1-7.2c-3.4-2.7-6.5-5.8-9.4-9.2c-2.9-3.4-5.2-6.5-6.8-9.4c-1.9-3.2-3.5-6.5-4.6-9.9
			c-1.1-3.4-2-7.1-2.7-11.1c-0.6-4-1.1-8.8-1.4-14.2c-0.3-5.5-0.5-11.9-0.5-19.3c0-6.8,0.1-12.2,0.2-16.4c0.2-4.2,0.4-7.9,0.7-11.1
			c0.3-3.2,0.9-6.4,1.7-9.7c0.8-3.2,2-7.2,3.6-12.1l1.4-6.3l12.6-1c31.2-1.9,59.6-12.6,85-31.9c14.2-10.6,25.9-22.2,35.3-34.8
			c9.3-12.6,15.6-25.1,18.8-37.7c3.9-15.1,2.8-27.4-3.1-36.9c-6-9.5-15.7-14.2-29.2-14.2c-5.5,0-10.3,0.5-14.5,1.4
			c-4.2,1-9.5,3.1-15.9,6.3c-11.9,5.8-23.8,14.3-35.7,25.6c-11.9,11.3-22.4,24.1-31.4,38.6c-2.6,3.9-5.4,8.7-8.5,14.5
			c-3.1,5.8-6,11.8-8.9,17.9c-2.9,6.1-5.6,12-8.2,17.6c-2.6,5.6-4.5,10.4-5.8,14.2L93,484.3l-3.9-1c-13.5-1.6-25.5-5.5-36-11.6
			c-12.5-7.3-18.9-25.1-21.4-23.8c-0.5,0.3-0.6,1.2-0.6,2c0,12.1,6.3,20.3,6.3,20.3s8.4,11.1,33.8,17.9c4.8,1.3,7.7,1.7,7.7,1.7
			c2.6,0.5,4.3,0.7,5.3,0.7c3.2,0,5.1,0.5,5.6,1.4c0.5,1,0.1,4.2-1.2,9.7c-2.9,12.6-4.8,24.9-5.6,36.9c-0.8,12.1-0.6,23.4,0.7,34
			c1.3,10.6,3.6,20.3,7,29c3.4,8.7,7.6,15.9,12.8,21.7c3.2,3.5,6.3,6.3,9.2,8.2c2.9,1.9,6.8,4,11.6,6.3c2.9,1.3,5.5,2.1,7.7,2.4
			c2.2,0.3,6.1,0.3,11.6,0c2.9,0,5.3-0.1,7.2-0.2c1.9-0.2,3.6-0.4,5.1-0.7c1.4-0.3,2.9-0.8,4.3-1.4c1.4-0.6,3.5-1.6,6-2.9
			c4.5-2.2,8.1-4.4,10.9-6.5c2.7-2.1,6.8-5.9,12.3-11.3c5.8-5.8,11.3-11.9,16.4-18.4c3.2-4.1,6.1-7.9,8.6-11.5c0,0.9,0,1.9,0.1,2.8
			c0.3,4.5,0.6,7.8,1,9.9c0.3,2.1,1.3,4.4,2.9,7c4.8,8.4,10.5,12.6,16.9,12.6c4.2,0,7.9-1.8,11.1-5.6c3.2-3.7,7.6-10.4,13-20
			c2.2-3.5,3.6-5.6,4.1-6c0.5-0.5,0.6,0.1,0.2,1.7c-2.9,22.9,0,38.6,8.7,47.3c1.6,1.6,3,2.7,4.1,3.1c1.1,0.5,2.8,0.7,5.1,0.7
			c2.6,0,4.4-0.3,5.6-1c1.1-0.6,3-2.2,5.6-4.8c3.2-3.5,7.2-10.1,12.1-19.6c4-7.9,7.8-16.4,11.4-25.5c0.1,0.4,0.1,0.8,0.2,1.2
			c1.9,10.3,6,15.5,12.1,15.5c4.5,0,8.7-4.5,12.6-13.5c3.5-8.7,7.7-17.5,12.6-26.6c4.8-9,9.7-17.3,14.7-24.9c5-7.6,9.8-14,14.5-19.3
			c4.7-5.3,8.5-8.8,11.3-10.4c1-0.6,1.7-1,2.2-1c0.5,0,0.7,0.7,0.7,2.2c0,1.4-0.3,4-1,7.7c-0.6,3.7-1.6,8.9-2.9,15.7
			c-2.6,14.2-4.1,27.3-4.6,39.4c-0.5,12.1,0.1,21,1.7,26.8c1.6,5.5,3.5,10.4,5.6,14.7c2.1,4.3,4.4,7.3,7,8.9
			c6.1,4.2,12.1,3.5,18.1-2.2c4.9-4.7,10.7-13.7,17.2-27c0,2.7,0.1,5.2,0.4,7.5c0.6,6.4,2.3,12.2,4.8,17.4c3.9,8.4,9,13.2,15.5,14.5
			c6.8,1.9,12.6,1.1,17.4-2.4c4.8-3.5,10.3-10.6,16.4-21.2c1.9-3.2,4.1-7.5,6.5-12.8c1-2.2,2-4.4,2.9-6.5c0.3,6.6,1.5,12.6,3.6,18.1
			c3.2,8.5,8,14.7,14.5,18.6c3.5,2.3,7.3,2.9,11.3,1.9c4-1,7.8-3.4,11.3-7.2c3.5-3.5,8-10.1,13.3-19.6c2.9-5.2,5.7-10.7,8.6-16.5
			c0.1,0.8,0.2,1.6,0.4,2.3c1.9,10.3,6,15.5,12.1,15.5c4.5,0,8.7-4.5,12.6-13.5c3.5-8.7,7.7-17.5,12.6-26.6
			c4.8-9,9.7-17.3,14.7-24.9c5-7.6,9.8-14,14.5-19.3c4.7-5.3,8.5-8.8,11.3-10.4c1-0.6,1.7-1,2.2-1c0.5,0,0.7,0.7,0.7,2.2
			c0,1.4-0.3,4-1,7.7c-0.6,3.7-1.6,8.9-2.9,15.7c-2.6,14.2-4.1,27.3-4.6,39.4c-0.5,12.1,0.1,21,1.7,26.8c1.6,5.5,3.5,10.4,5.6,14.7
			c2.1,4.3,4.4,7.3,7,8.9c6.1,4.2,12.1,3.5,18.1-2.2c4.3-4.1,9.2-11.4,14.7-22.1c0,0,0,0.1,0,0.1c-0.3,3.5-0.3,6.4,0,8.5
			c0.3,2.1,0.8,3.5,1.4,4.3c0.6,0.8,1.8,1.5,3.4,2.2c3.2,1.3,6.3,0.5,9.2-2.4c2.9-2.9,8-10,15.5-21.2c7.4-11.3,14.2-21.2,20.5-29.7
			c6.3-8.5,11.7-15.2,16.2-20c2.9-3.2,5.7-5.8,8.4-7.7c2.7-1.9,4.1-2.2,4.1-1c0,0.3-0.4,3-1.2,8c-0.8,5-2,11-3.6,18.1
			c-1.6,9-2.9,16.5-3.9,22.5c-1,6-1.7,10.9-2.2,15c-0.5,4-0.7,7.2-0.7,9.7s0.3,4.8,1,7c1.3,6.4,3.3,12.2,6,17.1
			c2.7,5,5.9,8.3,9.4,9.9c3.2,1.6,6.4,2.1,9.4,1.4c3.1-0.6,6.1-2.7,9.2-6.3c3.1-3.5,6.2-8.7,9.4-15.5c3.2-6.8,6.9-15.5,11.1-26.1
			c1.3-2.9,2.7-6.4,4.1-10.4c0.8-2.2,1.6-4.2,2.4-6.1c0.2,0.8,0.4,1.6,0.7,2.5c1.3,3.9,3.5,7.7,6.8,11.3c3.2,3.7,6.9,6.5,11.1,8.5
			c3.5,1.6,7.6,2.4,12.1,2.4c4.5,0,8.7-0.8,12.6-2.4c2.6-1.6,4.3-2.4,5.3-2.4s2.6,0.6,4.8,1.9c7.4,3.2,14.8,3.2,22.2,0
			c4.2-1.9,8-4.7,11.3-8.5c3.4-3.7,7.2-8.9,11.3-15.7c3.5-5.8,5.6-9.7,6-11.6C918.6,563.5,917.7,562.5,915.4,562.5z M712.8,533.3
			c1.1-6.6,2.4-14,3.9-22.2s2.9-16.1,4.3-23.7c1.4-7.6,2.5-13.1,3.1-16.7c5.1-20.3,11.2-36.1,18.1-47.3c6.9-11.3,13.8-16.3,20.5-15
			c2.9,0.6,5.7,2.3,8.5,4.8c2.7,2.6,5.1,5.7,7,9.4c1.9,3.7,3.3,7.8,4.1,12.3c0.8,4.5,0.9,8.9,0.2,13c-1.6,12.2-5.9,24.3-12.8,36.2
			c-6.9,11.9-17.1,24.6-30.7,38.2c-9,9-15.9,15.5-20.8,19.3c-4.8,3.9-7.2,5-7.2,3.4C711.1,543.8,711.7,539.9,712.8,533.3z
			 M111.9,478.5c1.3-3.2,2.8-6.9,4.6-11.1c1.8-4.2,3.7-8.6,5.8-13.3c2.1-4.7,3.9-8.8,5.6-12.3c3.5-7.1,7.8-14.6,12.8-22.5
			c5-7.9,10-15.4,15-22.5c5-7.1,10-13.4,15-19.1c5-5.6,9.3-9.7,12.8-12.3c3.2-2.6,7.2-5.1,12.1-7.5c4.8-2.4,9.7-4.6,14.5-6.5
			c4.8-1.9,9.6-3.5,14.2-4.6c4.7-1.1,8.5-1.7,11.3-1.7c5.1,0,9.4,2.4,12.8,7.2c3.4,4.8,5.1,10.9,5.1,18.4c0,6.8-1.5,14.1-4.6,22
			c-3.1,7.9-7.2,15.7-12.3,23.4c-5.2,7.7-11.3,15.2-18.4,22.5c-7.1,7.2-14.7,13.6-22.7,19.1c-17.4,11.6-36.2,19.3-56.5,23.2
			c-3.2,0.6-6.5,1.2-9.9,1.7c-3.4,0.5-6.5,0.8-9.4,1c-2.9,0.2-5.2,0.3-7,0.5c-1.8,0.2-2.7,0.1-2.7-0.2
			C109.9,483.5,110.6,481.7,111.9,478.5z M868.1,578.5c-0.6-1.9-1-4.7-1.2-8.2c-0.2-3.5-0.2-7.2,0-11.1c0.2-3.9,0.6-7.6,1.5-11.1
			c0.8-3.5,1.7-6.6,2.7-9.2c2.9-6.4,5.9-10,8.9-10.6c3.1-0.6,5.1,1.9,6,7.7c1,6.8-1.4,16.1-7.2,28c-1.6,3.2-3.1,6.1-4.6,8.7
			c-1.4,2.6-2.5,4.2-3.1,4.8C869.4,579.7,868.4,580.1,868.1,578.5z"/>
	</g>
</g>
</svg>
