<?xml version="1.0" encoding="utf-8"?>
<!-- Generator: Adobe Illustrator 21.0.0, SVG Export Plug-In . SVG Version: 6.00 Build 0)  -->
<svg version="1.1" id="Camada_1" xmlns:serif="http://www.serif.com/"
	 xmlns="http://www.w3.org/2000/svg" xmlns:xlink="http://www.w3.org/1999/xlink" x="0px" y="0px" viewBox="0 0 1000 1000"
	 style="enable-background:new 0 0 1000 1000;" xml:space="preserve">
<style type="text/css">
	.st0{display:none;}
	.st1{display:inline;}
	.st2{fill:#1C1C1C;}
</style>
<g class="st0">
	<g class="st1">
		<text transform="matrix(1 0 0 1 -857.985 24.7382)" class="st2" style="font-family:'AvenirNext-Regular'; font-size:77.0353px;">LOJAS</text>
	</g>
	<g class="st1">
		<path class="st2" d="M-234.2,132.4c0.9,0.3,1.8-0.3,2.4-1c14.6-15.5,29.6-48.4,29.6-48.4c3-4.9,1.7-11.3-3-14.3
			c-4.6-3-10.8-1.4-13.8,3.5c-0.5,0.9-1,1.8-1.2,2.7c-2.5,14-2.2,29.2-15.4,54.6C-236.2,130.8-235.3,132.1-234.2,132.4z"/>
		<path class="st2" d="M-223.7,139.2c-1,0.8-0.8,2.3,0.1,3.1c0.7,0.6,1.7,0.5,2.6,0.1c19.8-7.7,47.4-31,47.4-31
			c4.8-3.2,6.4-9.5,3.4-14.2c-2.9-4.7-9.2-5.9-14-2.7c-0.8,0.6-1.7,1.2-2.3,2C-194.6,108-200.9,121.9-223.7,139.2z"/>
		<path class="st2" d="M-154.4,133.8c-1-5.4-6.3-8.9-12-7.8c-1,0.2-2,0.5-2.8,1c-12,7.6-23,18.1-50.7,25.6c-1.2,0.3-1.6,1.9-1,2.9
			c0.4,0.9,1.4,1.1,2.4,1.1c21.2,0.3,55.6-11,55.6-11C-157.3,144.5-153.5,139.2-154.4,133.8z"/>
		<path class="st2" d="M-597,94.9c-4.2-2.6-7.7-1.9-10.6,1.9c-3.2,3.5-4.9,7.2-5.1,11.1c-0.2,3.9,1,6.8,3.6,8.7
			c2.6,1.9,5.6,2.3,9.2,1c1.3-0.6,2.4-2,3.4-4.1c1-2.1,1.6-4.3,1.9-6.8c0.3-2.4,0.3-4.7,0-7C-594.9,97.5-595.7,95.9-597,94.9z"/>
		<path class="st2" d="M-218.9,189.6c-1,0-1.9,0.6-2.9,1.7c-1,1.1-2.4,3.5-4.3,7c-2.9,5.5-6.4,10.3-10.6,14.5
			c-4.2,4.2-7.9,6.8-11.1,7.7c-1.9,0.6-3.4,0.9-4.3,0.7c-1-0.2-2.3-0.7-3.9-1.7c-1-0.3-1.9-0.8-2.9-1.4c-1-0.6-1.4-1.3-1.4-1.9
			c-0.3-0.6-0.1-1.8,0.7-3.4c0.8-1.6,1.8-3.4,3.1-5.3c1.6-1.9,3.1-4.5,4.6-7.7c1.4-3.2,2.8-6.1,4.1-8.7c6.1-14.5,8.4-26.1,6.8-34.8
			c-1.6-8.7-6.8-13-15.5-13c-7.4,0-13.8,3.3-19.1,9.9c-5.3,6.6-8.8,16-10.4,28.3c-1.6,11.6-0.3,21.4,3.9,29.5l3.4,7.7l-3.9,1.9
			c-3.9,1.3-7.9,0.4-12.1-2.7c-4.2-3.1-6.6-6.8-7.2-11.3c-1.3-5.8-1-12.6,0.7-20.5c1.8-7.9,4.4-14.2,8-19.1c1-1.6,1.8-3.1,2.7-4.3
			c0.8-1.3,1.2-2.2,1.2-2.9c0-3.9-2.7-5.8-8.2-5.8c-1.6,0-3.1,0.4-4.6,1.2c-1.4,0.8-3.5,2.5-6,5.1c-5.5,5.8-9.4,13.4-11.8,22.7
			c-0.8,3-1.3,6-1.6,8.9c-0.8,1.6-1.8,3.9-3,6.8c-1.3,3.1-2.9,7.2-4.8,12.3c-9,23.5-16.6,38.5-22.7,44.9c-2.6,2.9-4.4,4.4-5.6,4.6
			c-1.1,0.2-2.5-1-4.1-3.6c-2.3-2.6-3.2-9.1-2.9-19.6c0.3-10.5,1.8-22.8,4.3-36.9c3.9-22.5,4.8-36.5,2.9-42c-3.5-9-10-10.6-19.3-4.8
			c-5.5,3.5-12.3,10.4-20.5,20.5c-8.2,10.1-16.8,22-25.8,35.5c-5.8,9.7-8.4,13-7.7,10.1c0-1,0.3-3.2,1-6.8c0.6-3.5,1.3-7.6,1.9-12.1
			c1-5.5,1.8-9.5,2.4-12.1c0.6-2.6,1.3-4.2,1.9-4.8c0.6-0.6,2.1-1.8,4.3-3.4c2.2-1.6,4.7-3.4,7.2-5.3c3.2-2.2,6.8-5.2,10.9-8.9
			c4-3.7,8.1-7.7,12.3-12.1c4.2-4.3,8.2-8.8,12.1-13.3c3.9-4.5,7.1-8.5,9.7-12.1c11.6-16.4,18.9-31.8,22-46.1
			c3.1-14.3,1.7-27.1-4.1-38.4c-4.5-8.4-10.4-14.2-17.6-17.4c-7.2-3.2-14.2-2.7-21,1.4c-4.5,2.9-8.5,6.4-12.1,10.4
			c-3.5,4-7.1,9.4-10.6,16.2c-1.6,3.5-3.4,7.4-5.3,11.6c-1.9,4.2-3.2,7.6-3.9,10.1c-4.2,11.3-8.5,28.2-13,50.7
			c-4.1,20.4-8.6,46.5-13.5,78c-1.9,4.1-3.9,8.1-6.1,12c-3.1,5.6-6,10.6-8.9,15c-2.9,4.3-5.6,7.7-8,9.9c-2.4,2.3-4.1,2.9-5.1,1.9
			c-5.8-4.5-5.8-23.5,0-57c1-5.8,1.7-11.4,2.2-16.9c0.5-5.5,0.8-10.6,1-15.5c0.2-4.8,0.2-9,0.2-12.6c0-3.5-0.2-6.1-0.5-7.7
			c-1.9-5.5-5.2-8.8-9.7-9.9c-4.5-1.1-9,0.1-13.5,3.6c-10.6,8.4-25.1,27.2-43.5,56.5c-2.6,3.9-4.7,7.2-6.3,9.9
			c-1.6,2.7-2.6,4.1-2.9,4.1l1-8.7c1-6.1,1.3-11.9,1-17.4c-0.3-5.5-1.3-9-2.9-10.6c-3.2-3.2-6.9-3.1-11.1,0.5
			c-1.3,1.6-2.7,4.8-4.1,9.7c-1.4,4.8-2.7,10.1-3.6,15.9c-0.6,3.3-1,6.7-1.4,10c-2,4.8-4.2,9.6-6.5,14.4c-2.7,5.6-5.6,10.8-8.5,15.5
			c-2.9,4.7-5.7,8.7-8.5,12.1c-2.7,3.4-5.1,5.6-7,6.5c-1.6,1.3-2.8,1.9-3.6,1.9c-0.8,0-1.7-0.3-2.7-1c-8.7-5.8-9.3-27.2-1.9-64.2
			c2.6-12.2,4-20.9,4.3-26.1c0.3-5.1-0.5-8.7-2.4-10.6c-1.3-1.6-2.9-2.4-4.8-2.4c-1.9,0-3.7,0.6-5.3,1.9c-1.3,1-2.7,3.8-4.3,8.5
			c-1.6,4.7-3.3,10.1-5.1,16.4c-1.8,6.3-3.3,13-4.6,20c-0.3,1.5-0.5,3-0.8,4.4c-0.7,1.8-1.6,4-2.6,6.7
			c-9.3,22.9-17.7,38.4-25.1,46.6c-7.4,8.2-13,8.1-16.9-0.2c-1.3-2.9-2.1-6.6-2.4-11.1c-0.3-4.5,0-10.9,1-19.1
			c1-8.2,2.6-18.6,4.8-31.1c2.2-12.6,5.1-28.2,8.7-46.8c1.3-6.1,2.5-12,3.6-17.6c1.1-5.6,2.2-10.7,3.1-15.2c1-4.5,1.8-8.3,2.4-11.3
			c0.6-3.1,1-5.1,1-6c0-4.2,0.6-6.6,1.9-7.2c0.3-0.3,3.1-1,8.2-2.2c5.1-1.1,11.3-2.3,18.4-3.6c5.1-1,9.5-1.7,13-2.2
			c3.5-0.5,6.7-0.9,9.4-1.2c2.7-0.3,5.2-0.5,7.5-0.5c2.2,0,4.7,0,7.2,0c6.8,0.6,11.4,1.5,14,2.7c2.6,1.1,4.7,3.8,6.3,8
			c1.3,3.5,2.4,5.3,3.4,5.3c0.3-0.3,1.1-0.5,2.4-0.5c1,0,1.4-1.4,1.2-4.1c-0.2-2.7-1-5.4-2.7-8c-5.2-9.7-17.7-13.2-37.7-10.6
			c-2.3,0.3-5.6,0.9-9.9,1.7c-4.3,0.8-9,1.6-14,2.4c-5,0.8-9.8,1.6-14.5,2.4c-4.7,0.8-8.3,1.5-10.9,2.2c0,0.3-0.2-0.5-0.5-2.4
			c-0.3-1.9-0.5-4.2-0.5-6.8c-0.3-5.5-0.9-9.1-1.7-10.9c-0.8-1.8-2.3-2.7-4.6-2.7c-2.3,0-4.2,1.5-5.8,4.6c-1.6,3.1-4,10.1-7.2,21
			c0,0.6-1.9,1.4-5.8,2.2c-3.9,0.8-8.5,1.6-14,2.4c-5.5,0.8-11.3,1.5-17.6,2.2c-6.3,0.6-12,1.1-17.1,1.4c-9.3,0.3-16.3,0.2-20.8-0.5
			c-4.5-0.6-8-2.2-10.6-4.8c-1.6-1.6-2.7-3-3.1-4.1c-0.5-1.1-0.7-3-0.7-5.6c0-4.2-0.6-6.4-1.9-6.8c-1.6-0.6-2.9-0.1-3.9,1.7
			c-1,1.8-1.4,4.1-1.4,7c0,2.3,0.3,4,1,5.3c0.6,1.3,2.1,3.1,4.3,5.3c2.6,2.9,5.6,5,9.2,6.3c3.5,1.3,8.5,2.3,15,2.9
			c4.8,0.6,12.2,0.6,22.2-0.2c10-0.8,19.8-2,29.5-3.6c1.6-0.3,3.3-0.6,5.1-1c1.8-0.3,3.3-0.6,4.6-1c1.3-0.3,2.6-0.5,3.9-0.5
			c0,0.3-0.4,2.7-1.2,7.2c-0.8,4.5-2,10-3.6,16.4c-5.2,23.5-9.3,43-12.3,58.4c-2.9,14.7-4.9,26.9-5.9,36.8c-1.9,4.1-4,8.2-6.2,12.2
			c-3.1,5.6-6,10.6-8.9,15c-2.9,4.3-5.6,7.7-8,9.9c-2.4,2.3-4.1,2.9-5.1,1.9c-5.8-4.5-5.8-23.5,0-57c1-5.8,1.7-11.4,2.2-16.9
			c0.5-5.5,0.8-10.6,1-15.5c0.2-4.8,0.2-9,0.2-12.6c0-3.5-0.2-6.1-0.5-7.7c-1.9-5.5-5.2-8.8-9.7-9.9c-4.5-1.1-9,0.1-13.5,3.6
			c-10.6,8.4-25.1,27.2-43.5,56.5c-2.6,3.9-4.7,7.2-6.3,9.9c-1.6,2.7-2.6,4.1-2.9,4.1l1-8.7c1-6.1,1.3-11.9,1-17.4
			c-0.3-5.5-1.3-9-2.9-10.6c-3.2-3.2-6.9-3.1-11.1,0.5c-1.3,1.6-2.7,4.8-4.1,9.7c-1.4,4.8-2.7,10.1-3.6,15.9c-0.4,2.3-0.7,4.6-1,6.9
			c-1.5,3.3-3.6,8.1-6.2,14.4c-10.3,26.1-18.4,41.7-24.1,46.8c-2.6,2.3-4.3,3-5.3,2.2c-1-0.8-2.3-3.5-3.9-8
			c-1.3-4.5-1.8-9.8-1.4-15.9c0.3-6.1,1.6-14.5,3.9-25.1c1.9-9.3,2.9-15.9,2.9-19.8c0-3.9-0.8-6.6-2.4-8.2c-1-1.6-2.3-2.4-3.9-2.4
			c-1.6,0-3.7,2-6.3,6c-2.6,4-6.4,11.2-11.6,21.5c-10.9,21.2-18.4,31.2-22.2,29.9c-3.9-1.3-5-8.9-3.4-22.7c1-8.7,2.6-16.7,4.8-24.1
			c2.2-7.4,4.8-13.8,7.7-19.3c2.9-5.5,6-9.7,9.4-12.6c3.4-2.9,6.7-4,9.9-3.4c2.6,0.6,4.8,2.1,6.8,4.3c1.9,2.3,3.2,4.8,3.9,7.7
			c0.6,3.2,1.9,4.8,3.9,4.8c1.6,0,2.5-0.2,2.7-0.7c0.2-0.5,0.2-2,0.2-4.6c-0.3-7.7-3.5-13.7-9.4-17.9c-6-4.2-12.6-5.1-20-2.9
			c-8.7,1.9-16.4,8.2-23.2,18.8c-7.2,10.7-11.9,21.8-14.1,33.3c-1.4,2.3-3,4.7-4.7,7.3c-2.9,4.2-6,8.5-9.4,12.8
			c-3.4,4.3-6.8,8.5-10.4,12.6c-3.5,4-6.8,7.5-9.7,10.4c-6.4,6.1-13.2,10.9-20.3,14.2c-7.1,3.4-12.7,4.8-16.9,4.1
			c-2.9-0.3-6-1.5-9.4-3.6c-3.4-2.1-6.8-4.5-10.1-7.2c-3.4-2.7-6.5-5.8-9.4-9.2c-2.9-3.4-5.2-6.5-6.8-9.4c-1.9-3.2-3.5-6.5-4.6-9.9
			c-1.1-3.4-2-7.1-2.7-11.1c-0.6-4-1.1-8.8-1.4-14.2c-0.3-5.5-0.5-11.9-0.5-19.3c0-6.8,0.1-12.2,0.2-16.4c0.2-4.2,0.4-7.9,0.7-11.1
			c0.3-3.2,0.9-6.4,1.7-9.7c0.8-3.2,2-7.2,3.6-12.1l1.4-6.3l12.6-1c31.2-1.9,59.6-12.6,85-31.9c14.2-10.6,25.9-22.2,35.3-34.8
			c9.3-12.6,15.6-25.1,18.8-37.7c3.9-15.1,2.8-27.4-3.1-36.9c-6-9.5-15.7-14.2-29.2-14.2c-5.5,0-10.3,0.5-14.5,1.4
			c-4.2,1-9.5,3.1-15.9,6.3c-11.9,5.8-23.8,14.3-35.7,25.6C-985.6,7.2-996,20.1-1005,34.6c-2.6,3.9-5.4,8.7-8.5,14.5
			c-3.1,5.8-6,11.8-8.9,17.9c-2.9,6.1-5.6,12-8.2,17.6c-2.6,5.6-4.5,10.4-5.8,14.2l-4.8,12.6l-3.9-1c-13.5-1.6-25.5-5.5-36-11.6
			c-12.5-7.3-18.9-25.1-21.4-23.8c-0.5,0.3-0.6,1.2-0.6,2c0,12.1,6.3,20.3,6.3,20.3s8.4,11.1,33.8,17.9c4.8,1.3,7.7,1.7,7.7,1.7
			c2.6,0.5,4.3,0.7,5.3,0.7c3.2,0,5.1,0.5,5.6,1.4c0.5,1,0.1,4.2-1.2,9.7c-2.9,12.6-4.8,24.9-5.6,36.9c-0.8,12.1-0.6,23.4,0.7,34
			c1.3,10.6,3.6,20.3,7,29c3.4,8.7,7.6,15.9,12.8,21.7c3.2,3.5,6.3,6.3,9.2,8.2c2.9,1.9,6.8,4,11.6,6.3c2.9,1.3,5.5,2.1,7.7,2.4
			c2.2,0.3,6.1,0.3,11.6,0c2.9,0,5.3-0.1,7.2-0.2c1.9-0.2,3.6-0.4,5.1-0.7c1.4-0.3,2.9-0.8,4.3-1.4c1.4-0.6,3.5-1.6,6-2.9
			c4.5-2.2,8.1-4.4,10.9-6.5c2.7-2.1,6.8-5.9,12.3-11.3c5.8-5.8,11.3-11.9,16.4-18.4c3.2-4.1,6.1-7.9,8.6-11.5c0,0.9,0,1.9,0.1,2.8
			c0.3,4.5,0.6,7.8,1,9.9c0.3,2.1,1.3,4.4,2.9,7c4.8,8.4,10.5,12.6,16.9,12.6c4.2,0,7.9-1.8,11.1-5.6c3.2-3.7,7.6-10.4,13-20
			c2.2-3.5,3.6-5.6,4.1-6c0.5-0.5,0.6,0.1,0.2,1.7c-2.9,22.9,0,38.6,8.7,47.3c1.6,1.6,3,2.7,4.1,3.1c1.1,0.5,2.8,0.7,5.1,0.7
			c2.6,0,4.4-0.3,5.6-1c1.1-0.6,3-2.2,5.6-4.8c3.2-3.5,7.2-10.1,12.1-19.6c4-7.9,7.8-16.4,11.4-25.5c0.1,0.4,0.1,0.8,0.2,1.2
			c1.9,10.3,6,15.5,12.1,15.5c4.5,0,8.7-4.5,12.6-13.5c3.5-8.7,7.7-17.5,12.6-26.6c4.8-9,9.7-17.3,14.7-24.9c5-7.6,9.8-14,14.5-19.3
			c4.7-5.3,8.5-8.8,11.3-10.4c1-0.6,1.7-1,2.2-1c0.5,0,0.7,0.7,0.7,2.2c0,1.4-0.3,4-1,7.7c-0.6,3.7-1.6,8.9-2.9,15.7
			c-2.6,14.2-4.1,27.3-4.6,39.4c-0.5,12.1,0.1,21,1.7,26.8c1.6,5.5,3.5,10.4,5.6,14.7c2.1,4.3,4.4,7.3,7,8.9
			c6.1,4.2,12.1,3.5,18.1-2.2c4.9-4.7,10.7-13.7,17.2-27c0,2.7,0.1,5.2,0.4,7.5c0.6,6.4,2.3,12.2,4.8,17.4c3.9,8.4,9,13.2,15.5,14.5
			c6.8,1.9,12.6,1.1,17.4-2.4c4.8-3.5,10.3-10.6,16.4-21.2c1.9-3.2,4.1-7.5,6.5-12.8c1-2.2,2-4.4,2.9-6.5c0.3,6.6,1.5,12.6,3.6,18.1
			c3.2,8.5,8,14.7,14.5,18.6c3.5,2.3,7.3,2.9,11.3,1.9c4-1,7.8-3.4,11.3-7.2c3.5-3.5,8-10.1,13.3-19.6c2.9-5.2,5.7-10.7,8.6-16.5
			c0.1,0.8,0.2,1.6,0.4,2.3c1.9,10.3,6,15.5,12.1,15.5c4.5,0,8.7-4.5,12.6-13.5c3.5-8.7,7.7-17.5,12.6-26.6
			c4.8-9,9.7-17.3,14.7-24.9c5-7.6,9.8-14,14.5-19.3c4.7-5.3,8.5-8.8,11.3-10.4c1-0.6,1.7-1,2.2-1c0.5,0,0.7,0.7,0.7,2.2
			c0,1.4-0.3,4-1,7.7c-0.6,3.7-1.6,8.9-2.9,15.7c-2.6,14.2-4.1,27.3-4.6,39.4c-0.5,12.1,0.1,21,1.7,26.8c1.6,5.5,3.5,10.4,5.6,14.7
			c2.1,4.3,4.4,7.3,7,8.9c6.1,4.2,12.1,3.5,18.1-2.2c4.3-4.1,9.2-11.4,14.7-22.1c0,0,0,0.1,0,0.1c-0.3,3.5-0.3,6.4,0,8.5
			c0.3,2.1,0.8,3.5,1.4,4.3c0.6,0.8,1.8,1.5,3.4,2.2c3.2,1.3,6.3,0.5,9.2-2.4c2.9-2.9,8-10,15.5-21.2c7.4-11.3,14.2-21.2,20.5-29.7
			c6.3-8.5,11.7-15.2,16.2-20c2.9-3.2,5.7-5.8,8.4-7.7c2.7-1.9,4.1-2.2,4.1-1c0,0.3-0.4,3-1.2,8c-0.8,5-2,11-3.6,18.1
			c-1.6,9-2.9,16.5-3.9,22.5c-1,6-1.7,10.9-2.2,15c-0.5,4-0.7,7.2-0.7,9.7s0.3,4.8,1,7c1.3,6.4,3.3,12.2,6,17.1
			c2.7,5,5.9,8.3,9.4,9.9c3.2,1.6,6.4,2.1,9.4,1.4c3.1-0.6,6.1-2.7,9.2-6.3c3.1-3.5,6.2-8.7,9.4-15.5c3.2-6.8,6.9-15.5,11.1-26.1
			c1.3-2.9,2.7-6.4,4.1-10.4c0.8-2.2,1.6-4.2,2.4-6.1c0.2,0.8,0.4,1.6,0.7,2.5c1.3,3.9,3.5,7.7,6.8,11.3c3.2,3.7,6.9,6.5,11.1,8.5
			c3.5,1.6,7.6,2.4,12.1,2.4c4.5,0,8.7-0.8,12.6-2.4c2.6-1.6,4.3-2.4,5.3-2.4c1,0,2.6,0.6,4.8,1.9c7.4,3.2,14.8,3.2,22.2,0
			c4.2-1.9,8-4.7,11.3-8.5c3.4-3.7,7.2-8.9,11.3-15.7c3.5-5.8,5.6-9.7,6-11.6C-215.7,190.5-216.6,189.6-218.9,189.6z M-421.5,160.4
			c1.1-6.6,2.4-14,3.9-22.2c1.4-8.2,2.9-16.1,4.3-23.7c1.4-7.6,2.5-13.1,3.1-16.7c5.1-20.3,11.2-36.1,18.1-47.3
			c6.9-11.3,13.8-16.3,20.5-15c2.9,0.6,5.7,2.3,8.5,4.8c2.7,2.6,5.1,5.7,7,9.4c1.9,3.7,3.3,7.8,4.1,12.3c0.8,4.5,0.9,8.9,0.2,13
			c-1.6,12.2-5.9,24.3-12.8,36.2c-6.9,11.9-17.1,24.6-30.7,38.2c-9,9-15.9,15.5-20.8,19.3c-4.8,3.9-7.2,5-7.2,3.4
			C-423.1,170.9-422.6,167-421.5,160.4z M-1022.4,105.5c1.3-3.2,2.8-6.9,4.6-11.1c1.8-4.2,3.7-8.6,5.8-13.3
			c2.1-4.7,3.9-8.8,5.6-12.3c3.5-7.1,7.8-14.6,12.8-22.5c5-7.9,10-15.4,15-22.5c5-7.1,10-13.4,15-19.1c5-5.6,9.3-9.7,12.8-12.3
			c3.2-2.6,7.2-5.1,12.1-7.5c4.8-2.4,9.7-4.6,14.5-6.5c4.8-1.9,9.6-3.5,14.2-4.6c4.7-1.1,8.5-1.7,11.3-1.7c5.1,0,9.4,2.4,12.8,7.2
			c3.4,4.8,5.1,10.9,5.1,18.4c0,6.8-1.5,14.1-4.6,22c-3.1,7.9-7.2,15.7-12.3,23.4c-5.2,7.7-11.3,15.2-18.4,22.5
			c-7.1,7.2-14.7,13.6-22.7,19.1c-17.4,11.6-36.2,19.3-56.5,23.2c-3.2,0.6-6.5,1.2-9.9,1.7c-3.4,0.5-6.5,0.8-9.4,1
			c-2.9,0.2-5.2,0.3-7,0.5c-1.8,0.2-2.7,0.1-2.7-0.2C-1024.4,110.5-1023.7,108.8-1022.4,105.5z M-266.2,205.5
			c-0.6-1.9-1-4.7-1.2-8.2c-0.2-3.5-0.2-7.2,0-11.1c0.2-3.9,0.6-7.6,1.5-11.1c0.8-3.5,1.7-6.6,2.7-9.2c2.9-6.4,5.9-10,8.9-10.6
			c3.1-0.6,5.1,1.9,6,7.7c1,6.8-1.4,16.1-7.2,28c-1.6,3.2-3.1,6.1-4.6,8.7c-1.4,2.6-2.5,4.2-3.1,4.8
			C-264.9,206.8-265.9,207.1-266.2,205.5z"/>
	</g>
</g>
<g>
	<path class="st2" d="M960.5,427.7c-12.3-55.2-38.6-103.8-73.3-146.2l-0.3-0.8l-0.5-0.3c-3.2-3.8-6.4-7.6-9.7-11.4
		c0.2-0.3,0.8-0.2,1.9,0.4c0.7,2.3,3,4.5,3.8,6c-1.8-5.3-4.7-8.3-7.1-10.9c-2.4-2.6-4.1-5-3.7-9.3c-5.6-2.6-14.3-9.3-17.9-18.8
		c4.1,1.8-6.8-8.3-0.4-6.9c-4-1.8-7.2-10.5-10.3-10c1.6,0.5,4.3,3.9,5.3,6.9c-3.4-2.6-5.7-1.4-8.3-5.6c-0.1-0.8,0.7-0.9,0.7-0.9
		c-5.9-3.6-8.3,3.9-15.4-4.7c-10.3-10.5-7.9-11.2-3-9.9c4.9,1.3,12.3,4.8,11.6,2.6c-2.3,0.5-12.1-8.4-14.7-14l1.7,0.4
		c-2.7-1.7-7-3.8-7.7-7.6c-3.8,1-8.7,0.8-11.8,0.9c0,0-2.4-2.3-4.9-4.5c-2.5-2.2-4.9-4.4-4.9-4.4l3.3,0.5c-2.7-1.5-4.7-3.3-6.8-5.1
		c1-2.7,3.4,0.5,7,2.6c0.1-3.3-1.9-5.1-6-5.3l1.1,1.2c-3.6-1.3-15.4-6.8-8.8,0.6c-7.1-3.1-5.4-8.5-10.1-10.9c1-2,5,0.6,4.2-2.4
		c-3.4-3.7-5.9-6-9.7-7.8c2.6,3.1-2.2,0.9,1.8,5.9c-2.7-0.6-7.9-4.2-8.4-3.2c1.9,0.9,3.6,1,5.4,4.3c-5.9-3.4-11.5-7.5-15.9-13.1
		c0.5-0.3,1.4-0.3,2.3-0.2c-1.6-0.4-3.2-1-4.9-1.6c3.9,0.6,7,1.1,7,1.1c-7.4-5.7-14.5-7.2-21.2-8c-0.9-0.1-1.8-0.3-2.7-0.4
		c-1.5-0.5-2.9-0.8-4.2-0.9c-0.9-0.2-1.7-0.5-2.6-0.8c-3-1-6-2.5-8.8-5.1c1.2,0,2.4-0.3,3.5-1.2c-1-0.6-1.9-1.1-2.8-1.5
		c0,0,0-0.1,0-0.1c-0.1,0-0.2,0-0.3-0.1c-2.9-1.3-5.5-1.7-8-1.8c-2-0.4-3.9-0.7-5.4-0.3l-6.9-3.2c0.8-1.6,5.2-4.5,12.4-1.2
		c-6.2-2.9-12.3-5.1-18.4-6.7c-3-0.8-6-1.6-9-2.3c-3-0.6-6-1.2-9-1.8c-11.9-2.4-23.7-4.5-36.4-9.7c-0.9-1.1,3.8-0.1,1.9-1.2
		c-3.3,0-8.3-0.1-9.6,0.6c0.5-0.5,1.3-1.1,2.8-1c-6.7-0.9-11.5-3-15.9-4.7c-4.5-1.7-8.4-3.4-13.2-2.8c-0.1-2.3,7.1-0.2,6.1-1.2
		c-6.7-2.3-12.2-1.8-17.7-1.3c-5.5,0.7-10.9,1.7-17.9,0.8c5-2.7-2.7-3.5-6.3-5.8c-5.9,0.7-14.9,0.9-24.7,1.2
		c-4.9,0.2-9.9,0.5-14.8,0.7c-4.9,0.4-9.7,0.8-14,1.4c4.4-8-19.3,0.2-21-6.2c-3.9,0.2-9.9,1.8-10.1,4.3c2.1-1.4,7.5,0.3,6.8,1.7
		c-5.6,0.7-14.2,1.8-14.6,5.1l-7.2-2.6c-0.2,2.5-2,5.8-5.8,6.3c-9.2-5.2,1.5,4.3-10.9,2.5c2.3-3.1,4.5-5.2,5.2-7.4
		c-6,0.1-4.9,1.6-8.9,2.9c-1.7-1.7,3.2-6.1,7.6-7.9c0,0-2-0.2-3.9-0.5c-2-0.2-3.9-0.3-3.9-0.3c-6.8,5-18.3,12.7-30,14
		c1.4-2.7,5.1-3.5,1.4-6c-4.8,2.1-10.4,7.7-17.4,7.3c0.8-0.5,0.2-0.8,1-1.2c-10.5,6.4-8.9,1.2-19.3,3.9c0.1-0.4,0-0.8,0.2-1.3
		l-5.6,4.1c-11.2,9.8-15.7,1-24.4,1.7l1.5-1.1c-3.1-0.9-8.3,0.8-13.3,3.1c-5,2.3-9.8,4.7-12.3,4.9c6.4,0,2.8,1.5,8.3,3.7
		c4.5-2.7,1.2-6.8,9.9-8.4c0.3,3.9-9.3,9.4-10.2,13c-4.3,1.9-9.7-2.4-11-4.3c-5.4,2.7-9.9,4.1-14.6,6.1c-4.7,1.9-9.7,4-16,8
		c-1.7,2.4-2.5,5.9-4.5,9c-2,3.1-5.1,5.7-11.8,6.3l-0.1-0.9c-0.4,1.8-5.6,2.1-6.7,4.7c5.7,1.4-3.1,5,3.3,5.7
		c-5.9,3.9-9.8-0.3-12.2-2.8c-1.2,7.6-13.7,5-20.9,14.1c0.3-3,9.9-10.3,4.3-9.8l-8,13.4l5.1-3.6c-3.2,4.8-6,6.6-8.9,7.6
		c-2.9,0.9-5.7,0.9-8.8,2.1c-2-0.6,0.9-3.5,3.4-5.3c-2.8,1.8-6.7,5.5-9.2,9.2c0.4-0.9,0.5-1.5-0.2-1.5c-0.4,1.5-1,2.3-1.3,3.8
		c0.4-0.7,1-1.5,1.6-2.3c-0.7,1.7-3,4.8-5.2,8c-2.2,3.3-4.3,6.9-5.1,9.4c-0.5,0.3-1.1,0.6-1.6,0.9c-0.1-0.4-0.1-0.8,0.2-1.1
		c-0.6,0.7-1.1,1.3-1.5,1.9c-1.6,1-3.3,1.9-4.8,3l0.3-1.4c-0.4,0.6-0.8,1.3-1.2,1.9l-4.9,3.3l-1.3,3l1.2-0.9
		c1.3,1.8,1.1,4.4-0.1,7.3c-1.1,2.9-3.4,6-6.5,8.7c0.5-0.2,4-2.8,8.8-6.6l-0.5,2.5c-3.6,2.8-7,5.6-10.4,8.2
		c-3.3,2.8-6.4,5.5-9.5,8.1c1.4-2.7,3.1-5.3,5.8-7.6c-4.6,1.5-8.1,5.8-11,9.7c-3,3.9-5.7,7.3-9.3,6.9c5-13.3,11.5-16.2,20.2-27.3
		c8.2-1.9-4.6,8.2-3,10.4c0,0,1.6-1.2,3.2-2.4c1.6-1.2,3.2-2.3,3.2-2.3c-2.6-1.1,9.9-11.8,3-13.3c-14.2,10.5-26.9,22.9-36.7,34.6
		c0,0-3.5-7.7-6.6-15.5c-3.1-7.8-6.1-15.8-6.1-15.8c-0.3-0.3-0.6-0.9-0.8-2.2c-10.7,12.2,3.5,13.4,1.8,17.1c-2,2.9-1.9,6.9-5.4,7.8
		l-0.2-2.3c-5.1,8.6,1.4,5.1-4.4,11.6c-2.3,7.1,4.3-4.5,3.5,0.6c-3.2,3.4-2.5,5.8-2.4,8.4c0.1,2.7-0.5,5.5-6.1,10.3
		c-0.7-1.4-4.9-1.6-0.4-8.8l-7.3,4.9c4.5-8.9,1.2-3.8,7.1-12.1c-0.5-6.3-3.3-7.1-3.4-12.7c-1.6,3.7,1.6,5.2-2.1,9.6
		c-5.1,4.9-1-2.1-1.7-3.5c-1.8,10.2-9.7,5.7-10.8,15.2c4.9,1.5,3.9,2.7,9.9-0.2c-2.1,5.6-9,9.7-12.2,6.9l2.6,3.2
		c-1.6,0.6-4.2,4.4-5.2,4.1l0.5,2.7c4.9-1.9,7.8-4,10.9-10.8c0.5,3.9,7.7,0.5,3.1,8.7c-2.3,3.3-2.1-0.8-3.2-1.3
		c-2.3,4.8-4.5,8.1-6.7,10.5c-2.1,2.5-4.1,4.2-6.1,5.8c-4,3.1-7.8,5.9-10.8,13.8c0.3-2.3,2.2-5.3,4.3-8.9c2.2-3.5,4.5-7.4,5.4-11.6
		c-5.4,2.4-4.6,9.5-7.3,13.4c0.6-4.5-0.2-5.9-4.1-2.4l1,3c-1.5,2.6-3.9,7.4-5.1,7.2c0.7,0.5,1.9-0.3,3.9-2.3c-0.2,2-0.7,4.4-1.5,6.9
		c-0.7,2.5-1.6,5.3-2.7,8.1c-1.1,2.8-2.5,5.7-4,8.7c-1.4,3-3,5.9-4.8,8.7c-4.2-2.9,5.5-18.4-2.2-11.3c-1.5,5.4,1.4,11.6-4.8,19.1
		c-1.1-4.8-4.4,2.8-6,2c0,0,0.1,3.6,0.2,7.2c0.2,3.6,0.5,7.2,0.5,7.2c-1.4,2.9-2.8,6-3.9,9.1c-0.9,2.5-1.4,5-1.7,7.5
		c0.3-1.6,0.9-3.4,1.8-5.4c3,10.3-7.1,14.9-7.6,26.5l-0.5-5.6c-1.7,4-2.7,7.7-3,11.3c-0.3,3.6-0.2,7.2-0.1,10.7l-3.5-1
		c4.5,2,2.7,16.5,3.6,19.9c0.3-10.4,2.1-14.6,4.1-18.6c2-4,3.6-7.9,4.5-18c2.8,8.5,2.5,13.9,5.2,22.7c-1,2.8-2.1,3.8-3.2,3.8
		c1.4,2.9,4.4,4.3,4.8,9.1l-2.2,1c-2.4,6.3-0.7,9.6,0.9,12.8c1.7,3.2,3.3,6.3,1.7,12.3c-5,1.9-4.6-11.5-6.1-19.7
		c-5.3,5.2,0.3-12.9-7-7.1l2.1,4.3c-0.7,3.5-2.6,3.2-2.8,1.4c0,4.5-0.6,3.4,1.3,5.6c-1.3,10.1-2.7,9.4-4.4,8.6
		c-1.6-0.8-3.9-1.8-6,8.2c-1-2.4-0.1-8-2.9-7.3l2.8-10.8l-3.5-0.8c-2.6,13.9,1.4,22.7,6.6,29.5c-2.1-12.7,3.9-1,6.4-7.2
		c1.5,2.6,0.3,4.7-0.9,5.9c0.9,1,1.1,7.2,3.2,6.5c-4.4,1.1-7.3,8.3-9.8,14.5c-2.4,6.2-4.9,11.4-9.2,8.2c-3.1,7.8,2.1,31.9,4,48.4
		l-2.9-4.4c-6,18.2,7.3,14.9,10.9,24.7c-4.2-8.5-2.7,8.4-4.7,12.4c4.3,7.4,10.2,12.8,11.9,23.7c-3,3-8.8,4.5-7.4,11.5l4.2,4
		c1.3,7,5.9,15.5,5,20.4L51,636c0.3,8.1,5.7,7,4.6,0.9l4.1,6.6l-1,0.5c2.4,4.5,5.6,8.5,8.9,13.2c3.3,4.7,6.9,10,9.8,17.2
		c-4.7-2.8-2.5,13.4-8.1,0.4c3,3.3,2.6-3.3,3.8-4.5c-0.8-5.1-6-8.2-7.1-10.2c-1.4,2.2-6.5,2.3-9.9,0.4c4.3,4,7.6,13.2,10.9,21.3
		c3.2,8.2,7.3,15,12.1,14.3c2.1,5.9,5,12.5,8.2,19.2c3.3,6.7,6.6,13.6,8.8,20.5c0.1-0.7,0.4-2.1,1.2-2.1c0,0,0.3,3.3,0.7,6.5
		c0.5,3.2,1,6.4,1,6.4l-2.1-2.2l1.1,8.7c-1,1.5-3.8-0.7-5.7-3.6c-1.3-1.4-1.1-3.3,0-2.4c-6.4-5.9,2.3,7.5-3.4,3.9
		c-0.5-2.2-2.6-4.4-3.1-5.9c2.4,10.3,10.1,11.7,8.3,19.8c2.6,1.4,5.6,4,8.5,7.2c3,3.2,5.6,7.2,6.8,12c-3.2-1.7,3,5.5,1.4,6.7
		c-8.3-9.4-16.3-19-24.1-29c-3.1-4-15.3,2.9-18.3-0.9c62.5,79.7,138.3,137.7,225.3,170.7c71,26.9,149,39.4,223,28.2
		c-6,0.9-12.3-1.8-18.3-0.9c-43.3,6.5-160.7-10.5-235.6-48.2c-6.1-3-12-6.2-17.9-9.5c1.6,0.4,3.3,0.9,5,1.9
		c-1.8-4.8-14.3-15.6-17.8-11.4c4.2,0.2,6.7,0.4,11,3.7c-1.1,3.2-2.9,2.8-5.2,1.8c-4.7-2.8-9.4-5.6-14.1-8.6l0.1,0l-1.3-2.3
		c-2.3-0.3-5.6-2.7-6.1-4.6c5.5,3-0.8-5.9,5.4-3.3c4.1,2,6.9,5.2,9.5,7.8c2.8,2.4,5.5,4.2,8.9,3.5c-6.8-4.9-13.7-14.3-17.7-14.7
		l4.1,3.6l-13.4-3.2c0.5-1-1.8-2.5-4-4c-2.2-1.5-4-3.4-2.7-4.7c3.4,2.6,6.6,4.9,9.4,6.7c0.2-0.8-1.9-2.8-4.4-4.9
		c-2.5-2.2-5.2-4.8-6.7-6.5l3.2,4.9c-4.6-2.4-9.2-6-13.6-9.7c-2.2-1.8-4.4-3.7-6.6-5.4c-2.1-1.8-4.1-3.5-6.2-5
		c7.3,3.8-4.8-9,1.6-6.4c3.1,0.5,3.6,5.5,3.5,4.1c2.9-1.6-3.5-4.8-3.1-7.9c-2.2,0.7-9.8-6-7.6,0c-1.1-3.4-8.5-6.4-9.3-11.4
		c-2.1,3.4-7-5-9.3-5.2c-1-1.6-1.5-3.4-1.6-5c3.5,2.5,7.9,5.4,12.4,8.4l0,0c0.8,2,3.2,5.1,3.2,3.6l1.1-0.9
		c9.5,5.5,19,10.4,23.6,13.2l-3.1-0.5c2.1,0.6,3.8,1.6,5.3,2.8c1.6,1.1,2.9,2.5,4.2,3.9c2.6,2.8,5.2,5.7,9.2,7
		c-0.7,0.3-1.5-0.1-0.6,1c6.4,7.3,13.8,4.5,17.7,11.7l-2.1,1c0.7,0.2,5.3,1.8,6-0.6c-5.4-3.4-7-3.5-11-7.6c2.9,0.1,7.6,1.9,10.5,4.1
		l-0.1,0.1l0.2-0.1c0.1,0.1,0.2,0.2,0.3,0.2l2.6-2.6c6.1-0.1,6.2,7.5,12.3,7.3c-0.1,0.1-2.8-5.3-2.8-5.3c0.2,0,0.6,0.2,0.9,0.3
		c-2.1-1.3-4.1-2.2-5.1-1.9c-7.7-3.7-7.6-10.3-7.3-12.6c-1.3-1.9,0.4-2.5,2.2-3.1c0.4,0.3,0.9,0.6,1.3,0.8c5.6,3.4,11,6.8,16.6,10.4
		c1.9,1.3,3.9,2.7,5.9,4c0.4,0.4,0.8,0.9,1.2,1.3l-4.1,1.7c-3.4-6.1-7.7-6.9-12.4-11c0,0,9.7,10.6,9.9,10.3c3.7,6.3-0.4,4.4-5.2,1.9
		c1,0.8,1.9,1.6,1.8,2.3c1.4-0.7,15.5,5.3,5.5-2.4c2.9-3.2,7.8,2.9,11.1,3.9c-0.7-1.1-0.1-1.5,0.7-1.8c0.8,0.7,1.7,1.3,2.5,2
		c0.6,1.4-3.8-1.3-2.3,0.4c3.3,1.2,8.4,2.9,9.9,2.7c-0.7,0.4-2,0.8-3.8-0.2c2.4,1.1,4.4,2.2,6.3,3.4l-6.8,1.8c-0.1,0.2-6.5-6-6.5-6
		c-1.1,1.5-7.1-1-4.5,2.8c0.9,0.2,2.5,0.8,3.6,1.7c-2.9,2.7-10.8-5.1-10.9-0.3c6.4,3.2,6.8,4.5,12.1,4.3c5.2,3.8,8.9,6.7,10.8,9.5
		c2,0.4,3.4-1.5,5.7-0.7c-0.5-0.2-0.9-0.4-1.5-0.7l2.7-5.2c-2.3,0.1-3.7-1.3-5.6-2.3l7-0.5c1.1,0.8,2.1,1.6,3.1,2.3
		c2,1.6,4,3.1,6,4.3c0.1,0.1,0.3,0.1,0.4,0.2c0,0-0.1,0-0.1,0c-1.4,0-2.2,0.6-3,1.4c-1.5,1.5-2.9,3.3-8.7,0.8
		c0.7,0.3,1.6,0.8,2.5,1.9c2.8,1.2,4.2,4.4,2.7,4.7c6.7,0.7,5.6,3.1,8.6-1c4.7-0.5,7.1,4.3,2.1,4.2l11.8,2.1l-5.9-3.6
		c3.4-3,9.4,5.8,13.3,2.2l-11.3-4.8l0.7-0.6c1.6,0.4,3.3,0.7,4.9,0.9l0.1,0c89.6,51.7,196.1,52.2,297.4,27.8
		c-4.2,1.9-9.6,3.1-14.5,4c-7.8,1.7-14.5,2.8-13.3,7.5c3.5-1.2,9.4-2.4,14-5.9l1.7,6.3c7.6-2.5-0.4-5,10.4-8.2l-3.3,0.7
		c3.6-2.2,8.8-4.1,14.2-5.9c4.3-1.5,8.8-2.9,12.7-4.2l2.9-0.8c0.1,1.8,5.5,0.4,6.2,2.8c-0.6,0.3-1.1,0.6-1.7,0.9
		c0.6-0.2,1.3-0.4,1.8-0.6c0,0.1,0,0.1,0,0.2c5.4-2.8,10.8-5.4,13.1-9.2c6.3-2,12.5-4,18.7-6.1c-6.1,7.2-12.4,14.2-20.7,20.6
		c-1-1.4-5.4-0.4-10.7,1.3c-5.2,1.6-11.3,3.7-15.4,4.7c1.9-4.5,7.4-7.4,13.1-10.3c-3.8,1.2-10.4,3.3-15.3,4.8l0.2,7.4
		c-22.1,7.6,3.7-7.1-6.9-5.2c-5.9,2.5-7.3,5.8-10.9,7.7c17-7.6,0.1,9.3,17.7,2.3c-1.1,5.4-11.4,9.3-18.1,9.6
		c-8.3-2.6,5.2-4.9,5.4-9.9c-7,2.9-5.5,3.3-7.9,6.7c-2.9,0.5-5.8,1.6-8.6,2.7c-2.8,1.2-5.5,2.3-8.1,3.4c-5.2,2.1-10.1,3.3-14.3,0.8
		c-8.2,2.8-7.2,4.9-11.7,8.3c0,4.7,10.7,0.9,15.8,2.5c-0.4-0.3-0.6-0.6-0.5-0.9c0,0,1.9-0.1,3.8-0.3c1.9-0.2,3.8-0.4,3.8-0.4
		c-7.4,0-0.2-5.1,3.4-6.4c2.7-0.8,8-2.3,7.6-0.8l-3.8,2c5.7,0.3,10.6-6.6,16.9-5.5c0.6,1-1.3,2.1-1.5,2.9
		c5.3-4.9,11.2-6.7,19.5-11.8l-3.7,6.4c5.7-7.4,22.1-11.5,34.3-13.1c-1.5-0.3-4,0-3-1.4c6.1-3.5,12.2-2.5,10.2,1.2
		c2.4-3.3,8.8-4.8,15.3-7c6.5-2.2,13.4-4.6,16.4-9.1l1-1.5c2.9,1.9,5.6,3.3,7.3,2.6c94.2-38.9,173.6-118.3,219.6-207.6
		C968.6,623.1,981.6,522.5,960.5,427.7z M173.3,849.8c0.6,1,0.9,1.6,0.8,2.1c1.1,0.9,2.1,1.7,3.2,2.6c0.1,0.3,0.2,0.6,0.3,0.9
		c-1.2-1-2.3-1.9-3.5-2.9c0.1-0.6-0.4-1.5-1.6-3.1C172.9,849.5,173.1,849.7,173.3,849.8z M838.8,273.4c2.4,0.8,4.6,2.1,6.5,4.1
		c-1.1-1.2-2.1-2.7-2.6-5.4c0,0,3.5,1.8,6.9,3.6c3.4,1.9,6.9,3.8,6.9,3.8c-2.9-6.5-9.2-3.6-12.9-11.2c3.9-2,5.4-3.7,13.2,2.2
		c3.7,7.2-2.3,1-1.7,5.4c7.7,2.3,0.5,8.9,8.9,11.2c4.4,6.4,0.4,6,0.2,8.9c-4.2-6.4-1.9,5.3-7.6-2.5c1.8,7.9,6.8,2.5,8.6,9.1
		l-3.4,3.1c1.8,5.8,5.7,18,11.6,24.1c-0.4-7.4,4.3,2.3,6.3,0.2c-4,0.6-5.6-9-4-9.7c1.7,2.2,4.1,6.4,6.3,10.4
		c1.8,3.5,3.2,6.8,3.7,8.6c-0.2-1-0.5-2.7-0.8-4.5c-0.5-2.7-1-5.3-1-5.3c1.8,1.2,4.9,4.4,7.8,7.4c2.8,3,5.3,6,5.7,6
		c0,1.2,0.1,2.4,0.4,3.7c0.1,1.2,0.3,2.5,0.5,3.7c0.3,2.4,0.5,4.6-0.3,6l-5.4-6.3c0,0,0.5-0.9,0.9-1.8c0.4-0.9,0.8-1.8,0.8-1.8
		l-5-2.9c1,5.2,1.4,15.9-0.8,18.9c-0.8-2.7-1.8-5.8-3.1-9.1c-1.3-3.3-3.5-6.7-5.7-10.3c-4.7-7.1-11.1-14.6-19.4-21.9
		c0,0,0.8,0,1.5,0.7c-5-9.3-5.7-10-10.4-16.9l3,1.3c1.6-2.7-4.3-7.1-8.1-12.7c-2.3-0.9-6-3.8-5.8-7.1l2.3-0.3c0.9-2-2.7-7.8-7-14.1
		C836.3,272.5,837.4,273,838.8,273.4z M898.1,428.4c0.9,3.2,1.5,6.4,1.9,8.9c0.5,2.4,0.8,4.1,0.8,4.1c2,0.3,2.4-4,3.1-7.4
		c0.7-3.4,1.3-5.8,4.5-1.6c1.5,2.1,7.3,1,6.6,10.4c-0.5,0.2-1-0.6-1.3-1.4c1.2,4.1-0.1,4.9-0.4,9.5c-3.6,1.7-3.3-5.3-6.3-7.9
		c1.1,2.8,3,5.9,3,9.1l-1.5-0.6c0,0,0.5,2.4,1,4.7c0.2,1.2,0.5,2.4,0.6,3.3c0.1,0.9,0.2,1.5,0.2,1.5c1.5,1.9,1.6,0,1.4-2.3
		c-0.3-2.4-0.6-5.3,0.4-5.7l3,6c1.1,7,3.5,25.9-1.9,32.4c-1.8,8.2,2.5,4.5,4.9,6.6c3.2,4.9-0.9,9.6,0.5,14.4
		c1.5-0.1,2.2,1.3,2.9,2.8c0.7,1.5,1.5,3,3.3,3.1l-1.1,8c5.2,4.7,1.3-9.6,3.7-11.7c2.4-2.1,2.8-0.6,3,1.1c0.1,1.7-0.1,3.6,1.4,2.2
		c-0.3-6.2-3-6.7-3.8-9.7c-0.4-3.6,0.8-5.5,2.7-5.4c-2,10,3.9,5.4,3.1,13.6l-1.1,0.3c3.6,0.3,1,11.8,2.6,16.3
		c-4.5,8.7-5.2-7.4-6.4-7.1l0.8,10.8c-2.3-4.8-4.7-0.2-6.8-6.5c0.9,6.6-2.4,7.2-0.4,13.5c-2.6-3.7-3.7-1.5-4.7,1.5
		c-1,3.1-1.8,7.2-3.5,7.4c-0.6-6.8,4.4-18.6,5.7-19c-0.8-1.1,0.1-8.8,1.5-12l-4.8-5.2c-0.4,5.7,1.5,13.5-2.6,11.2l1.9,7.9
		c-6.3-8.3-6.1-7.8-8.7-15.1c-2.9,7.3-1.7,13.8-0.4,20.2c1.2,6.3,2.2,12.3-0.6,18.2l-0.4-1.9c-0.1,6-0.6,10.9-1.6,14.8
		c-1,3.9-2.4,6.9-3.9,9.3c-2.1,3.3-4.8,5.3-7.7,6.8c4.8-25,7.4-50.8,7.4-77.1c0-14.4-0.8-28.5-2.2-42.5c1-0.4,2-0.4,3-0.1l1.1,12.5
		c0.7-4.1,2.8-6.4,3.1-9.8c0,0,0,0,0,0c0,0,0,0,0,0c0-0.2,0-0.4,0-0.6c0.5,0.7,0.9,1.4,1.3,1.9c0.2,3.7,0.5,6,1.9,5.1l0.1-2.3
		c1.7,2.2,1.4,1.2,0-0.9c-0.2-2.4-1.3-2.2-2-2.5c-0.4-0.5-0.9-0.9-1.3-1.4c0-1.3-0.2-2.8-1-4.6c-1.3-2.1-1.7-1.6-3.3-1.5
		c-1.1-1.9-2.5-4-4.1-6.3c-1.3-10-3-19.9-5-29.6c2.4-2.9,1.1-7-0.8-11.6c-1.9-4.8-4.3-10.2-4.2-15.6l2,1.2
		c-2.3-2.4-3.4-7.3-4.1-12.7c-0.3-2.7-0.6-5.6-0.8-8.3c-0.3-2.7-0.8-5.3-1.2-7.6l0.8,0.1c3,5,5.4,5.5,6.2,2.5
		c1.4,1.7,2.5,4.6,3.8,6.1c0.4,3.1,3.7,11.5,0.6,13c-1.6-6.4-1.8-5.7-3.2-2.3c2.2,2.8,3.5,7.2,4.9,10.8c1.4,3.5,2.5,6.3,5,5.4
		c1.7,9-0.5,2.9-1.2,9.6c-1.4,1.1-3-0.9-4.6-2.9C894.9,415.6,896.5,422,898.1,428.4z M896.5,653.5c-1.1,4.3-2.9,9.2-2.8,12.3
		c-5.1,12.8-9.9,5.5-13.1,17.3l4.5-2.7c-1.8,5.1-2.9,8.8-4.7,12.4c-1.8,3.6-3.7,7.3-7.4,12c-4-0.6,3.5-4.3,3-7.7c0,0-1.5,0.8-3,1.6
		c-1.5,0.8-3,1.5-3,1.5c1.1-2.3,0.6-8.2,3.7-6.4c-1.6-0.9-2.3-5.8-4.4,1.4l0.1-6.2c-0.5,0.1-1,0.3-1.5,0.6c0.6-1.5,1.2-3.1,1.8-4.6
		c2.1-1.3,3.5-4.8,7.5-6.5c1.1,0.3,0,3.6-0.4,5.6c3.6-3.9,4.9-8.3,5.4-11.3c-4.1,6.9-3.9,2.3-7.4,2.6c0.9-4.8,4.6-11.8,4.9-14.7
		c3.8-5.5,8.8-9.6,9.9-4.4c0,0,0-0.1,0-0.1c0,0.6,0,1.3,0.2,2c0-0.9,0-1.6-0.2-2.3c0.3-4.4,3-8,1.4-13.2c0.5,9.1-7.3-2.3-6.4,9.3
		c-5.9,1.1,0.3-9.4,3.7-14.1c-0.1,3,2.2,1.2,3.4,2.3c0.9-8.5-3.8-5.8-6.8-0.6l0.3-9.8c-0.1,0.3-0.3,0.6-0.4,0.9
		c0.7-3.2,1.1-6.4,1.5-9.5c4.2-0.1,6.8,0.3,5.2,2.6l4-4.3l-1,8c4-2.3,2.8-8.4,3.9-12.4c3.4-4,0.2,11,3.5,17.4
		c0.9,4.6-3.9,12.1-5.7,12.1C898.1,646,897.5,649.5,896.5,653.5z M863.2,706.2c-0.6-0.9-1.3-0.8-2.1-0.3c0.1-0.3,0.3-0.6,0.4-0.9
		c0.7-0.3,1.3-0.3,1.7,0.5c1.5-2,2.2-3.2,2.3-4C865.7,702.4,865.2,703.6,863.2,706.2z M864.9,513.8c-6.9,2-5.3,7.3-5.7,14.9
		c-0.6,9.3-4.2,8.6-6.1,6.4c-2.3-2.7-4.3-5.5-6.6-8.2c-2.1-2.5-4.4-5-6.5-7.5c-12.5,3.5-19.7,9.8-22.7,5.5c-1.9-2.9-0.1-4.7,1.3-6.9
		c12.9-19.5,12.5-12.4-0.4-29.1c-0.8-1.1-1.5-2.3-2-3.6c-2.9-6.6,13.9,0.4,21.8,3.3c0.8-0.8,1.5-1.5,2.2-2.2
		c14.9-16.7,9.1-10.5,12.8-13.6c3.2-2.7,6.5,0.6,6.2,3.7c-0.1,1-0.4,1.9-0.6,2.9c-1.3,4.6-0.9,9.3-1.5,14.1c4.8,2.8,9.5,5,14.7,6
		c1.5,0.3,3.1,0.7,4.6,1.1c1.9,0.6,2.9,2,3.2,3.8c0.4,2-0.6,3.5-2.2,4.4c-1.9,1.1-3.8,1.9-5.8,2.7
		C869.4,512.4,867.1,513.1,864.9,513.8z M846.3,722.1c-1.7,0-4.5,1.3-8.1,3.3c4.1-6.5,7.9-13,11.6-19.7c0.1,1.6,0.1,3.4,0,5.2
		c0,6.2-0.4,13.4-0.8,16.6c-1.8,3.1-3.8,6.3-5.8,9c-2.1,2.7-4.2,4.9-5.9,6.4l0.8-2.2c5.2-6.7,7.9-11.6,9.1-14.5
		C848.4,723.3,847.9,722.1,846.3,722.1z M766.2,750.1l-5.6-6.3c40.1-42.4,69.8-94.8,84.6-153.1h8.7
		C838.8,651.5,808.1,706.1,766.2,750.1z M830.5,766.1c-0.6,2.5-7.8,10.9-8.5,7c6.2-4.8-1.8-10.7,7.2-12.3c-1.3-2.6-3.3-1.8-5.5-0.1
		c0.2-1.1,0.1-1.8-0.3-2.3c1.9-2,3.6-3.9,5.2-5.7c1.6-1.5,3.2-2.7,3.7-1.6C835.1,754.2,829.5,761.6,830.5,766.1z M792.8,790.9
		c-2,0.7-3.2,0.1-4.5-0.6c0.2-0.1,0.3-0.3,0.5-0.4c1.1,0.5,2.2,0.9,3.9,0.4L792.8,790.9z M751.3,830.3c-1.8,1.1-3.8,2.1-5.7,3.1
		l1.2-2l-1.4,0.8c-0.5-1-0.6-2.2-0.4-3.4c3.9-3.1,7.7-6.2,11.5-9.4C754.2,822.6,747.3,828.4,751.3,830.3z M731.4,568.6v-83.8
		l-34.2-153.5h34.2l17.1,107.2h1.2l18-107.2h33.6l-35.4,153.5v83.8H731.4z M759.3,819.5c2.4-2.4,5.7-5.4,5.1-6.5
		c0,0-0.6,0.3-1.4,0.8c5.4-4.7,10.6-9.6,15.7-14.6c2-1.5,3.9-2.4,6-2c-3.5,6.7-7.2,10.5-11.1,14.1c-4.1,3.5-8.4,6.8-13.8,12
		C755.3,823.9,756.8,821.9,759.3,819.5z M742,171.4c0,0.1-0.1,0.1-0.3,0.1c-0.1-0.1-0.1-0.1-0.2-0.2l-0.5-0.4
		C741.3,171,741.6,171.2,742,171.4z M742,172c8,2.7,11.2,11,20,12.8l-2.9-0.3c-7-2.9-10.3-10.2-18.1-12.2
		C741.4,172.1,741.9,172.2,742,172z M760.4,185.3c5.2,2.4,13.6,6.2,22.1,10.6c0.7,0.5,1.4,1,2.1,1.5l-0.2,0.2
		c-10.2-5.3-20.6-10-25.8-12.4L760.4,185.3z M731.9,142.5c0.1,0.1,0.1,0.2,0.2,0.3c-0.6-0.3-1.1-0.4-1.5-0.5
		C731,142.3,731.4,142.4,731.9,142.5z M730.3,142.3c-0.4,0-0.6,0.1-0.7,0.3l-0.3-0.4C729.4,142.2,729.7,142.2,730.3,142.3z
		 M736.7,155.6c-3.9-1.5-5.4,0.3-9.5-3.4c1-1.5,3.4,0.1,4.9-0.1c1.1-3.2-5.6-0.9-9.5-5.2c1.2,0.2,3.9,0.6,6.5,1
		c1.8,0.3,3.6,0.6,5,0.8c1.3,0.3,2.2,0.4,2.2,0.4c-0.9,2.1,10.5,5.7,8.1,8.6c-3.9-2.4-7.5-4.5-10.6-6.4c-0.1,0.9,2.3,2.8,5.1,4.9
		c2.9,2.1,6,4.6,7.8,6.2l-4-4.7c10.5,4,20.5,13.7,29.8,19c-2.7-1.1-2.9-0.5-2.2,0.7c-15.8-9.8-32.9-18-50.2-25
		C726,154.3,731.8,155.6,736.7,155.6z M732.2,166.5c-3.4-1-6.6-1.7-9.2-4.4c0.6,0.3,1.2,0.6,1.8,0.9c1.2,0.8,2.4,1.3,3.8,1.8
		C729.8,165.3,731,165.9,732.2,166.5z M709.1,156L709.1,156L709.1,156l1.1,0.5c1.6,0.7,3.1,1.4,3.1,1.4l-0.2-0.2
		c1.6,0.7,3.1,1.4,4.7,2.1c-0.1,0.2-0.2,0.4-0.3,0.6c6.1,3,7.7,3.1,12.3,7.1c-3.2,0.1-8.4-1.8-11.7-3.8l-2.4,2.8
		c-3.1,0.3-5-1.5-6.8-3.2c-1.9-1.6-3.8-3.3-6.9-2.9l2.8,3.8c-5.3-3.2-10.7-6.3-16.2-9.3c0.1,0,0.2,0,0.3,0.1
		c2.5,0.7,4.7,1.3,4.3-1.1c-6.4-2.2-7.6-3.3-11.8-2.8c-4-2.1-8-4.1-12.1-6c-0.7-0.5-1.3-1-1.9-1.5c-0.4,0-0.7,0.1-1,0.2
		c-5.7-2.6-11.4-5.2-17.2-7.6c10.9,2.6,21.5,5.7,32.1,9.4C690.8,148.7,700,152.2,709.1,156z M717.3,172c-2.9-1.9-5.7-3.7-8.6-5.5
		c0.4,0.1,0.9,0.1,1.2,0.1c2.2,1.4,4.4,2.8,6.6,4.2C716.7,171.2,717,171.6,717.3,172z M689.6,140.6c1.6,0.5,3.2,1.1,4.8,1.6
		c0.3-0.2,1.5-0.5,2.4-0.8c0.2,0.1,0.5,0.2,0.7,0.3c-0.4,0.4-2.7,0.8-3.1,1.1c-1.7-0.6-3.5-1.2-5.2-1.8
		C689.3,140.9,689.5,140.7,689.6,140.6z M700.6,144.9c-1.2-0.4-2.3-0.8-3.5-1.2C698.3,144.1,699.4,144.5,700.6,144.9z M684.4,136.3
		c0.6,1,3.9,2.1,5.6,3.1c-0.1,0.2-0.2,0.3-0.3,0.4C687.5,138.7,683.6,137.4,684.4,136.3z M658.3,129.7c-0.1-2,0-4.3,8.2-1.9
		c2.2,4.4,14.8,8.4,17.4,11.5l-3.5-1.1c-8-2.5-15.5-4.6-22.9-6.4C658.4,131.6,658.3,130.7,658.3,129.7z M596.3,112.4
		c2.1,2.3,5.1,2.7,8.6,3c3.5,0.3,7.5,0.2,11.2,2c0.9,1.1,3.1,2.7,1.2,3.9l-2.2-0.4c10.2,3.3,22.6,3.9,32.6,4.1l3.5,5.2
		c0.6,0.2,1.1,0.5,1.6,0.6c-10.4-2.3-20.7-4-32.3-5.2c-13.1-4.3-26.5-7.9-40.2-10.8C586,114.2,591.7,113.5,596.3,112.4z M553.2,109
		c1.3-0.1,2.2-0.1,2.2-0.1c1.1,0.3,1.5,0.6,1.5,0.9l1.4-3.2c3.7,0.4,4.7,1.4,3.9,2.7c8.1-0.5,11.5-4.4,19.8-2.3
		c-4,2.4-6.6,4-12.5,3.2l9.6,1.3c-1.9,1-5.7,1.1-9.4,1.3c-4.3-0.8-8.6-1.5-13-2.2l0.1-0.3c-0.1,0.1-0.2,0.2-0.4,0.3
		c-2.6-0.4-5.2-0.7-7.7-1.1C550.3,109.2,551.9,109.1,553.2,109z M164.7,247.3c1.4-1.5,2.3-2.2,2.9-2.5c-1.1,1-2.2,2-3.3,3
		C164.5,247.6,164.5,247.5,164.7,247.3z M508,148.1c167.1,0,307.4,115,345.9,270.3h-8.7C806.9,267.8,670.5,156.5,508,156.5
		c-162.4,0-298.9,111.3-337.2,261.8h-8.7C200.6,263.1,340.9,148.1,508,148.1z M687.5,379.7V520c0,10.6-0.7,19.1-2,25.5
		c-1.3,6.4-3.8,11.3-7.5,14.7c-3.7,3.4-8.8,5.7-15.2,6.8c-6.4,1.1-14.7,1.7-24.9,1.7h-49.3V331.3h49.3c10.2,0,18.5,0.6,24.9,1.7
		c6.4,1.1,11.5,3.4,15.2,6.8c3.7,3.4,6.2,8.3,7.5,14.6C686.9,360.6,687.5,369.1,687.5,379.7z M529.2,370.4c-0.4-2.4-1.1-4.3-2.1-5.7
		c-1-1.4-2.5-2.3-4.4-2.7c-1.9-0.4-4.5-0.6-7.7-0.6h-14.7v174.8l-0.9,0.1l0-0.1c-0.5,0-1.9,0.2-3.8,0.5h-0.3
		c-3.3,0.6-6.5,1.5-9.5,2.7l0,0c-3.4,1.4-6.4,3.1-9.1,5.1l0,0c-2.6,2-4.9,4.2-6.9,6.6c-1.4,1.7-2.7,3.6-4,5.7V331.3h49.3
		c10.2,0,18.5,0.6,24.9,1.7c6.4,1.1,11.5,3.4,15.2,6.8c3.7,3.4,6.2,8.3,7.5,14.6c1.3,6.3,2,14.8,2,25.4V520c0,10.6-0.7,19.1-2,25.5
		c-1.3,6.4-3.8,11.3-7.5,14.7c-3.7,3.4-8.8,5.7-15.2,6.8c-0.9,0.2-1.9,0.3-3,0.4c-0.2-2.9-0.6-5.5-1.2-7.8c-1-4-2.7-7.4-4.9-10.5
		l-0.2-0.2c-2.1-2.8-4.5-5.1-7.2-7c-1.8-1.2-3.6-2.3-5.6-3.1c1.9-0.1,3.5-0.3,4.7-0.7c1.9-0.5,3.4-1.4,4.4-2.7
		c1-1.3,1.7-3.2,2.1-5.7c0.4-2.5,0.6-5.8,0.6-9.8V379.7C529.8,375.9,529.6,372.8,529.2,370.4z M430.3,537.3L430.3,537.3
		c-2.3-0.3-4.4-0.4-6.4-0.4c-1.2,0-3.1,0.1-5.5,0.3c-2.1,0.2-3.9,0.4-5.4,0.7c-5.2,0.9-10,2.6-14.2,5.2c-0.8-0.4-1.7-0.8-2.6-1.1
		c-1.3-0.5-2.6-0.9-4-1.3l0.4,0c3,0,5.5-0.2,7.4-0.8c1.9-0.5,3.4-1.4,4.4-2.7c1-1.3,1.7-3.2,2.1-5.7c0.4-2.5,0.6-5.9,0.6-10.1V331.3
		h33.6v190.1c0,6.8-0.3,12.7-0.8,17.8c-1.1-0.3-2.2-0.6-3.4-0.9l0,0C434.2,537.9,432.2,537.6,430.3,537.3z M351.9,542.5L351.9,542.5
		c-2.5,1-4.9,2.3-7.1,3.9c-1.2-6.4-1.8-14.7-1.8-24.9V331.3h34.5v190.1c0,4.2,0.2,7.6,0.6,10.1c0.4,2.5,1.2,4.4,2.3,5.7
		c0.7,0.8,1.6,1.5,2.6,2c-1.2-0.1-2.3-0.3-3.3-0.4c-2.6-0.3-4.8-0.4-6.5-0.5l-1.2-0.1h-1.1c-3.1,0-6.4,0.4-9.8,1.2
		C358.2,540.2,355.1,541.2,351.9,542.5z M153.6,254l1.2,2.6c0.8-0.8,1.7-1.7,2.5-2.5c0.2,0.1,0.3,0.1,0.5,0.2c-1,1-2,2-3,3l-1.5-3.1
		C153.4,254.1,153.5,254,153.6,254z M127.6,273.5c-1.4,1.3-1.9,2.6-1.9,3.8c-0.1-1.4,0.3-2.8,1.7-4.3
		C127.5,273.2,127.6,273.3,127.6,273.5z M122.4,285.2c3-0.8,3.8-1.9,3.9-3.3c0.1,1.6-0.5,2.9-3.5,3.8
		C122.6,285.5,122.5,285.4,122.4,285.2z M120.4,280.4c0.3,0.8,0.3,1.6,0.3,2.5c0-0.7-0.1-1.4-0.4-2.1
		C120.3,280.7,120.3,280.6,120.4,280.4z M119.4,291.8c0.1,1.1,0.4,2.1,1.3,2.8c0.6,1.1,1.9-0.3,3.4-1.7c1.3-1.7,2.6-3.6,4.1-5.5
		c0.1,0.1,0.1,0.2,0.2,0.3c-1.5,2.1-3,4-4.3,5.8c-1.4,1.5-2.7,2.8-3.4,1.7C119.6,294.5,119.4,293.2,119.4,291.8z M107.1,318.8
		c2.8-6.2,6.4-12.5,9.6-15.5l-0.6,2.1c-8.1,13.8-8.8,18.6-5.6,18.3c3.2-0.3,10.3-5.5,18.7-11.2c-5.7,8.5-11.9,17.3-17.2,26.6
		l2.4-0.3c-2.3,2.7-0.9,6.3-3.9,7c-0.4-0.1-1.6-5.3-2.2-11.2C107.6,328.8,107,321.9,107.1,318.8z M137.3,698.7
		c-1.5-1.8-3.2-3.4-4.6-5.1c-1.5-2-2.6-4-2.5-6.8c0,2.4,1.1,4.3,2.5,6.1c1.1,1.4,2.5,2.7,3.8,4.1C136.8,697.7,137,698.2,137.3,698.7
		z M113.5,650.4l2.2,8.4l-0.3-0.4l-2.1-8L113.5,650.4z M114.6,660.6c0.3,3.7,4.2,7.9,4.5,13.2c3.6,3.6,8.5,20.5,11.3,11.3
		c-0.1,0.3-0.1,0.7-0.1,1c-2.8,8.4-7.6-8.1-11.2-11.6C118.9,668.8,114.5,664.5,114.6,660.6z M118.1,665l1.8-3.7
		c0,0.1,0.1,0.2,0.1,0.3l-1.8,3.7C118.3,665.2,118.2,665.1,118.1,665z M108,388.6c0-1.1-0.1-2.4-0.5-3.8c0,0,0.1,0,0.1,0
		C108,386.3,108.1,387.5,108,388.6z M104.7,403.6c0,0.3,0,0.6,0,1c1.7-6.4,3.6-12.7,5.6-18.9c0.1,0,0.1,0,0.2,0
		c-2.1,6.4-4,12.9-5.8,19.5C104.7,404.6,104.7,404.1,104.7,403.6z M102.2,414.9c-0.5,2-1,4-1.4,6c-0.8-0.3-1.9-0.4-3-0.5
		c0.1-0.2,0.3-0.4,0.4-0.6c1,0.1,1.9,0.3,2.6,0.5c0.4-1.9,0.9-3.7,1.3-5.6C102.2,414.8,102.2,414.9,102.2,414.9z M93.9,343.7
		c0.2,0.9,1.2,1.2,1.8,2c0.6-1.8,1.3-3.6,1.9-5.4c0.1-0.1,0.2-0.1,0.3-0.2c-0.7,2.1-1.5,4.1-2.2,6.2C95,345.3,93.7,345.2,93.9,343.7
		z M97.6,436.5c-0.9,5.1-1.8,10.2-2.5,15.3c-1.2-3.4-2.4-6.1-4.5-5.4c0-0.4,0-1,0-1.4c0,0,0,0,0,0c0,0.3,0,0.6,0,0.8
		c2-0.8,3.3,2,4.5,5.4c0.7-4.8,1.5-9.6,2.4-14.4C97.5,436.7,97.6,436.6,97.6,436.5z M91,519.5c-0.2-0.1-0.4-0.1-0.6-0.1
		c0-0.2,0.1-0.4,0.2-0.7c0.1,0,0.3,0,0.4,0.1C91,519.1,91,519.3,91,519.5z M68.8,399.5c-2-1.2-1.7-4.5-1-8.3
		c0.8-4.1,2.3-8.7,1.8-11.6c1.9-6.1,4.3-7.5,6.4-8.8c2.1-1.3,3.9-2.5,4.9-8.1l-4.2,2.8c1.2-4.9,2.1-8.4,3.5-11.9
		c1.4-3.5,2.9-7,6-11.8c4,0.3-3,4.3-2.1,7.4c0,0,1.4-0.8,2.8-1.6c1.4-0.8,2.8-1.6,2.8-1.6c-0.9,2.2,0.3,7.8-3,6.2
		c1.6,0.8,2.9,5.4,4.2-1.6l0.5,5.9c0.5-0.1,1-0.3,1.4-0.6c-0.4,1.5-0.9,3-1.3,4.5c-1.9,1.3-3.1,4.6-6.8,6.5
		c-1.1-0.2-0.4-3.4-0.2-5.3c-3.2,3.8-4,8.1-4.2,10.9c3.3-6.7,3.6-2.4,7.1-2.8c-0.4,4.7-3.6,11.3-3.6,14.1c-3.2,5.5-8.1,9.4-9.5,4.5
		c0.1,4.2-2.3,8-0.4,12.9c-1.2-8.6,7.4,1.9,5.6-9c5.6-1.3,0.7,8.9-2.7,13.4c0-2.8-2.3-1.1-3.5-2.1c-0.5,8,4.1,5.3,6.9,0.4
		c0,0,0,2.3,0.1,4.6c0.1,2.3,0.2,4.6,0.2,4.6c0.1-0.3,0.2-0.5,0.3-0.8c-0.3,3-0.7,6-1,9c-4.2,0.2-6.8-0.1-5.3-2.3l-3.8,4.1l0.7-7.5
		c-3.9,2.3-2.5,8-3.2,11.7c-1.5,1.9-1.8-0.7-2.1-4.5c-0.3-3.8-0.5-8.8-2.3-11.7C62.6,406.7,67,399.6,68.8,399.5z M74.5,620.6
		c-2.1-8.3,0.4-2.8,0.7-9.1c1.3-1.1,3,0.7,4.7,2.4c0,0-1.9-5.9-3.8-11.8c-1-2.9-1.8-5.9-2.4-8.2c-0.6-2.2-1-3.7-1-3.7
		c-4.1-0.4-0.4,16.5-6.9,9.1c-1.6-1.9-7.3-0.4-7.3-9.2c0.5-0.2,1,0.5,1.4,1.2c-1.4-3.7-0.2-4.6-0.2-8.9c3.5-1.9,3.7,4.7,6.8,6.9
		c-1.3-2.5-3.3-5.3-3.6-8.2l1.5,0.4c0,0-0.6-2.2-1.3-4.3c-0.3-1.1-0.6-2.2-0.9-3c-0.3-0.8-0.4-1.4-0.4-1.4c-1.6-1.6-1.6,0.1-1.2,2.3
		c0.4,2.2,1,4.9-0.1,5.3l-3.4-5.3c-0.9-3.2-2.1-9.3-2.6-15.4c-0.5-6.1,0.3-12.1,2.6-15.4c1.2-7.8-2.8-4.1-5.3-5.9
		c-3.4-4.5,0.5-9.1-1.1-13.6c-2.9,0.3-3-5.2-6.6-5.3l0.7-7.7c-5.4-4.3-0.9,9.2-3.2,11.3c-4.6,4.3-1.8-5.6-4.5-2.9
		c0.7,5.9,3.3,6.3,4.2,9.1c0.5,3.4-0.6,5.2-2.5,5.2c1.6-9.6-4.1-5-3.7-12.8l1.1-0.3c-3.6-0.1-1.5-11.3-3.3-15.5
		c4.1-8.5,5.6,6.9,6.7,6.6c0,0-0.3-2.6-0.6-5.2c-0.3-2.6-0.6-5.2-0.6-5.2c2.4,4.5,4.7,0,7,6c-1.3-6.2,2.3-6.9,0.1-12.9
		c5.3,6.9,4.4-8.2,7.8-8.7c1.1,6.5-4.1,18.1-5.2,18.2c0.9,0.8,0.4,8.3-0.9,11.4l5,4.7c0.1-5.4-2.1-12.8,2.1-10.7
		c0,0-0.6-1.8-1.1-3.7c-0.6-1.8-1.1-3.7-1.1-3.7c6.5,7.5,6.4,7.2,9.2,13.7c0,0.1,0,0.1-0.1,0.2l0.6,0.4c-0.1-0.2-0.2-0.5-0.3-0.7
		c2.5-6.8,0.9-12.8-0.3-18.6c-1.3-5.9-2.8-11.6,0.1-17.2l0.4,1.8c0-11.4,2.3-18.2,5.3-22.6c3-4.4,7-6.4,11.1-8.1
		c-0.1,3.3,0,6.5,0.1,9.4l-3.4,0.2c-0.7,3.7-0.9,7.3-0.6,10.7c0.4,3.4,1,6.8,1.7,10.1c1.2,6.6,2.9,13.2,1.8,20.9
		c-3-2.2-1-8.1-2.6-7.3c-1,9.4,7.6,8.2,3.4,17.3c-1.1-12.5-1.5,6.2-4.3-2.1c1,3.6,1.4,7.3,1.6,10.9c0.3,4.1,0.1,8.2-0.2,12.2
		c-0.5,7.9-1.3,15.2-0.3,20.6c1.8-2.9,3.7,4.1,4.4,4.3c0,2.8-2.1,2.2-2.5-0.1c-1.2,5.8-3.8,7.2-6.6,6.6L69,553.8
		c-0.5,3.9-2.5,6.2-2.5,9.4c0,0,0,0,0,0c0,0,0,0,0,0c0,1.4,0.3,2.9,1.3,4.8c1.4,1.8,1.8,1.4,3.4,1.1c2.5,3.4,6.3,7.5,10.6,12.8
		l-0.7-0.2l3.1,12.1l-1.9-1.2c0,0,1,1.7,2.1,3.3c1,1.7,2.2,3.3,2.2,3.3c-3.6,0.6-1.1,2.6-3.7,2.7c-5.1,5.9,6.1,15.4,5.9,25.7l-2-1
		c4.8,4.3,4.9,18.2,6.5,26.8l-0.8-0.1c-3-4.6-5.2-5.1-6.1-2.2c-1.2-1.6-2.5-4.2-3.8-5.6c-0.5-2.9-4-10.6-1-12.1c1.8,5.9,2,5.2,3.3,2
		c-2.2-2.5-3.7-6.6-5.1-9.9C78.3,622.1,76.9,619.6,74.5,620.6z M110.6,751.5c-2.8-7.1,2.4-0.8,2.3-5c-7.3-2.7,0.5-8.4-7.5-11.2
		c-3.3-6.5,0.4-5.7,1-8.5c3.3,6.4,2.6-4.9,7.1,2.9c-0.7-7.7-6.3-2.9-7.3-9.2l3.7-2.7c-0.6-2.8-1.5-7.2-3.1-11.5
		c-1.4-4.4-3.2-8.9-5.9-11.9c-0.3,7-4-2.4-6.1-0.4c4-0.4,4.7,8.8,3,9.4c-2.5-4.1-7.4-14.4-8.1-18.2l1.2,9.2
		c-3.3-2.3-11.7-12.4-12.3-12.5c0.5-4.3-1.8-9.6-0.2-12.2l5.4,5.7l-1.9,3.3l4.7,2.7c-0.2-4.8-1-14.7,1.3-17.6
		c1.6,5.1,4.1,11.3,8.2,18.2c4.3,6.7,9.9,14.2,17.2,21.6c0,0-0.8,0-1.4-0.7c4.1,9,4.7,9.7,8.5,16.6l-2.8-1.4
		c-1.7,2.3,2.8,6.6,5.9,11.9c-0.1,0-0.1-0.1-0.2-0.1c-0.1,0.7,1.2,2,1.8,2.7c-0.2-0.5-0.5-1-0.7-1.5c2.2,1.2,5,3.9,4.5,6.8l-2.3,0.1
		c-1.1,1.8,1.8,7.6,5.1,13.9c-1-0.5-2.1-1-3.3-1.5c-2.2-0.9-4.2-2.3-5.8-4.4c0.9,1.2,1.7,2.8,1.8,5.4l-12.6-8
		c2.1,6.3,8.6,4,11.2,11.6C119.1,756.1,117.4,757.7,110.6,751.5z M136.4,816.2c-1-0.3-2-0.8-3.1-1.3c-6.3-6.4-12.5-13-18.5-19.7
		c2.3,1.5,4.3,1.4,6.2,4.8c0,0.7-0.8,0.8-0.8,0.8c5.4,3.8,8.6-3.2,14.6,5.5C143.4,817.2,140.9,817.8,136.4,816.2z M153.4,834.4
		c0.3,0,0.5,0,0.7,0c1,0.9,1.9,1.7,2.9,2.6c0.6,0.7,1.2,1.4,1.9,2.1l2.1,2.1C158.5,839,155.9,836.7,153.4,834.4z M145.7,534.7
		c-3.2-1.2-2.9-3.8-3-6.4c-1-23.3,2.8-17.4-17.4-23.4c-1.3-0.4-2.5-1-3.7-1.7c-6.2-3.7,11.6-7.8,19.7-10.1c0.2-1.2,0.4-2.1,0.5-3
		c2.3-22.3,1.2-13.8,2.4-18.6c1-4,5.6-3.3,7.2-0.7c0.5,0.8,0.8,1.8,1.2,2.7c1.6,4.5,4.7,8.1,7,12.3c5.5-0.5,10.6-1.5,15.4-3.8
		c1.4-0.7,2.9-1.3,4.3-1.8c1.9-0.7,3.5,0,4.9,1.2c1.5,1.4,1.6,3.2,0.8,4.9c-0.9,1.9-2,3.8-3.1,5.6c-1.3,2-2.7,3.9-4.1,5.7
		c-4.4,5.7,0,9,4.1,15.5c5,7.8,1.6,9.5-1.2,8.8c-3.4-0.8-6.8-1.9-10.2-2.8c-3.2-0.8-6.5-1.5-9.7-2.2
		C152.8,527.1,150.6,536.5,145.7,534.7z M171.8,779.9l-1.4-0.6l-2.5-7c6.6,0.8,7.7,6.7,12,7.8c-0.7-9.9-10.6-6.6-15.9-15.2
		c0.3-5.1,2.2-3.3,4.7-0.7c2.6,2.5,5.7,6,7.6,4.6c-2.1-0.9-3.2-6.7-1.6-6.9c3.7,8.5,5.6,2.9,9.2,12.7c-4.1-3.2-0.8,1.5-3.1,2
		c1.1,0.1,3.1,2,5.3,4.7c1.1,1.2,2.3,2.6,3.4,4.1l0.7,4.4c0,0-1.3-0.8-3.3-2.1c-2-1.2-4.7-3-7.3-4.8c-5.2-3.7-10.5-7.4-10.5-7.4
		C170,777.1,170.9,778.5,171.8,779.9z M168,748c0.7,2.1,2,4.3,4.5,7c0.3,0.3,0.6,0.3,0.9,0.3c0.1,0.2,0.3,0.3,0.4,0.5
		c-0.4,0.2-0.9,0.2-1.3-0.2c-3-3.1-4.2-5.7-4.8-8.1C167.8,747.8,167.9,747.9,168,748z M193.7,782.8c1.6,2,3.2,4.1,4.8,6.1l-5.3-3.2
		c-1-2-2.5-4.3-3.1-6.4c-7.6-4.4-6.7-15.1-13.9-17.7c-2.4-3.3-2-4-0.9-3.9c5.1,7.4,10.4,14.7,15.9,21.9
		C190.6,780.8,191.9,781.6,193.7,782.8z M178.7,788.4c-0.6-0.6-1.1-1.4-1.7-2.3c0.3,0.3,0.7,0.6,1,0.9c0.2,0.3,0.4,0.5,0.7,0.8
		c0.6,0.5,1.1,0.9,1.8,1.3c0.6,0.5,1.3,1,1.9,1.4C181.1,790,179.8,789.4,178.7,788.4z M207.4,820.3c-1.1-5.9-6-2.2-7.9-8.5l1.5,0.2
		c-1.2-0.4-2.1-0.9-2.7-1.4c0.4,0.1,0.6,0,0.7-0.3c-0.7-0.4-1.4-0.8-2.1-1.1c-0.8-1.1-1.3-2.2-3.6-3c0.7-0.2,0.7-0.9,0.7-1.6
		c-6.6-5.8,0,3.5-8.1-1.3c-0.4-0.5-0.6-1-0.8-1.4c1.1,1,2.1,1.7,3,1.8c-1.2-0.4-2.4-2.1-3.6-3.9c0-2.7,4.2-2.8,4.3-4.8
		c1.8,1.3,3.6,2.7,5.3,4.2c2.6,2.3,4.8,5,6.5,8.8c-2.4-1.3-1.5,1.2-1.7,2.3c4.6,2.8,8.8,7.2,12.5,8c0,0,1.3,1.4,2.6,2.9
		C211.1,819.8,208.5,816.8,207.4,820.3z M222.5,836.3c0.1-0.1,0-0.3-0.1-0.6c0.5,0.4,1,0.7,1.5,1.1L222.5,836.3z M225.8,839.2
		c-0.4-0.6-0.4-1-0.3-1.2c0,0,0,0,0,0c0.1,0.2,0.1,0.4,0.3,0.6c1,0.7,1.9,1.2,2.7,1.5c0.5,0.3,1,0.7,1.5,1
		C228.8,840.8,227.5,840.4,225.8,839.2z M244.4,744.3c-39.1-43-67.8-95.5-82.3-153.7h8.7c14.3,56.1,42.2,106.8,80,148.2L244.4,744.3
		z M271.2,568.6h-49.3V331.3h49.3c10.2,0,18.5,0.6,24.9,1.7c6.4,1.1,11.5,3.4,15.2,6.8c3.7,3.4,6.2,8.3,7.5,14.6
		c1.3,6.3,2,14.8,2,25.4v17.7c0,6.2-0.8,11.3-2.3,15.3c-1.5,4-3.3,7.2-5.4,9.6c-2.1,2.4-4.4,4.2-6.9,5.4c-2.5,1.2-4.8,1.9-6.8,2.1
		v1.2c3.2,0.8,6.1,1.9,8.7,3.3c2.6,1.4,4.9,3.6,6.8,6.5c1.9,2.9,3.4,6.7,4.4,11.3c1,4.6,1.5,10.5,1.5,17.7V520
		c0,10.6-0.7,19.1-2,25.5c-1.3,6.4-3.8,11.3-7.5,14.7c-3.7,3.4-8.8,5.7-15.2,6.8C289.7,568.1,281.4,568.6,271.2,568.6z M299.6,887.9
		c0.2-0.2,0.3-0.3,0.5-0.5c0.6,0.1,1.2,0.1,1.5,0c0.1,0,0.3,0.1,0.4,0.1C301.8,888.3,300.8,888.3,299.6,887.9z M319,771.2
		c-0.7-0.5-1-1.2-0.9-1.9c1.2-1.5,2.2-2.8,2.9-3.7l0.2-0.3c1.3-1.7,0.8-3.3-1.3-4.9c-1.2-0.9-2.5-0.6-4.1,0.8
		c-0.6,0.5-2.1,2.3-4.5,5.5l-0.4,0.3c-1.1,1.5-1.2,3.1-0.1,4.7c0.3,0.6,1.5,1.8,3.6,3.8c1.1,1.4,1.6,2.8,1.5,4.5
		c-0.4,2.2-1.3,4.3-2.7,6.1l-0.9,1.2c-3.7,5-7,7.5-10,7.6c-3.3,0-5.9-0.7-7.8-2.1l-0.1-0.1c-2.7-2-3.6-4.3-2.8-7
		c0.4-0.9,0.8-1.6,1.1-2c2.6-3.5,4.3-5,4.9-4.5c0.1-0.1,0.4,0,1,0.3l0.6,0.5c0.6,0.4,0.8,0.9,0.8,1.6c-0.5,0.6-1.5,1.9-3.1,3.8
		c-0.8,1.7-0.7,2.9,0.4,3.7c1.8,1.3,3.9,1.5,6.2,0.5c1.2-0.8,2.9-2.5,5-5.4l0.3-0.4c1.5-2,1.7-3.7,0.7-5.3c-0.3-0.5-1.5-1.8-3.5-3.9
		c-1.4-2.3-1.8-3.8-1.3-4.5c-0.1-1.3,1.1-3.7,3.6-7.2l1.8-2.5c4.2-5.6,8.4-6.9,12.7-3.7l0.4,0.3c3,2.2,4,5.3,2.8,9.3
		c-0.4,0.8-0.9,1.5-1.2,2l-1.3,1.7C322.1,772,320.6,772.4,319,771.2z M325.5,878.4l-1.7-0.9l0.8-0.2l0.9,0.5
		c0.7,0.3,1.4,0.6,2.1,0.8c0.9,0.4,1.8,0.8,2.7,1.3C328.8,879.6,327.2,879.2,325.5,878.4z M354.8,792.2c-0.8,1.6-1.5,2.9-2.1,3.8
		l-4.3,7.4c-5,8.6-9.1,13.5-12.3,14.5c-1.3,0.2-3.4-0.5-6.2-2.2c-2.6-1.5-3.6-3.4-3.2-5.8c0.5-2.3,2.6-6.7,6.3-13.1
		c1.3-2.5,3.4-6.2,6.3-11.1c2.5-3.9,4-5.7,4.4-5.5c0.8,0,1.4,0.2,2,0.5c1.4,1,1.9,1.7,1.6,2.2c-4.4,6.6-7.3,10.9-8.4,12.9
		c-4.4,7.6-6.6,12.2-6.6,13.9c0.1,0.7,0.4,1.3,0.9,1.6l0.1,0.1c1.9,1.1,3.5,0.6,4.7-1.5c1.7-2.3,3.5-5.1,5.3-8.3l3.5-6
		c1.3-2.3,3-5.3,5-9c0.3-0.5,1.2-0.4,2.7,0.4l1.2,0.7C356.3,788.1,356.1,789.6,354.8,792.2z M384.2,815.1l-0.5,1
		c-2.3,4.9-6.8,7.1-13.5,6.4c-0.3,0-0.5,0-0.6,0.1c-1,2.1-2.5,6.1-4.5,12.3c-0.6,0.3-1.5,0.2-2.6-0.3c-1.4-0.6-1.8-1.6-1.2-2.8
		c2.6-7.4,6.1-16,10.3-25.9l0.4-0.8c2.5-5.4,4.1-8,4.7-7.7c1,0.2,1.8,0.5,2.4,0.7c2.5,1.6,4.2,3,5.1,4.3
		C386.4,806.2,386.4,810.4,384.2,815.1z M380.8,729.4c-4.5,1.6-9.9,2.5-16.1,2.8h-1.8c-5.7,0-11.3-1.3-16.9-3.8
		c-6.2-2.9-11.2-6.6-15.1-11.2c-3.9-4.6-6.2-9.4-7.1-14.5c-0.6-4-1-8-1-12.2c0-1.1,0-2.3,0.1-3.4c0.2-5.5,1.5-10.7,3.9-15.7
		c2.4-5,5.5-9,9.4-12c3.9-3,7.8-5,11.7-5.9c2.6-0.6,5.4-0.9,8.4-0.9c1.6,0,3.3,0.1,5,0.2c5,0.5,9.1,2.2,12.3,4.9
		c3.2,2.8,5.6,5.9,7.2,9.5c1.6,3.6,2.4,8,2.6,13.2v1.3c0,4.6-0.7,8-2.1,10.4c-1.5,2.6-3.2,3.8-5.2,3.8H376c-1.9-0.1-3.5-0.5-4.7-1.3
		c-1.2-0.8-1.9-1.8-2.1-2.9c-0.1-0.4-0.1-0.9-0.1-1.5c0-1.4,0.2-3.6,0.6-6.7c0.2-1.9,0.3-3.6,0.3-5c0-1.8-0.2-3.3-0.5-4.4
		c-0.7-2-1.9-3.7-3.6-5.4c-1.7-1.6-5.3-2.9-10.6-3.8h-0.9c-2.5,0-4.9,0.6-7.2,1.7c-2.6,1.3-4.7,3.2-6.5,5.9
		c-1.8,2.6-3.1,5.9-4.1,9.8c-0.7,3.3-1.1,6.6-1.1,9.8v1.6c0.2,3.7,1.3,7.5,3.5,11.3c2.1,3.8,4.7,6.7,7.6,8.6c2.9,2,6.2,3.2,9.9,3.8
		c2.2,0.4,4.5,0.6,6.7,0.6c1.4,0,2.8-0.1,4.2-0.2c3.7-0.4,7.8-1.7,12.4-4c4.6-2.3,8.7-4.9,12.2-7.8c3.5-2.9,6.4-6.9,8.8-12
		c2.3-5.1,3.9-10.3,4.8-15.8c0.6-3.4,0.9-6.8,0.9-10c0-1.9-0.1-3.8-0.3-5.6c-0.5-4.9-3.3-16.2-8.4-33.8c-5.5,1-10.4,1.5-14.5,1.5
		c-1,0-2,0-2.9-0.1c-4.7-0.3-9.4-1.3-14.1-3.1c-4.7-1.8-9.5-4.8-14.5-8.9c-4.9-4.2-8.1-9-9.5-14.6c-0.9-3.6-1.3-7.1-1.3-10.5
		c0-1.9,0.1-3.7,0.3-5.4c0.8-5.1,2.8-10.3,6.3-15.7c1.9-3.1,4.1-5.5,6.4-7.5c0,0,0,0,0,0c0.1-0.1,0.3-0.2,0.4-0.3
		c0.2-0.2,0.4-0.3,0.6-0.5c0.3-0.2,0.6-0.4,0.9-0.6c0.2-0.1,0.4-0.3,0.6-0.4c0.3-0.2,0.7-0.4,1-0.6c0.2-0.1,0.3-0.2,0.5-0.3
		c0.5-0.3,1-0.5,1.6-0.8c4.1-1.7,7.9-2.6,11.3-2.6h1.1c3.7,0.2,7.7,0.6,11.9,1.1c4.2,0.5,6.8,1.6,8.1,3.1c0.9,1.1,1.3,2.3,1.3,3.5
		c0,0.3-0.1,0.8-0.2,1.2c-0.5,1.6-1.6,2.6-3.4,3.1c-1,0.3-2,0.4-3,0.4c-0.9,0-1.8-0.1-2.7-0.3c-1.7-0.4-3.8-0.6-6.3-0.6h-1.2
		c-0.7,0-1.3,0.1-2,0.1c-0.2,0-0.3,0-0.5,0c-0.6,0.1-1.2,0.1-1.8,0.2c0,0-0.1,0-0.1,0c-1.4,0.2-2.7,0.5-4.1,0.9
		c-2.6,0.8-5,2.3-7.3,4.5c-2.3,2.2-4,4.8-5.3,7.6c-1.3,2.8-1.9,5.9-2,9.1v0.6c0,3,0.6,5.7,1.8,8.3c1.3,2.7,3.1,5.1,5.5,7.3
		c2.4,2.2,5.4,3.9,9.1,5.4c3.7,1.4,7.1,2.3,10.2,2.8c0.6,0.1,1.3,0.1,2.1,0.1c3.1,0,7.6-0.7,13.3-2.1c-0.6-4.3-1-9.3-1.2-14.9
		c-0.1-1-0.1-2-0.1-3c0-4.6,0.5-9.1,1.3-13.8c0.7-3.9,2.1-7.7,4-11.3c0,0,0,0,0,0c0.1-0.1,0.1-0.2,0.2-0.3c0.3-0.5,0.6-1.1,0.9-1.6
		c0.1-0.2,0.3-0.4,0.4-0.7c0.4-0.7,0.9-1.5,1.4-2.2c3.5-5.2,8.1-8.2,13.9-9.2c2.7-0.5,5.2-0.7,7.6-0.7c2.9,0,5.5,0.3,8.1,0.9
		c0.5,0.1,1,0.3,1.5,0.4c0.2,0,0.3,0.1,0.5,0.1c0.2,0.1,0.4,0.1,0.6,0.2c0,0,0,0,0,0c3.5,1,6.5,2.3,8.8,3.9c2.9,2,5.2,5.4,6.8,10.4
		c1.2,3.6,1.8,7,1.8,10.1c0,1.3-0.1,2.5-0.3,3.8c-0.7,4.2-2,8.4-3.9,12.5c-2,4.1-5.5,8.3-10.7,12.7c-5.2,4.3-13.5,8.9-25.2,13.7
		c4.3,17.3,6.9,29,7.7,35.1c0.4,2.7,0.6,5.4,0.6,8c0,3.4-0.3,6.7-0.9,10.1c-1,6-2.1,11.1-3.4,15.2c-1.2,4.2-3.3,8.7-6.5,13.6
		c-3.2,4.9-7.6,9.3-13.3,13.4C390.4,725,385.2,727.8,380.8,729.4z M420.9,816.7l-0.5,1.4c-0.4,1.2-1,1.7-1.8,1.4l-2.1-0.7
		c-1.3-0.4-3-0.9-5.3-1.4l-0.2,0.8c-0.5,1.7-1.4,4.1-2.5,7.2l7.3,1.8c0.8,0.3,0.9,1.3,0.3,3l-0.2,0.6c-0.3,0.9-1,1.2-2.1,0.9
		c-0.6-0.1-2.9-0.7-7.1-1.7l-4.3,13.8c1.5,0.5,4.5,1.3,8.9,2.4c0.7,0.2,0.9,0.9,0.5,2.1l-0.1,0.4c-0.6,1.7-1.4,2.4-2.7,2l-10.4-2.5
		l-0.2-0.1c-1.6-0.5-2.2-1.2-2-2c1.4-5.3,3.1-11,5.1-17l0.6-1.8c3.7-10.7,5.9-15.9,6.7-15.7c0.6-0.2,1.2-0.2,1.8,0
		c1.2,0.4,3.9,1.3,8.2,2.8C420.5,815,421.2,815.7,420.9,816.7z M443,843c0,0-0.5,0-1.5-0.1l-1.7,16.7c-0.6,0.3-1.3,0.4-2.2,0.2
		l-0.2,0c-1.4-0.2-2.1-0.8-1.9-1.7c1.2-11.6,2.6-24,4.4-37c0.2-1.3,0.7-2,1.5-1.8c2.1,0.1,3.9,0.3,5.4,0.5c3,0.5,5.3,2.4,6.9,5.7
		c0.6,2.3,0.7,4.7,0.3,7.2c-0.7,4.2-2.7,7.2-6,9.1c1.3,6.6,2.6,12.2,4.1,17l0,0.2c-0.1,0.8-1.5,1.3-4.1,1.6c-0.5-0.1-1.1-2-1.8-5.7
		c-1.8-7.7-2.8-11.7-3-12L443,843z M445.3,916.5c1.1-0.7,2.6-1.2,4.3-1.1c1.3,1,2.3,1.6,2.9,1.9
		C450.1,917.1,447.7,916.8,445.3,916.5z M457.7,917.9c-1.4-0.1-2.7-0.3-4.1-0.4c0.9-0.8-1-5.4,7.8-2.7
		C460.1,915.9,458.8,916.9,457.7,917.9z M486,843.6c-0.1,1.2-1.3,1.7-3.7,1.5c-0.9,0-3.9-0.2-8.7-0.5c-1.2-0.1-1.9-0.9-2.1-2.5
		l0.1-0.9c0.1-1.2,1-1.7,2.7-1.6l2.9,0.2c3.2,0.3,5.5,0.4,6.9,0.3c1.2,0.1,1.8,1.1,1.8,3.1L486,843.6z M496.9,919.8
		c-2.4,0-4.9,0-7.3-0.1c2.6-0.4,5.2-0.5,7.8-0.4C497.2,919.5,497.1,919.6,496.9,919.8z M508.7,839.3c3.3,0,5.8-0.1,7.6-0.2l0.3,0
		c0.4,0,0.6,0.8,0.7,2.3c0,1.6-0.1,2.4-0.4,2.4l-7.3,0.7c0.4,5.5,0.6,9.7,0.8,12.7l0.2,4.6c0.1,1.3-0.3,1.9-1,2l-3.1,0.2
		c-0.8,0-1.2-0.8-1.3-2.4l-0.5-9.9c-0.3-5.4-1-13.7-2.2-25c0-0.8,1.1-1.4,3.3-1.7c1.6-0.1,5.4,0.1,11.6,0.6c0.2,0.4,0.4,0.7,0.4,0.9
		c0.1,2.4-0.1,3.6-0.7,3.7c-0.8,0-3.8,0.1-9.1,0.1L508.7,839.3z M520,919.2c0.8-0.1,1.5-0.1,2.1-0.1
		C521.4,919.1,520.7,919.2,520,919.2z M540.6,917.7c7.4-4.4,11.7-3.5,15.7-1.7C551.1,916.6,545.9,917.2,540.6,917.7z M557.1,852.9
		c0,1.3-0.6,2.9-1.7,4.6c-1.4,1.6-3.2,2.6-5.4,2.9c-3,0.5-5.6-2.8-7.8-10c-0.9-3-1.5-6-2-9l-0.4-2.6c-1.3-8.2-0.7-13.4,1.7-15.8
		c0.9-0.7,2.1-1.3,3.6-1.7c3.5-0.6,6.3,1.9,8.4,7.3c1.1,3.8,2,7.4,2.6,11C557.2,848.4,557.5,852.8,557.1,852.9z M585.8,911.4
		c-0.4-0.2-0.8-0.5-1.3-0.8c-0.9,0.4-1.6,0.9-2.2,1.4c-1.8,0.3-3.6,0.6-5.4,0.9c3.4-2.4,7.7-4.8,8.6-6.9c3.6-1.2,7.4,1.4,9.4,3.6
		C591.9,910.3,588.8,910.9,585.8,911.4z M595.1,843.8c0.1,1.3-0.3,2.9-1.2,4.8c-1.2,1.7-2.9,2.9-5.1,3.5c-3,0.8-5.9-2.2-8.8-9.1
		c-1.2-2.9-2.2-5.8-2.9-8.7l-0.7-2.5c-2.1-8-2.1-13.3,0.1-15.9c0.8-0.8,1.9-1.5,3.4-2.1c3.4-0.9,6.4,1.2,9.1,6.4
		c1.5,3.6,2.8,7.2,3.7,10.6C594.7,839.3,595.5,843.7,595.1,843.8z M591.9,811.1c-0.5,0-1-0.1-1.5-0.2c-2.2-0.6-3.3-2.3-3.4-4.9
		c-0.1,0-0.1,0-0.1-0.1c0-3.1,5.7-31.1,17.1-84.1c5.7-26.5,10.4-46.5,14-60.1c-2.2,1.5-4.6,3-7.3,4.7c-1.1,11.1-2.4,19.5-3.8,25.3
		c-1.4,5.8-3.6,11-6.4,15.6c-2.9,4.6-7,8.8-12.3,12.7c-5.3,3.9-11.8,5.9-19.4,5.9c-7.7,0-13.7-1.1-17.9-3.3
		c-4.2-2.2-7.5-5.4-9.9-9.8c-0.8-1.5-1.5-3.1-2.1-4.9c-1.3,1.7-2.8,3.6-4.4,5.7c-5.5,7.2-10.8,12.1-15.8,15
		c-4.3,2.5-8.3,3.7-12.2,3.7c-0.7,0-1.5,0-2.1-0.1c-4.6-0.5-8-1.9-10.4-4.2c-2.4-2.3-4.1-5.2-5.1-8.6c-1-3.5-1.6-7.6-1.6-12.4v-0.3
		c0-4.8,1.7-12.4,5-23c3.4-10.7,5.5-17.2,6.3-19.7c0.4-1.3,0.6-2.6,0.6-3.7c0-1-0.2-1.9-0.5-2.7c-0.6-1.8-2.4-2.8-5.2-3h-0.7
		c-2.7,0-5.7,1.1-9.2,3.5c-3.7,2.6-11.2,10-22.3,22.3c-8.1,30.7-12.4,47.2-13,49.1c-0.6,2-2.1,3-4.5,3c-2.5,0-4.2-0.6-5-1.8
		c-0.7-0.9-1-2.2-1-3.8c0-0.4,0-1,0.1-1.6c0.2-2.3,6.2-28.3,17.9-78c-6.6,1.4-11.7,2.6-15.6,3.4c-3.8,0.8-6.2,0.7-7.1-0.4
		c-0.9-1.1-1.5-2.5-1.5-4.2c-0.1-1.8,1.2-3.1,3.9-4.1c2.6-0.9,4.7-1.7,6.3-2.3c1.5-0.6,7.1-2.4,16.6-5.4
		c13.4-39.7,21.2-61.5,23.4-65.2c0,0,0-0.1,0.1-0.1h0c0.1-0.2,0.2-0.4,0.3-0.5c0.2-0.3,0.3-0.5,0.5-0.8c0.1-0.2,0.2-0.4,0.4-0.5
		c0.2-0.2,0.3-0.5,0.5-0.7c0.1-0.2,0.3-0.3,0.4-0.5c0.2-0.2,0.3-0.4,0.5-0.7c0.1-0.2,0.3-0.4,0.4-0.5c0.1-0.2,0.3-0.4,0.4-0.6
		c0.2-0.2,0.3-0.4,0.5-0.6c0.1-0.2,0.3-0.3,0.4-0.5c0.2-0.2,0.4-0.4,0.6-0.6c0.1-0.1,0.2-0.2,0.3-0.4c0.2-0.2,0.4-0.4,0.7-0.6
		c0.1-0.1,0.2-0.2,0.3-0.2c0.3-0.3,0.6-0.5,0.9-0.8c2.5-2,5.8-3.3,9.8-3.9c1.7-0.3,3.3-0.4,4.8-0.4c2,0,3.7,0.2,5.2,0.6
		c2.7,0.9,4.8,2.4,6.3,4.4c0.2,0.2,0.3,0.5,0.5,0.8c0.1,0.1,0.1,0.2,0.2,0.3c0.1,0.2,0.2,0.4,0.3,0.6c0.1,0.1,0.1,0.2,0.2,0.4
		c0.1,0.2,0.2,0.4,0.2,0.6c0.1,0.1,0.1,0.3,0.1,0.4c0.1,0.2,0.1,0.4,0.2,0.6c0,0.2,0.1,0.3,0.1,0.5c0.1,0.2,0.1,0.4,0.1,0.6
		c0,0.2,0.1,0.3,0.1,0.5c0,0.2,0.1,0.5,0.1,0.7c0,0.2,0,0.3,0.1,0.5c0,0.3,0.1,0.6,0.1,0.8c0,0.2,0,0.3,0,0.5c0,0,0,0.1,0,0.1h0
		c0,0.4,0,0.8,0.1,1.2v0.5c0,3.9-1,9.2-2.8,15.8c-2,6.9-5.3,13.7-9.7,20.4c-4.4,6.7-9.7,13.2-15.9,19.6c-6.1,6.3-12.8,12.7-20.2,19
		l-4.1,17.2c11.4-12,19-18.7,23-19.8c4-1.2,7.6-1.8,10.7-1.8s6,0.8,8.5,2.5c2.6,1.7,4.3,5.1,5.2,10.2c0.1,0.8,0.1,1.7,0.1,2.7
		c0,5.4-1.9,13.5-5.7,24.4c-4.2,12-6.3,20.1-6.3,24.4v1c0.3,4.1,1.2,7,2.5,8.9c1.3,1.9,3.4,2.9,6.3,3h0.1c2.8,0,6.2-1.6,10.1-4.9
		c3.9-3.4,7.1-7.3,9.7-11.9c2.6-4.6,4.5-7.7,5.8-9.4c0.6-0.8,1.3-1.6,2-2.1c0-3.8,0.3-7.2,0.8-10.3c0.7-4.8,2-9.9,4.1-15.3
		c2-5.4,6-11,12-16.6c6-5.7,10.7-9.4,14.3-11.2c2.8-1.3,5.2-2,6.9-2c0.5,0,0.9,0,1.3,0.1c1.8,0.5,2.7,2,2.8,4.7
		c5-2.6,8.6-4.1,11-4.4c1-0.2,2.1-0.2,3-0.2c1.2,0,2.3,0.1,3.4,0.2c2,0.4,4.1,1.8,6.3,4.3c2.2,2.5,4.5,7.3,6.8,14.3
		c5-2.8,9.1-5.8,12.2-9.2c3.1-3.4,5.3-5.3,6.5-5.8c0.7-0.2,1.3-0.3,2-0.3c0.5,0,1.1,0.1,1.7,0.2c1.2,0.4,2,1.1,2.4,2.2
		c0.5,1.1,0.7,2.4,0.7,3.8c0,0.7-0.4,1.6-1.1,2.7c-0.2,1.5-0.6,3.3-1.1,5.3c7.4-7.2,14.1-11.1,20.2-11.8c1.5-0.2,2.9-0.2,4.4-0.2
		c4.2,0,7.9,0.7,11.1,2.1c4.2,1.9,7.5,6,9.8,12.3c1.3,3.6,1.9,8.1,1.9,13.7c0,4.2-0.3,8.9-1.1,14.3c-1.7,12.3-5.3,22.4-10.9,30.2
		c9.9-5.3,16.5-10.9,19.8-16.7c3.1-5.2,5.8-7.8,8.1-7.8h0.8c2.4,0.7,3.7,2.3,3.7,4.9v0.5c-0.2,3-3.2,8.4-9,16.1
		c-5.9,7.8-12.9,13.4-21.2,17c-8.3,3.6-17.2,5.5-26.8,5.7c-0.3,0.1-0.6,0.1-0.9,0.1c-9.3,0-17.9-3.7-25.5-11.2
		c-11.7,55.9-18.5,84.9-20.5,87.1C595.1,810.2,593.5,811.1,591.9,811.1z M664.5,815.9l-0.5-1c-2-4.2-3.6-6.6-4.9-7
		c-5.6-0.1-9.5-2.5-11.7-7.1l-1.1-2.3c-1.8-3.7-1.3-7,1.4-9.7c1.1-0.8,2.2-1.4,3.2-1.9c2.1-1,4.1-0.6,6.1,1.1
		c1.1,1.2,2.4,3.3,4.1,6.2c0.8,1.6,0.6,2.7-0.7,3.3c-1.8,0.7-2.8,0.8-3.1,0.2c-0.2-0.4-0.4-0.8-0.5-1.2c-1.5-3.2-3-4.5-4.3-3.8
		L652,793c-1.4,0.7-1.6,2.1-0.6,4.3l0.5,1.1c1.7,3.1,4.7,4.5,9.2,4.3c2.1,0.5,4.2,2.7,6.1,6.7c0.2,0.4,0.4,0.8,0.6,1.2l0.4,0.8
		c2.2,4.6,2.9,7.7,2.2,9.3c-0.9,1.6-2.3,2.8-4.3,3.7l-0.1,0c-2.9,1.4-5.3,1.1-7.4-0.8c-1.5-1.4-2.8-3.2-3.9-5.6l-0.7-1.5
		c-0.6-1.2-0.6-2.1,0-2.9c0.4-0.3,1-0.7,1.8-1.2c1.2-0.3,2-0.1,2.4,0.8c0.4,1.2,0.8,2.3,1.3,3.5c1.1,2.2,2.5,3.1,4.3,2.6l0.4-0.2
		C665,818.7,665.2,817.6,664.5,815.9z M621.6,840.7L621.6,840.7c-3.3-8.2-7.7-18.9-13.2-32.2c-0.4-1.1-0.2-2,0.7-2.8
		c1.1-0.9,2.5-1.6,4.2-2.3c3.7-1.5,6.9-0.7,9.6,2.3c2.7,3.8,5.1,8,7,12.8c3.3,8.2,4.4,13.9,3.1,17.1c-1.7,2.2-4.4,4.1-8.1,5.6
		C623.2,841.9,622.1,841.7,621.6,840.7z M791.4,842.8l-0.3,0l1.3-0.9L791.4,842.8z M803.4,832.7l-0.2-0.9c-0.9-1-2.8,2.2-5.2,5.5
		c-0.3-1.6-0.6-3.4-4.1-0.2c-7,3.2-8.5,9-11.8,13l-2.2,1.7l0.6-0.7c-4.6,2.2-9.4,5.8-12.6,9.5c-1.2,0.9-2.4,1.7-3.6,2.6
		c-0.8-1.2,2-3.4,4.5-5.4c3.1-2.6,5.7-4.7,0.4-3.6c6.7-2.8,12.4-11.9,16.4-15.5c-7.8,4.8-17.1,5.2-16.9,1.3c-6.6,7-5,9.3-3.2,11.3
		c1.8,2,3.8,3.7-2.6,9.4c0,0-2.6,1.5-5.1,2.9c-2.6,1.5-5.2,2.9-5.2,2.9l-0.1,4.5c-1,0.6-1.9,1.2-2.9,1.8c-0.1-1.3-0.4-2.5-5,0.8
		c-1,3.9-7.9,5.4-9.2,7.9l-0.1,0.1c-0.4-1.2-1.2-2.3-5.8,0.3c0,0.6,0.9,1.7-0.2,3.1l-2.3,1.3c-4.5-3.3,9.2-6.5,2.4-8.4
		c-9.2,5.3-5.9,7.6-5.1,9.9c-5.1,2.8-10.3,5.5-15.5,8l0.6-1.1c3.2-5.2,6.1-10.6,8.3-14.5c2.2-4,3.6-6.6,3.6-6.6
		c-1,1.3-2.2,2.6-3.6,3.6c-5.4-1.9-6.8-0.5-3.3-7.3c-4.4,5.1-0.5,7.1-8.9,11.8c2.3-3.7,0.7-8.5-7.6-4.7c-3.5,2.8-6.7,5.7-9.7,8.8
		c-0.5-1.4-1.5-2.2-3.2-1.6c-12.3,4.4-24.8,8.5-37.4,12.3c1.6-0.9,3-2,3.8-2.6c-6.2,2.6-3.8,0.8-10.1,4.1c0.3,0.1,0.5,0.1,0.8,0.1
		c-4.7,1.4-9.5,2.7-14.3,3.9c0.8-0.3,1.7-0.7,2.5-1.1c2.2-2.2,3.5-5.8,6.1-8.6c2.6-2.9,6.3-5,13.3-5.1l-0.1,0.9
		c0.7-1.7,6.2-1.5,7.7-4c-2-0.7-2.1-1.5-1.7-2.3c2.6-1.1,5.3-2.3,7.9-3.5c1.5,1.1,2.7,2.5,3.5,3.7c1.3-3.7,5-4.5,9.6-5.6
		c4.5-1.1,10-2.1,14.4-6.4c-0.7,3.2-12,9.3-6,9.4c0,0,2.7-3.1,5.3-6.3c2.6-3.2,5.1-6.4,5.1-6.4l-5.9,3.2c8-9.1,13.1-6.2,19.8-8
		c2,0.8-1.5,3.5-4.4,5.1c3-1.5,7.3-4.6,10.5-7.9c0,0.2,0.1,0.4,0.5,0.4c0.5-1.2,1.1-2,1.6-3c3.4-3.9,9.9-10.3,11.8-14.6
		c0.6-0.3,1.2-0.5,1.8-0.8c0,0.4-0.1,0.8-0.3,1.1c0.7-0.6,1.3-1.2,1.8-1.7c1.8-0.8,3.7-1.6,5.5-2.6l-0.6,1.3
		c0.6-0.6,1.1-1.2,1.6-1.8c1.7-0.9,3.3-1.7,5-2.6c0.8,0.7,8.3-2,7.8-4.3c16.2-9.3,31.1-20.8,42.8-31.9c0,0,2.3,8.2,4.4,16.5
		c1.1,4.2,2,8.4,2.7,11.5c0.7,3.1,1.1,5.3,1.1,5.3c0.1,0.2,0.3,0.4,0.3,0.8L803.4,832.7z M896.9,718.6
		c-22.2,40.4-52.7,77.8-88.4,109.7c1.1-2.5,0.5-4.5-0.5-6c-1.7-2.5-4.7-4.1-3.5-5.8c2.5-2.8,3-6.8,6.8-7.5l-0.2,2.4
		c6.5-8.4-0.7-5.5,6.3-11.6c3.5-7.1-5.1,4.2-3.5-0.9c7.7-6.3-1.5-10,11.5-18.5c0.5,1.5,4.8,2-0.9,9l8.3-4.4c-6,8.7-2,3.7-9,11.9
		c-0.4,6.5,2.3,7.5,1.5,13.4c2.2-3.7-0.7-5.4,3.6-9.7c5.8-4.7,0.7,2.3,1.2,3.8c3.1-10.6,10.8-5,13.2-14.8c-4.8-2-3.5-3.1-10.1-0.6
		c3-5.6,10.5-9.4,13.5-6.2l-2.1-3.5c1.7-0.4,4.9-4.2,5.9-3.9l-0.2-2.9c-5.1,1.7-8.6,3.5-12.6,10.3c0.1-4.1-7.8-1.2-1.8-9.3
		c2.9-3.2,2,1,3.1,1.6c3.2-4.7,5.7-8.1,8.3-10.4c2.5-2.4,4.9-4,7.1-5.5c4.3-3.1,8.7-5.5,12.9-13.7c-1,4.8-9.6,12.1-12.6,20.7
		c6-2,5.9-9.7,9.3-13.4c-1.3,4.7-0.6,6.1,3.9,2.8l-0.6-3.1c1.9-2.6,4.9-7.5,6.1-7.2c-0.6-0.6-2,0.2-4.2,2.2
		c0.9-4.3,3.3-9.6,6.2-15.4c1.5-2.9,3.2-5.9,5.1-8.8c1.8-3,3.8-6,5.9-8.9c1.9,1.7,0,6.4-1.3,9.9c-1.4,3.4-2.2,5.6,2.1,2.1
		c1.1-2.8,1.1-5.9,1.7-9.2c0.6-3.3,1.9-6.8,5.4-10.7c0.5,5.2,4.8-2.7,6.3-1.8c0,0,0.3-3.8,0.5-7.7c0.1-3.8,0.3-7.7,0.3-7.7
		c3.4-5.5,6.4-12.3,7.5-18.4c-0.4,1.9-1.3,4.2-2.6,6.7c-1-5.6,1.3-9.4,3.7-13.5c2.4-4.1,5.6-8.4,6.3-14.6c0,0,0.1,1.5,0.1,3
		c0,1.5,0,3,0,3c2.2-4.1,3.1-8.2,3.8-12.1c0.7-3.9,0.8-7.7,0.8-11.4l3.5,1.2c-2.3-1.1-2.7-5.6-2.6-10.2c0.1-4.6,0.3-9.5,0-11.3
		c-0.6,11.3-3.1,15.6-5.1,19.9c-2,4.3-4.4,8.3-5.7,19.2c-2.5-9.3-1.4-14.9-3.8-24.4c1.1-3,2.3-4.1,3.4-4c-1.2-3.1-4-4.7-4.3-9.8
		l2.2-1c2.5-6.7,1.2-10.3-0.4-13.7c-1.6-3.4-3.2-6.7-1.3-13.2c4.9-2,4.4,11.7,5.4,20.6c-0.2,0.1-0.3,0.3-0.5,0.5l0.5-0.5
		c0,0.2,0,0.4,0.1,0.6c5.5-5.5-0.8,13.9,6.7,7.7l-1.9-4.7c0.8-3.6,2.7-3.4,2.9-1.6c0,0.1,0,0.3,0,0.4c0-0.1,0-0.2,0-0.3
		c0,0,0,0.1,0,0.1c0.3-4.9,0.8-3.6-1.1-6c1.6-10.9,3-10.1,4.6-9.2c0.8,0.5,1.8,1,2.8,0c1.1-1,2.3-3.4,3.4-8.8c1,2.6-0.1,8.7,2.7,7.9
		l-3.1,11.6l3.5,0.9c3-15-0.8-24.6-5.9-31.9c1.9,13.6-3.9,1.1-6.5,7.7c-1.5-2.8-0.2-5,1-6.4c-0.9-1.1-1.1-7.5-3.1-6.9
		c8.9-2.2,11.2-30,19.5-23.2c1.4-4,1.2-12.3,0.5-21.7c-0.2-4.7-0.9-9.7-1.4-14.7c-0.5-4.9-1-9.8-1.1-14.1l2.5,4.7
		c1.9-4.6,2.4-8,2.1-10.5c-0.4-2.6-1.6-4.3-3-5.8c-2.9-3-7-4.9-8.5-10.1c3.6,9.2,3.2-8.5,5.6-12.5c-3.7-8.2-9.3-14.5-10.1-26.2
		c3.2-2.9,9-4,8.1-11.7l-4-4.6c-1-7.6-5.1-17.1-4.3-22.4l0.5,1c-0.1-8.8-5.5-7.9-4.6-1.3l-3.9-7.4l1-0.5c-1.2-2.5-2.5-4.9-4-7.3
		c-1.5-2.4-3-4.9-4.8-7.5c-3.5-5.2-7-11.2-10-19c4.7,3.2,2.4-14.7,8.1-0.2c-3-3.7-2.6,3.5-3.8,4.8c0.8,5.3,5.6,8.9,7,11.2
		c-0.2,0.4-0.3,0.8-0.2,1.3c0.6-0.3,0.7-0.7,0.5-1.2c1.6-2.1,6.5-1.9,9.9,0.3c-4.5-4.7-7.8-14.9-11.2-24c-2.1-4.6-4.3-9.1-6.6-11.9
		c-2.3-2.8-4.6-4.5-7.1-4.1c-5.2-12.8-15.4-27.2-21.8-41.2c0,0.8-0.1,2.3-0.9,2.3l-2.5-10.2c13.8,16.8,26.4,34.6,37.4,53.3
		c23.4,39.9,35.6,85.9,41.4,131.3C960.1,551,939.4,641.2,896.9,718.6z"/>
	<path class="st2" d="M908.7,670.7c0.1-0.4,0.1-0.7,0.2-1C908.8,670,908.8,670.3,908.7,670.7z"/>
	<path class="st2" d="M924.8,595.9c-0.1-0.3-0.1-0.5-0.1-0.6C924.7,595.5,924.8,595.7,924.8,595.9z"/>
	<path class="st2" d="M924.7,595.3c0-0.1,0-0.2,0-0.2C924.7,595.2,924.7,595.3,924.7,595.3z"/>
	<path class="st2" d="M878.5,731.3c0,0-1.3,2.1-2.6,4.2c-1.3,2.1-2.6,4.2-2.6,4.2c4.4-0.1,1.5-2.3,5.3-6.7l-0.5,7.2
		C881.2,736.2,879.9,730.6,878.5,731.3z"/>
	<path class="st2" d="M714.4,160c-2.5-0.2-7-3.1-7.5-0.3C708.3,157.1,715.3,164.4,714.4,160z"/>
	<path class="st2" d="M914.8,373.2c1.9-1.1,2.7,9.5,3.7,2.6C916.9,370.6,915.9,371.9,914.8,373.2z"/>
	<path class="st2" d="M914.2,373.9c0.2-0.2,0.4-0.5,0.6-0.7C914.7,373.3,914.4,373.5,914.2,373.9z"/>
	<path class="st2" d="M204.6,151.9c0,0.2-0.1,0.3-0.1,0.5C204.6,152.3,204.6,152.1,204.6,151.9z"/>
	<path class="st2" d="M650,364c-1-1.4-2.5-2.3-4.4-2.7c-1.9-0.4-4.5-0.6-7.7-0.6h-14.7v177.5h14.7c3.2,0,5.8-0.2,7.7-0.8
		c1.9-0.5,3.4-1.4,4.4-2.7c1-1.3,1.7-3.2,2.1-5.7c0.4-2.5,0.6-5.8,0.6-9.8V379.1c0-3.8-0.2-6.9-0.6-9.3
		C651.7,367.3,651,365.4,650,364z"/>
	<path class="st2" d="M718.6,162.5l-0.7,0.4c0.1,0,0.2,0.1,0.2,0.1L718.6,162.5z"/>
	<polygon class="st2" points="932.8,440.1 937.2,445.2 936.5,443.3 	"/>
	<path class="st2" d="M927.2,606.3c0,0-0.5-2.8-1.2-5.6c-0.5-1.9-0.9-3.8-1.2-4.8c1.6,7.8-2.1,24,2.4,23.9
		c2.1-5.5,2.4-12.6,1.1-15.7L927.2,606.3z"/>
	<path class="st2" d="M238.6,871c0.6-0.3,1.1-1.1,2.4-0.4l-4.7-3L238.6,871z"/>
	<path class="st2" d="M241.7,871c-0.2-0.2-0.5-0.3-0.7-0.4L241.7,871z"/>
	<polygon class="st2" points="90.8,734.4 87.3,732.1 89.2,734.4 	"/>
	<polygon class="st2" points="80.7,734.1 82.1,739.3 84.9,740.9 	"/>
	<path class="st2" d="M930,569.6c-0.2,0.9-0.4,1.9-0.5,3.1C929.8,571.4,929.9,570.5,930,569.6z"/>
	<path class="st2" d="M242.7,865.9c-1.7,2.4-7.3-5.4-7.1-1C238,865.2,241.8,868.6,242.7,865.9z"/>
	<path class="st2" d="M54.3,376c0-0.6,0.2-1.3,0.2-1.9C54.4,374.7,54.3,375.4,54.3,376z"/>
	<path class="st2" d="M927,559.5c-4.3,14.5,4.3-0.8,3,10.1c1.5-6.3,5.5-9.2,6.7-8.4C934.2,554.3,928.7,571.2,927,559.5z"/>
	<path class="st2" d="M610.6,927.9l-0.7-0.2c0,0-1.3,0.8-2.7,1.7c-1.4,0.8-2.7,1.6-2.7,1.6l0.7,0.2c0,0,1.4-0.8,2.7-1.6
		C609.3,928.7,610.6,927.9,610.6,927.9z"/>
	<path class="st2" d="M721.4,873.1c1.5-2,2.6-4.3,3.2-6.1c0,0-0.8,1.5-1.6,3.1C722.2,871.6,721.4,873.1,721.4,873.1z"/>
	<path class="st2" d="M704.7,866.6c-0.3,0.1-0.5,0.2-0.7,0.3C704.2,866.8,704.4,866.7,704.7,866.6z"/>
	<path class="st2" d="M74,385.2c0,1,0.2,1.6,0.3,2.3C74.3,386.7,74.2,386,74,385.2z"/>
	<path class="st2" d="M65,560.9c-0.4-3.5-0.8-5.6-2.2-4.7l0,2.2c-1.9-2-1.5-1,0,0.8c0.4,2.3,1.4,2,2.1,2.2c0.5,0.4,0.9,0.8,1.4,1.2
		C65.9,561.9,65.4,561.4,65,560.9z"/>
	<path class="st2" d="M68.8,398.9c0.2,0.1,0.3,0.2,0.5,0.3C69.2,399,69,398.9,68.8,398.9z"/>
	<path class="st2" d="M71.6,406.3c0.5-1.9,0.7-3.6-0.5-3.7c-1.2,2.8-1.6,5.1-1.4,8C70.2,410.2,71.1,408.2,71.6,406.3z"/>
	<path class="st2" d="M60.1,533.5c-0.5-0.5-0.9-0.8-1.3-1.1c1.7,5.8,1.2,16.6,5.2,17.5c-0.3-2,1.2-12.4,3.6-10.8
		c-1.4-3.9,1.3-10,0.5-12.2c-1.9,6.7-3.3,0.9-4.9-3.6c1-4.1,3.2,0.6,3.8-2.9c0,0-0.2-2.3-0.3-4.7c-0.1-2.3-0.3-4.7-0.3-4.7l-0.5,8.2
		l-3.8-2.4c0.1,0.3,0.2,0.5,0.4,0.8C64.8,531.7,56.9,519.2,60.1,533.5z"/>
	<path class="st2" d="M74,508.7c0.2,0.6,0.3,1.1,0.5,1.5C74.3,509.7,74.2,509.2,74,508.7z"/>
	<path class="st2" d="M69.2,541.5c-0.6-1.4-1.1-2-1.6-2.4C67.9,540.1,68.4,540.9,69.2,541.5z"/>
	<path class="st2" d="M58.8,532.4c-0.3-0.9-0.6-1.6-1-2.2C57.8,531.5,58.3,532,58.8,532.4z"/>
	<path class="st2" d="M921.4,572.3c0.3,0.4,0.8,0.1,1.4-1.3C922.8,571,922.1,571.5,921.4,572.3z"/>
	<path class="st2" d="M55,435.9c0.1-0.1,0.2-0.2,0.4-0.4L55,435.9z"/>
	<path class="st2" d="M48.4,504.1c-0.1-0.1-0.1-0.2-0.2-0.1C48.2,504.1,48.3,504.1,48.4,504.1z"/>
	<path class="st2" d="M66.4,657.9c-0.7,0.4-0.8,0.9-0.4,1.5C66.3,659.1,66.5,658.6,66.4,657.9z"/>
	<path class="st2" d="M649.9,888.1l0.1-0.6C649.9,887.7,649.9,887.9,649.9,888.1z"/>
	<path class="st2" d="M61.8,652.8c-0.2,0.2-0.4,0.4-0.6,0.7C61.4,653.3,61.6,653.2,61.8,652.8z"/>
	<path class="st2" d="M45,467.5c0,0,0.7-0.5,1.4-1.2C46.1,466,45.7,466.3,45,467.5z"/>
	<path class="st2" d="M873.6,747.3c0.1-1.1,0.1-1.8-0.1-2.2C873.6,745.6,873.7,746.2,873.6,747.3z"/>
	<path class="st2" d="M207.3,191l-7.2,7l-1.2,4.3C201.2,199,204.2,195.7,207.3,191z"/>
	<path class="st2" d="M226.6,171.9c-0.2,0.1-0.4,0.3-0.6,0.4C226.1,172.2,226.4,172,226.6,171.9z"/>
	<path class="st2" d="M198.9,189.2c1.8-1.6,1.4-3.2,1.3-3.9c0,0-1.3,1.1-3.2,2.8c-1.9,1.7-4.6,3.8-7.1,6.1c-2.5,2.3-5,4.6-6.9,6.3
		c-1.9,1.7-3.1,2.9-3.1,2.9c1.7,0.5,8.8-3.3,5.5,0.9c2.6-0.3,6.2-4.9,6.5-7.5l0.1,2.3c2.6-6.5,9.8-4.6,7.9-0.7l0.4-0.4
		c0,0,1.4-5,2.8-9.9c1.4-5.1,3.1-10,3.1-10C200.5,181.5,204.7,184.2,198.9,189.2z"/>
	<path class="st2" d="M209.5,178l-0.3-1.5c-0.5,0.2-0.9,0.4-1.3,0.6C208.2,177.8,208.7,178.2,209.5,178z"/>
	<polygon class="st2" points="250.2,145.6 245.6,149.9 247.6,148.5 	"/>
	<path class="st2" d="M657.8,915.4c0,0-1.5,0.9-2.9,1.9c-1.5,0.9-3,1.8-3,1.8l0.7,0.2c0,0,1.3-0.9,2.6-1.9
		C656.6,916.3,657.8,915.4,657.8,915.4z"/>
	<path class="st2" d="M714.4,127c1.3,0.2,2.5,0.2,3.8,0.1l5.2,1.5l-0.3-0.7l-6.2-1.7l0.3,0.6C714.8,126.1,714.3,126.4,714.4,127z"/>
	<path class="st2" d="M226.6,171.9c0.2-0.1,0.4-0.2,0.5-0.3C227,171.6,226.8,171.7,226.6,171.9z"/>
	<path class="st2" d="M207.9,177.1c-0.4-0.8-0.6-2.1-0.3-3.7L206,178C206.5,177.7,207.2,177.4,207.9,177.1z"/>
	<path class="st2" d="M381,99.8c-1.1,0.4-1.5,0.8-1.7,1.3L381,99.8z"/>
	<path class="st2" d="M275.2,145.6l0,0.6C275.3,146,275.3,145.8,275.2,145.6z"/>
	<path class="st2" d="M186.8,211.7c2-1.5,4-2.9,6.1-4.3l0.4-1C192.4,205.8,184.6,209.6,186.8,211.7z"/>
	<path class="st2" d="M332.7,68.1c-0.5-0.2-1-0.4-1.4-0.5C331.7,67.9,332.2,68,332.7,68.1z"/>
	<path class="st2" d="M209.7,167.1c-1.2,2.1-1.9,4.4-2.1,6.3L209.7,167.1z"/>
	<path class="st2" d="M223.3,885.8l-0.9-0.4l0.1,0.3C222.8,885.7,223,885.9,223.3,885.8z"/>
	<path class="st2" d="M338.2,78.2c7.2-3.7,6-5.7,9.7-9.5c-0.7-4.6-10.2,0.3-15.1-0.6c0.4,0.2,0.7,0.5,0.7,0.8l-7.1,1.4
		c7-0.7,0.9,5-2.3,6.7c-2.4,1.1-7.1,3.2-7,1.6l3.3-2.5c-5.4,0.4-9,7.5-15,7.2c-0.7-0.9,0.9-2.2,1-3c-4.2,5.5-9.6,7.6-16.6,13.7
		l2.6-6.7c-4.2,8-19.2,13.5-30.4,16.5c1.5,0.1,3.7-0.4,3,1.1c-5.2,4.2-11.2,3.6-9.8-0.1c-3.6,6.6-23.1,9.5-27.7,18.9
		c0,0-1.3,2.7-3.1,6.7c-1.7,4.1-4.1,9.5-6.4,14.9c-2.2,5.4-4.3,10.9-5.8,15c-1.5,4-2.5,6.8-2.5,6.8c0.7-1.4,1.7-2.7,2.8-3.9
		c5.4,1.4,6.6-0.1,4.2,6.8c3.4-5.4-0.5-6.9,6.7-12.3c-1.6,3.9,0.6,8.4,7.9,3.9c14.9-15.7,20.7-33.8,36-49.4
		c2.2,2.5,16.2-5.8,23.7-8.5c-1.2,4.5-5.9,8.1-10.9,11.5c3.5-1.5,9.2-4.5,13.7-6.3l-1.3-7.2c19.5-10-2.5,7.4,7.2,4.4
		c5.1-3.2,6-6.4,9.2-8.7c-7.5,4.5-7.8,2.3-8.3-0.1c-0.4-2.4-0.9-4.8-8.7-0.4c0.1-2.7,2.4-5.3,5.5-7.4c3.1-2,7-3.4,10-4
		c8.1,1.6-4.1,5.5-3.6,10.3c6.2-3.5,4.7-3.8,6.4-7.4C320.9,85.1,329.6,74.3,338.2,78.2z"/>
	<path class="st2" d="M141.6,209.2c0.5,1.5,1.1,3.2,4-0.1c7.8-4.7,6.8-12.5,11.9-16.5l-1,1.8c5.3-3.2,10.6-8.8,12.4-13.7
		c3.6,0.3,0.5,3.4-2.1,6.1c-2.6,2.7-4.8,5.1,0.1,3.5c-5.9,3.3-10.2,12.6-13.4,16.4c6.7-5.4,15.7-6.5,16-2.7
		c5.3-7.4,3.4-9.5,1.4-11.2c-2-1.8-4.2-3.2,1.1-9.4c0,0,2.2-1.7,4.5-3.3c2.2-1.7,4.5-3.2,4.5-3.2l-0.8-6.9c5.1-4.4-0.1,6.2,7.4-0.7
		c0.4-3.9,7.2-6.1,7.6-8.7c0.6,1.2,1.4,2.4,5.6-0.7c-0.2-0.8-1.9-2.2,1.4-4.8c5.7,2.8-7.6,7.4-0.7,8.6c9.3-7.1,2.9-8.5,3.1-11.3
		c-0.2,0.4-0.9,0.5-1.9,1.2c-1-1.5,4-3.2,2.2-4.7c-1.7,1-3.1,2.6-4.1,4.1c1.7-3.7-7,0.6-9.9,2.8c-4.8,7.2-18.6,17.3-26.5,25.6
		c0.6-0.9,1.7-2.6,0.2-2.4c-11.8,11.2-17.8,14.7-29.5,29.4l2.4,6.6C138.4,215.8,139.7,212.6,141.6,209.2z"/>
	<path class="st2" d="M278.5,116.3c0.5-0.4,1-0.7,1.6-1.1c-0.6,0.3-1.3,0.6-1.7,0.7C278.4,116.1,278.4,116.2,278.5,116.3z"/>
	<path class="st2" d="M267,127.8c-3.9,0.9-7.4,6.3-12.3,7.7c2.7,0.6-2.6,9,6.3,1c-0.7,0.7,0,0.8-0.6,1.5c7.8-1.6,8.2-6.8,13.9-10.1
		c4.3-0.2-4.1,5.7-0.6,4.6c6.2-5.6,23.4-9.7,19.9-15.7c5.1-3,6.5-1.9,8.7-1.5c2.6-5.4,11-8.2,18.1-10.7c7.1-2.4,13.1-4.4,11.4-8.8
		c-3.1,1.6-8.4,3.5-12.3,7.3l-2.5-6c-6.8,3.3,1.1,5-8.6,9.2l3-1c-3.1,2.4-7.7,4.9-12.5,7.3c-4.9,2.3-10,4.6-13.9,6.8
		c0-2.2-6,0.3-6.5-2.9C273.3,119.8,268.3,123.5,267,127.8z"/>
	<path class="st2" d="M253,135.8c0.6,0,1.2-0.2,1.8-0.3C254.3,135.4,253.8,135.5,253,135.8z"/>
	<path class="st2" d="M308.8,97.3c0.5-0.3,1-0.6,1.6-1C309.8,96.7,309.3,97,308.8,97.3z"/>
	<path class="st2" d="M905.3,448.2c0.1,0.8,0.3,1.6,0.7,2.3C905.8,449.6,905.5,448.8,905.3,448.2z"/>
	<path class="st2" d="M899.8,563.4c1.5-0.7,1.2-5.3,1.7-7.7C900.5,558.5,896.5,560.5,899.8,563.4z"/>
	<path class="st2" d="M904.8,441.4c-1.1,3.3-0.4,4.4,0.4,6.8C905,445.7,906,443,904.8,441.4z"/>
	<polygon class="st2" points="897.7,578.4 898.7,577.4 897.8,571.5 	"/>
	<path class="st2" d="M920,532.7c0.1,0.1,0.1,0.2,0.2,0.1C920.2,532.7,920.1,532.6,920,532.7z"/>
	<path class="st2" d="M907.5,519l-0.6-0.4c0.1,0.4,0.2,0.7,0.4,1C907.4,519.4,907.4,519.2,907.5,519z"/>
	<path class="st2" d="M912.8,438.1c0.2,0.5,0.5,1.6,0.9,2.6C913.4,439.9,913.2,439.1,912.8,438.1z"/>
	<path class="st2" d="M896.2,644.1c-0.2-0.1-0.3-0.2-0.5-0.3C895.8,644,896,644.1,896.2,644.1z"/>
	<path class="st2" d="M61.2,653.5c-1.8,1.1-2.9-8.6-3.7-2.2C59.3,655.9,60.2,654.7,61.2,653.5z"/>
	<path class="st2" d="M894.1,640c1.3-2.9,1.9-5.4,2-8.4C894.9,632.5,891.8,639.8,894.1,640z"/>
	<path class="st2" d="M891.1,340c0,0-0.8-1-1.6-2.1c-0.8-1-1.6-2-1.6-2C888.6,336.7,889.6,343.7,891.1,340z"/>
	<path class="st2" d="M850.9,281.7c-1.4-2.1-3.6-2.8-5.5-4.6c1.9,2.2,3.5,5.2,4.5,9.2C850,284.8,850.1,282.6,850.9,281.7z"/>
	<polygon class="st2" points="268.1,115.5 263.8,119.7 268.8,115.6 	"/>
	<path class="st2" d="M885.5,338.7c0.1,0.5,0.1,0.8,0.1,0.8C885.6,339.3,885.5,339,885.5,338.7z"/>
	<path class="st2" d="M846.4,293.1c0.1-0.7-1.4-2-2.1-2.7c0.4,0.9,0.9,1.7,1.4,2.5C846,293,846.2,293.1,846.4,293.1z"/>
	<path class="st2" d="M906.8,483.5c0.4,2.1-2,13.1-4.3,11.2c1,4.3-1.7,10.6-1,12.9c2.1-7,3.3-0.8,4.7,4c-1.1,4.3-3.2-0.8-3.9,2.9
		l0.1,10l0.8-8.7l3.7,2.7c-0.1-0.3-0.2-0.5-0.3-0.9c-1.6-14.8,5.7-1.2,3.1-16.5c0.4,0.6,0.9,0.9,1.3,1.2
		C909.3,496.2,911.1,484.7,906.8,483.5z"/>
	<path class="st2" d="M272.7,140.7c5.5-3.1,3.5-1.1,9-5C278.2,135.3,274.1,139.4,272.7,140.7z"/>
	<path class="st2" d="M911,502.4c0.2,0.9,0.5,1.8,1,2.4C911.9,503.3,911.5,502.8,911,502.4z"/>
	<path class="st2" d="M902.5,494.7c-0.2-1-0.6-2-1.4-2.6C901.6,493.6,902,494.3,902.5,494.7z"/>
	<polygon class="st2" points="307.1,102.8 311.8,99 311,98.8 306.4,102.6 	"/>
	<path class="st2" d="M99.6,272.9l-0.4-2C99.1,272.3,99.3,272.8,99.6,272.9z"/>
	<path class="st2" d="M425.6,93.2c-0.2-0.2-0.3-0.3-0.5-0.5C425,92.9,425.1,93.1,425.6,93.2z"/>
	<path class="st2" d="M738.8,133.7c1.2,0.2,2.3,0.5,2.3,0.5c-3.9-1.9-11.7-6.5-14.9-5.8c2.7-0.3,7.6,5.1,10.9,4.3l-0.6,0.5
		C736.4,133.2,737.6,133.4,738.8,133.7z"/>
	<path class="st2" d="M343.4,63.4c-3.2,0.7-4,1.4-5.7,2.5C338.9,67.9,340.9,64.4,343.4,63.4z"/>
	<path class="st2" d="M341.4,90.1c-1.3,0.8-2.2,1.6-2.7,2.6C339.8,91.8,340.6,90.9,341.4,90.1z"/>
	<path class="st2" d="M373.5,76.8c4.1-5.9-0.8-10.9-2.6-17.3c-1.2-1.3-15.9,2.3-15,6.7c7.4,0.6-7.9,6.6,4.6,3.8
		c1.8,2.2-2.8,7.3-8.8,7.9c-0.3-2.5,5-3.3,0.7-4.6c-2.9,4-4.9,2.6-2.4,5.7c-5.5,4.3-5.3,7.2-8.7,11c3.4-2.1,9.4-3.7,15.6-5.5
		C363,82.6,369.3,80.5,373.5,76.8z"/>
	<path class="st2" d="M726.2,128.4c-0.4,0-0.7,0.2-1,0.5C725.4,128.6,725.8,128.5,726.2,128.4z"/>
	<path class="st2" d="M429.1,88.2l-7.8,2.7c1.9-0.2,2.8,0.8,3.8,1.8C425.5,91.7,430.5,89.5,429.1,88.2z"/>
	<path class="st2" d="M421.3,90.9c-0.9,0.1-2,0.4-3.4,1.2L421.3,90.9z"/>
	<path class="st2" d="M565.7,962.6c3.5-0.4,4.5-0.9,6.4-1.9C571.2,958.7,568.5,961.9,565.7,962.6z"/>
	<path class="st2" d="M590.6,655.4c0,0.1,0,0.1,0.1,0.1c3,0,4.6-1,4.7-2.8c-0.9-3.3-3.3-5-7.4-5c-1,1.1-1.6,2.7-1.8,4.7v0.3
		C586.3,654.4,587.7,655.4,590.6,655.4z"/>
	<path class="st2" d="M377.5,802.5c-0.8,1.5-1.3,2.6-1.7,3.3l-0.4,0.8c-1.2,2.6-2.7,6.2-4.4,10.7c2.6,0.3,4.8-0.1,6.5-1.3
		c0.8-0.4,1.7-1.5,2.8-3.1c0.7-1.5,1-3.5,0.8-5.8C380.4,804.8,379.2,803.3,377.5,802.5z"/>
	<path class="st2" d="M572,936.3c-8,3.5-26,3-36,9.2c-5.3,5.4-0.9,11,0,17.5c1.1,1.4,17.1-0.2,16.9-4.7c-7.8-1.5,9.4-5.5-4.3-4.4
		c-1.6-2.4,4.1-6.9,10.5-6.7c0,2.6-5.8,2.7-1.5,4.5c3.7-3.6,5.6-1.9,3.4-5.4C567.7,942.6,567.9,939.7,572,936.3z"/>
	<path class="st2" d="M753.9,146c1.9,0.4,3.6,0.8,3.3,0C756.1,146.2,755,146.2,753.9,146z"/>
	<path class="st2" d="M832.4,166.8C744.4,109.5,652,66.5,545.6,61.9c-6.6-0.3-13.4,2.1-19.9,1.8c106.4,4.7,198.8,47.6,286.8,104.9
		C816.9,171.5,828.1,164,832.4,166.8z"/>
	<path class="st2" d="M579.1,959.9c-0.4-0.3-0.9-0.5-1.5-0.7C578.1,959.5,578.7,959.8,579.1,959.9z"/>
	<path class="st2" d="M587.5,828.3c-1.1-4.1-2.7-7.3-4.6-9.4c-0.6-0.4-1.2-0.5-1.8-0.3c-1.2,0.3-1.3,3.5-0.2,9.6
		c-0.2,0,0,1.3,0.5,3.7c3.1,10.1,5.4,15,7.1,14.5c2.1-0.6,2.3-4.9,0.5-13.1L587.5,828.3z"/>
	<polygon class="st2" points="36.9,590 40.8,592.6 36,588.2 	"/>
	<path class="st2" d="M40.9,478.5c4.2-14-4.3,0.8-3.1-9.7c-1.5,6.1-5.5,8.9-6.6,8.2C33.7,483.7,39.1,467.3,40.9,478.5z"/>
	<path class="st2" d="M37.8,468.8c0.2-0.9,0.4-1.9,0.5-2.9C38.1,467,37.9,468,37.8,468.8z"/>
	<path class="st2" d="M432.9,597.8c3.8-4.3,5.9-8.1,6.3-11.4c0.2-1.6,0.3-3.3,0.3-4.8c0-1.6-0.1-3.1-0.3-4.5
		c-0.4-2.9-2.2-5.1-5.4-6.5c-2.3-1-5-1.6-8.1-1.6c-1.2,0-2.4,0.1-3.6,0.2c-4.6,0.5-8.5,3.6-11.7,9.3c-2.1,3.7-3.1,9.6-3.1,17.6
		c0,4.1,0.3,8.8,0.8,14C420.8,606.2,429,602.1,432.9,597.8z"/>
	<path class="st2" d="M60.8,593c-0.2-0.4-0.6-1.5-1.1-2.4C60,591.3,60.4,592,60.8,593z"/>
	<path class="st2" d="M39.8,434.7l3,10.3c-0.9-3.4-0.9-9.2-0.8-14c0-4.9-0.3-8.9-2.6-8.8c-1.9,5.1-2.1,11.7-0.5,14.6L39.8,434.7z"/>
	<path class="st2" d="M77.8,315.9l4.1-8.3c-4.2,0.4-1.1,2.3-4.3,6.7l-0.3-6.9C74.6,311.5,76.5,316.7,77.8,315.9z"/>
	<path class="st2" d="M575.3,934.1c-1.4,0.8-2.4,1.5-3.3,2.3C573.5,935.7,574.6,935,575.3,934.1z"/>
	<path class="st2" d="M629.6,714.1c2.7,1.4,6,2.3,10,2.9c0.6,0.2,1.4,0.2,2.1,0.2c3.3,0,7-1.1,10.9-3.4c4.7-2.6,8.2-9.2,10.5-19.7
		c2.3-10.5,3.7-18.4,4.1-23.5c0.1-1.2,0.1-2.3,0.1-3.3c0-3.7-0.5-6.6-1.4-8.9c-1.2-2.9-3.4-4.7-6.7-5.2c-1.3-0.2-2.6-0.3-3.9-0.3
		c-2.2,0-4.4,0.3-6.7,0.9c-3.7,1-7.9,3.3-12.4,6.8c-4.6,3.5-8.3,11.4-11.2,23.4c-1.9,7.8-2.9,13.7-2.9,17.8c0,2.4,0.3,4.2,1,5.3
		C624.6,710.4,626.8,712.8,629.6,714.1z"/>
	<path class="st2" d="M80.7,300.5c0,1.1,0.1,1.7,0.3,2.1C80.8,302.1,80.7,301.5,80.7,300.5z"/>
	<path class="st2" d="M448.7,833.9c0.4-0.8,0.6-1.7,0.8-2.6l0.1-0.3c0.7-4.1-1-6.5-5.1-7.2l-0.6-0.1c-0.3,1.4-0.5,2.2-0.5,2.6
		c-0.7,4.2-1.1,7.9-1.4,11.1l1.1,0.2C445.5,838,447.3,836.7,448.7,833.9z"/>
	<path class="st2" d="M504,573.2c-0.2-1.7-1.1-2.7-3-2.9h-0.7c-7.9,0-16.4,18.4-25.4,55.2c17.9-21.2,27.6-38.5,29.1-51.9V573.2z"/>
	<path class="st2" d="M325.8,960.4c-5.8-1.2-14.4,11.1-20.1,9.9c114.8,24.2,228.5,31.6,341.3-6.4c7-2.4,13.1-7.6,20.1-9.9
		C554.3,992,440.6,984.6,325.8,960.4z"/>
	<path class="st2" d="M551,836.7c-0.7-4.2-1.9-7.5-3.7-9.9c-0.5-0.5-1.1-0.6-1.8-0.5c-1.2,0.2-1.6,3.4-1.2,9.5
		c-0.2,0-0.1,1.3,0.1,3.8c2,10.4,3.9,15.4,5.5,15.2c2.1-0.3,2.8-4.7,1.8-13L551,836.7z"/>
	<path class="st2" d="M723.2,862.1l0.1,1.6c0.6-0.2,0.9-0.4,1.4-0.5C724.5,862.4,724,862,723.2,862.1z"/>
	<path class="st2" d="M724.6,866.9l2.3-4.6c-0.6,0.3-1.3,0.5-2.1,0.8C725.1,864,725,865.3,724.6,866.9z"/>
	<path class="st2" d="M89.5,684.5l-0.1-0.8C89.4,683.9,89.4,684.2,89.5,684.5z"/>
	<path class="st2" d="M752.4,837.7c-2.7,0-7.2,4.4-7.9,7.1l0.3-2.3c-3.7,6.3-10.9,3.7-8.2-0.1l-0.4,0.3c0,0-2.2,4.9-4.5,9.8
		c-1.1,2.5-2.3,4.9-3.2,6.7c-0.9,1.8-1.5,3-1.5,3c6.2-3,2.4-6.1,9.1-10.7c-2.1,1.5-2,3.1-1.9,3.9c0,0,1.5-1,3.8-2.5
		c2.3-1.5,5.3-3.4,8.3-5.5c3-2.1,5.9-4.2,8.1-5.8c2.2-1.6,3.7-2.7,3.7-2.7C756.3,838.5,748.4,841.6,752.4,837.7z"/>
	<path class="st2" d="M188.2,803c0.4,0.1,0.8,0.1,1.2,0C189.1,803.1,188.7,803.1,188.2,803z"/>
	<path class="st2" d="M625.9,819.3l-0.3-0.6c-3.6-8.8-6.6-12.6-9.1-11.6c-0.2-0.1-0.9,0-2.2,0.4l-1.5,0.8c4,9.1,6.2,14.1,6.7,15.3
		c2.4,6.2,4,10.3,4.8,12.1c3.3-1.8,4.8-3.2,4.5-3.9C629.6,830.6,628.6,826.4,625.9,819.3z"/>
	<path class="st2" d="M67.7,582.9c-0.1-0.7-0.4-1.5-0.9-2.1C67.1,581.6,67.4,582.3,67.7,582.9z"/>
	<path class="st2" d="M68.5,589.2c0.9-3.2,0.2-4.1-0.9-6.3C68.1,585.2,67.3,587.8,68.5,589.2z"/>
	<path class="st2" d="M84,683.2l2.9,3.8C86.3,686.2,85.8,679.9,84,683.2z"/>
	<path class="st2" d="M248.5,863.2c-1-0.8-2.1-1.5-3-1.8L248.5,863.2z"/>
	<polygon class="st2" points="70,460.6 69,461.6 70,467.1 	"/>
	<path class="st2" d="M68.1,474.8c-1.5,0.6-1.1,4.9-1.6,7.2C67.4,479.3,71.4,477.4,68.1,474.8z"/>
	<path class="st2" d="M727.5,849.1l8.5-6.4l1.9-4.2C735.1,841.5,731.5,844.6,727.5,849.1z"/>
	<path class="st2" d="M122.5,744.8c-1.6-2.2-2.8-5.1-3.4-9c-0.2,1.4-0.6,3.5-1.5,4.2C118.7,742.2,120.8,743,122.5,744.8z"/>
	<path class="st2" d="M593.1,667.8c-5.7,0-9.9-0.5-12.4-1.3c-3.1-1-5.1-2.6-6-5c-0.9-2.3-1.5-4.7-1.5-7V654c0-2.3,0.6-4.9,1.7-8.1
		c-8,2.4-13.9,7.4-17.7,14.8c-3.9,7.4-6.1,14.5-6.8,21.2c-0.4,3-0.6,5.7-0.6,8.2c0,3.1,0.3,5.8,0.8,8.1c0.9,4.2,3.3,7.7,7.3,10.6
		c2.9,2.3,6.2,3.4,10,3.4c1.2,0,2.4-0.1,3.8-0.3c5.2-1,10.2-3.7,14.8-8.2c4.6-4.5,7.6-10.6,9.2-18.2c1.2-6.1,1.8-11.2,1.8-15.1
		c0-1,0-1.9-0.1-2.7C595.8,667.7,594.5,667.8,593.1,667.8z"/>
	<path class="st2" d="M272.1,443.9h-15.6v94.3h14.7c3.2,0,5.8-0.2,7.7-0.8c1.9-0.5,3.4-1.4,4.4-2.7c1-1.3,1.7-3.2,2.1-5.7
		c0.4-2.5,0.6-5.8,0.6-9.8v-58c0-6.6-0.8-11.2-2.4-13.7C281.9,445.2,278.1,443.9,272.1,443.9z"/>
	<path class="st2" d="M283.5,364.3c-1-1.4-2.5-2.4-4.5-2.9c-2-0.5-4.6-0.8-7.8-0.8h-14.7v55.9h15.6c5.6,0,9.3-1.1,11.1-3.3
		c1.8-2.2,2.7-6.2,2.7-12v-22.2c0-3.6-0.2-6.6-0.4-9C285.1,367.6,284.5,365.7,283.5,364.3z"/>
	<path class="st2" d="M149.8,160.3c7.1-7.1,14.4-13.9,21.9-20.4C164,146.5,156.7,153.3,149.8,160.3z"/>
	<path class="st2" d="M545,27c126.9,6.3,262.5,75.7,341.8,177c2.3,3,17.8-4.5,19.9-1.8C814.6,84.5,656.5,19.7,510.6,20.4
		C387.2,21,266,57.7,171.7,139.9C257.7,66.3,393.3,19.5,545,27z"/>
	<path class="st2" d="M605.4,933.7c0.7-0.2,1.3-0.5,1.8-0.8C606.7,933.2,606.2,933.4,605.4,933.7z"/>
</g>
</svg>
