<?xml version="1.0" encoding="utf-8"?>
<!-- Generator: Adobe Illustrator 21.0.0, SVG Export Plug-In . SVG Version: 6.00 Build 0)  -->
<svg version="1.1" id="Camada_1" xmlns="http://www.w3.org/2000/svg" xmlns:xlink="http://www.w3.org/1999/xlink" x="0px" y="0px"
	 viewBox="0 0 107.9 48" style="enable-background:new 0 0 107.9 48;" xml:space="preserve">
<style type="text/css">
	.st0{fill-rule:evenodd;clip-rule:evenodd;fill:#3F3800;}
</style>
<g>
	<path class="st0" d="M16.7,26.3c-0.8-0.7-2.2-1.3-4-1.7l-7.1-1.5C5,23,4.6,22.9,4.2,22.6c-0.4-0.2-0.6-0.6-0.6-1.2
		c-0.1-0.6,0-1,0.1-1.5c0.2-0.4,0.3-0.7,0.4-0.8c0.1-0.1,0.3-0.3,0.6-0.3c0.3-0.1,0.6-0.1,1-0.1h9.9c1.1,0,1.6-0.5,1.6-1.6v-1.2
		c0-0.2,0-0.3-0.1-0.4c-0.1,0-0.1-0.1-0.2-0.1H6.6c-1,0-1.9,0.1-2.7,0.4C3,16.1,2.3,16.5,1.8,17c-0.6,0.5-1,1.1-1.3,1.8
		C0.2,19.4,0,20.2,0,21.1c0,2.7,1.7,4.5,5.2,5.2l7.4,1.5c0.5,0.1,1,0.3,1.5,0.6c0.5,0.3,0.7,0.6,0.7,1.1c0,0.5,0,0.8-0.2,1
		c-0.1,0.2-0.3,0.4-0.4,0.6c-0.1,0.1-0.3,0.3-0.6,0.3c-0.3,0.1-0.6,0.1-1,0.1H1.9c-1.1,0-1.6,0.6-1.6,1.7v1c0,0.2,0,0.3,0.1,0.3
		c0.1,0,0.2,0.1,0.2,0.1h10.9c2.3,0,3.9-0.5,4.9-1.4c1-0.9,1.5-2.2,1.5-3.7C18,28.1,17.5,27.1,16.7,26.3z"/>
	<path class="st0" d="M26.3,26.8c-0.9-0.6-1.9-0.9-3.1-0.9c-1.2,0-2.3,0.3-3.1,0.9c-0.8,0.6-1.3,1.7-1.3,3.3c0,0.6,0.1,1.2,0.2,1.8
		c0.1,0.5,0.3,1,0.7,1.4c0.3,0.4,0.8,0.7,1.3,0.9c0.6,0.2,1.3,0.3,2.2,0.3c0.9,0,1.6-0.1,2.2-0.3c0.6-0.2,1-0.5,1.3-0.9
		c0.3-0.4,0.6-0.9,0.7-1.4c0.1-0.6,0.2-1.1,0.2-1.8C27.6,28.5,27.2,27.4,26.3,26.8z M25.1,32.4c-0.4,0.4-1,0.6-1.9,0.6
		c-0.9,0-1.5-0.2-1.9-0.6c-0.4-0.4-0.6-1.2-0.6-2.3c0-0.9,0.2-1.6,0.5-2c0.3-0.4,1-0.6,2-0.6c1,0,1.6,0.2,2,0.6
		c0.3,0.4,0.5,1.1,0.5,2C25.7,31.3,25.5,32,25.1,32.4z"/>
	<path class="st0" d="M29.9,22.3h-0.9c-0.6,0-0.9,0.3-0.9,1v11.1c0,0.2,0.1,0.2,0.2,0.2h1.6c0.1,0,0.2-0.1,0.2-0.2V22.5
		C30.1,22.4,30,22.3,29.9,22.3z"/>
	<path class="st0" d="M38.3,25.9h-1.4c-0.1,0-0.2,0.1-0.2,0.2v6.5c0,0.1-0.1,0.2-0.2,0.3c-0.2,0-0.4,0.1-0.7,0.1c-0.3,0-0.7,0-1.3,0
		c-0.8,0-1.3-0.1-1.5-0.3c-0.3-0.2-0.4-0.7-0.4-1.3v-5.2c0-0.1-0.1-0.2-0.2-0.2h-1.5c-0.1,0-0.2,0.1-0.2,0.2v5.5
		c0,1.1,0.3,1.8,0.9,2.3c0.6,0.5,1.5,0.7,2.8,0.7c0.8,0,1.5,0,2.1-0.1c0.5,0,1-0.1,1.5-0.2c0.4-0.1,0.6-0.3,0.6-0.7v-7.5
		C38.5,26,38.5,25.9,38.3,25.9z"/>
	<path class="st0" d="M43.8,33c-0.2,0-0.4,0-0.7,0c-0.3,0-0.5,0-0.7,0c-0.6,0-1-0.1-1.2-0.3c-0.2-0.2-0.2-0.5-0.2-0.9v-4.1
		c0-0.2,0.1-0.2,0.2-0.2h2.2c0.1,0,0.2-0.1,0.2-0.2v-1.1c0-0.1-0.1-0.2-0.2-0.2H41v-2.3c0-0.1-0.1-0.2-0.2-0.2h-0.9
		c-0.3,0-0.5,0.1-0.6,0.2c-0.2,0.1-0.2,0.4-0.2,0.7v7.5c0,1,0.2,1.7,0.7,2.1c0.5,0.5,1.2,0.7,2.4,0.7c0.3,0,0.5,0,0.7,0
		c0.2,0,0.4,0,0.6-0.1c0.2,0,0.3-0.1,0.4-0.2c0.1-0.1,0.1-0.2,0.1-0.4v-0.8C44,33,43.9,33,43.8,33z"/>
	<path class="st0" d="M45.6,22.4c-0.7,0-1.1,0.4-1.1,1.1c0,0.7,0.4,1.1,1.1,1.1c0.7,0,1.1-0.4,1.1-1.1
		C46.7,22.8,46.4,22.4,45.6,22.4z"/>
	<path class="st0" d="M46.3,26.2h-0.8c-0.5,0-0.8,0.3-0.8,0.8v7.4c0,0.1,0.1,0.2,0.2,0.2h1.5c0.1,0,0.2-0.1,0.2-0.2v-8
		C46.5,26.3,46.5,26.2,46.3,26.2z"/>
	<path class="st0" d="M54.8,26.8c-0.9-0.6-1.9-0.9-3.1-0.9c-1.2,0-2.3,0.3-3.1,0.9c-0.8,0.6-1.3,1.7-1.3,3.3c0,0.6,0.1,1.2,0.2,1.8
		c0.1,0.5,0.3,1,0.7,1.4c0.3,0.4,0.8,0.7,1.3,0.9c0.6,0.2,1.3,0.3,2.2,0.3c0.9,0,1.6-0.1,2.2-0.3c0.6-0.2,1-0.5,1.3-0.9
		c0.3-0.4,0.6-0.9,0.7-1.4c0.1-0.6,0.2-1.1,0.2-1.8C56.1,28.5,55.7,27.4,54.8,26.8z M53.6,32.4c-0.4,0.4-1,0.6-1.9,0.6
		c-0.9,0-1.5-0.2-1.9-0.6c-0.4-0.4-0.6-1.2-0.6-2.3c0-0.9,0.2-1.6,0.5-2c0.3-0.4,1-0.6,2-0.6c1,0,1.6,0.2,2,0.6
		c0.3,0.4,0.5,1.1,0.5,2C54.2,31.3,54,32,53.6,32.4z"/>
	<path class="st0" d="M60.9,25.9c-0.8,0-1.5,0-2,0.1c-0.5,0-1.1,0.1-1.5,0.2c-0.4,0.1-0.6,0.3-0.6,0.7v7.5c0,0.1,0.1,0.2,0.2,0.2
		h1.4c0.1,0,0.2-0.1,0.2-0.2V28c0-0.1,0.1-0.2,0.2-0.3c0.2,0,0.4-0.1,0.7-0.1c0.3,0,0.7,0,1.3,0c0.8,0,1.3,0.1,1.5,0.3
		c0.3,0.2,0.4,0.7,0.4,1.3v5.2c0,0.1,0.1,0.2,0.2,0.2h1.5c0.1,0,0.2-0.1,0.2-0.2v-5.5c0-1.1-0.3-1.8-0.9-2.3
		C63.2,26.2,62.2,25.9,60.9,25.9z"/>
	<path class="st0" d="M70.3,29.7l-2.4-0.6c-0.6-0.2-0.9-0.4-0.9-0.8c0-0.3,0.2-0.6,0.5-0.7c0.3-0.1,0.8-0.2,1.5-0.2
		c0.5,0,0.9,0,1.2,0c0.3,0,0.6,0,0.8,0.1c0.2,0,0.4,0,0.5,0.1c0.1,0,0.2,0,0.3,0c0.1,0,0.1-0.1,0.1-0.2v-0.8c0-0.2,0-0.4-0.1-0.5
		c-0.1-0.1-0.3-0.2-0.5-0.2c-0.3-0.1-0.6-0.1-0.9-0.1c-0.4,0-0.9-0.1-1.6-0.1c-1.3,0-2.3,0.2-2.9,0.7c-0.6,0.5-0.8,1.1-0.8,1.8
		c0,0.6,0.2,1.1,0.5,1.4c0.3,0.3,1,0.6,1.8,0.9l2.3,0.6c0.2,0.1,0.5,0.2,0.6,0.3c0.2,0.1,0.3,0.3,0.3,0.5c0,0.3-0.2,0.5-0.5,0.7
		c-0.3,0.2-0.8,0.3-1.5,0.3c-1,0-1.7,0-2.2-0.1c-0.5-0.1-0.8-0.1-1-0.1c-0.1,0-0.2,0.1-0.2,0.2l0,0.8c0,0.4,0.2,0.6,0.6,0.6
		c0.3,0,0.7,0.1,1.2,0.1c0.5,0.1,1.1,0.1,1.8,0.1c1.3,0,2.2-0.2,2.8-0.7c0.6-0.5,0.9-1.1,0.9-2c0-0.6-0.2-1.1-0.5-1.4
		C71.6,30.2,71.1,29.9,70.3,29.7z"/>
	<path class="st0" d="M96.8,19.3c3-9.1-4-17.2-10.9-18.8c-9.1-2.1-16.5,5.1-17.4,12.8c-1.1,8.8,5.4,12.4,7.7,15.5
		c2.2,2.9-0.2,4.8,2.1,5.6c1.4-1.2,1.4-2.9,0.5-4.8c-0.4-0.8-0.8-1.5-1.2-2.1c-0.2-0.3-0.5-0.6-0.7-0.9l-2.5-2.5
		c-1.7-1.7-3.2-3.8-3.7-6.4C69,9.8,74.7,2.9,81.3,2.1c7.8-0.9,14,5.1,14.4,12.3c0.4,7.7-4.6,9.7-7.1,13c-3,4-0.3,4.7-3.4,5.6V18.8
		h5.3c1,0,1.4-0.5,1.4-1.4v-1.5c0-0.1-0.1-0.2-0.2-0.2H76.2c-1,0-1.4,0.5-1.4,1.4v1.4c0,0.2,0.1,0.3,0.2,0.3h6.3v15.6
		c-0.4,0.1-0.6,0.2-0.6,0.2c-0.9,0.3-1.9,0.7-2.9,1.1c-1.2,0.4-2.1,0.4-1.7,2.1c2,0.9,5.4,0.3,7.7,0.4c-0.5,0.5-3.7,1.5-4.3,1.7
		c-1.5,0.6-2.9,1.1-3.2,2.8l6.7,0.3c0,0,0.1,0,0.1,0c0,0,0.1,0,0.1,0l0.2,0.1c-2.1,0.7-4.7,2.1-7.2,2.8l0,1.6
		c2.6,0.1,5.1,0.1,7.7,0.1c2.3,0,5.8,0.8,6.1-1.3c-1.2-1-5.6-0.4-7.4-0.6c1.6-1.8,6.9-1.6,7-4.1c-1.6-1.4-4.9-0.5-7.1-0.7
		c0.4-0.4,5.7-2.3,6.4-2.5c1.1-0.4,1.3-0.4,1.2-1.8c-1.6-0.9-5.7-0.4-7.7-0.4c0.6-0.5,1.7-0.6,2.4-1c0.9-0.5,2-0.7,3-1.3
		c2-1.3-1.4-2.9,4.2-7.4l1.9-2C95.2,22.8,96,21.6,96.8,19.3z"/>
	<path class="st0" d="M100.1,26.7c-0.3-0.2-0.7-0.4-1.2-0.6c-0.5-0.2-1.2-0.2-1.9-0.2c-0.7,0-1.3,0.1-1.8,0.2
		c-0.5,0.1-1,0.4-1.3,0.7c-0.4,0.3-0.6,0.8-0.8,1.3c-0.2,0.6-0.3,1.2-0.3,2.1c0,0.7,0.1,1.3,0.2,1.8c0.1,0.5,0.4,1,0.7,1.4
		c0.3,0.4,0.8,0.7,1.3,0.9c0.6,0.2,1.3,0.3,2.1,0.3c0.6,0,1.1,0,1.5,0c0.4,0,0.8,0,1.1-0.1c0.2,0,0.4-0.1,0.5-0.2
		c0.1-0.1,0.2-0.3,0.1-0.5l0-0.8c0-0.1-0.1-0.2-0.2-0.2c-0.1,0-0.2,0-0.4,0c-0.2,0-0.4,0-0.7,0.1c-0.3,0-0.6,0-0.9,0.1
		c-0.3,0-0.6,0-0.9,0c-0.8,0-1.4-0.1-1.8-0.3c-0.4-0.2-0.6-0.6-0.8-1.2l3.3-0.6c0.5-0.1,0.9-0.2,1.3-0.3c0.4-0.1,0.6-0.3,0.9-0.5
		c0.2-0.2,0.4-0.4,0.5-0.7c0.1-0.3,0.2-0.6,0.2-1c0-0.3-0.1-0.6-0.2-0.9C100.6,27.2,100.4,26.9,100.1,26.7z M98.9,28.8
		c0,0.1-0.1,0.2-0.2,0.3c-0.1,0.1-0.3,0.2-0.5,0.2c-0.2,0.1-0.5,0.1-0.9,0.2l-2.6,0.5v-0.3c0-0.5,0-0.8,0.1-1.1
		c0.1-0.3,0.2-0.6,0.4-0.8c0.2-0.2,0.4-0.3,0.7-0.4c0.3-0.1,0.7-0.1,1.2-0.1c0.7,0,1.2,0.1,1.4,0.2c0.3,0.2,0.4,0.4,0.4,0.8
		C99,28.6,99,28.7,98.9,28.8z"/>
	<path class="st0" d="M105.6,27.5c0.2,0,0.4,0,0.6,0c0.2,0,0.5,0,0.7,0.1h0.8c0.1,0,0.2-0.1,0.2-0.2v-0.7c0-0.4-0.2-0.6-0.6-0.7
		c-0.3,0-0.6-0.1-1-0.1c-0.3,0-0.7,0-1.1,0c-2.7,0-4.1,1.4-4.1,4.2c0,1.4,0.3,2.5,0.8,3.2c0.6,0.9,1.7,1.3,3.3,1.3
		c0.5,0,0.9,0,1.2,0c0.4,0,0.6,0,0.8-0.1c0.4,0,0.6-0.3,0.6-0.6l-0.1-0.8c0-0.2-0.1-0.2-0.2-0.2c0,0-0.1,0-0.2,0
		c-0.1,0-0.3,0-0.6,0.1c-0.2,0-0.5,0.1-0.7,0.1c-0.2,0-0.4,0-0.6,0c-1,0-1.6-0.2-1.9-0.6c-0.4-0.4-0.6-1.1-0.6-2.3
		c0-1,0.2-1.6,0.5-2C103.9,27.7,104.6,27.5,105.6,27.5z"/>
</g>
</svg>
