<?xml version="1.0" encoding="utf-8"?>
<!-- Generator: Adobe Illustrator 21.0.0, SVG Export Plug-In . SVG Version: 6.00 Build 0)  -->
<svg version="1.1" id="Camada_1" xmlns:serif="http://www.serif.com/"
	 xmlns="http://www.w3.org/2000/svg" xmlns:xlink="http://www.w3.org/1999/xlink" x="0px" y="0px" viewBox="0 0 1000 1000"
	 style="enable-background:new 0 0 1000 1000;" xml:space="preserve">
<style type="text/css">
	.st0{display:none;}
	.st1{display:inline;}
	.st2{fill:#1C1C1C;}
	.st3{fill:#FFFFFF;}
</style>
<g class="st0">
	<g class="st1">
		<text transform="matrix(1 0 0 1 -857.985 24.7382)" class="st2" style="font-family:'AvenirNext-Regular'; font-size:77.0353px;">LOJAS</text>
	</g>
	<g class="st1">
		<path class="st2" d="M-234.2,132.4c0.9,0.3,1.8-0.3,2.4-1c14.6-15.5,29.6-48.4,29.6-48.4c3-4.9,1.7-11.3-3-14.3
			c-4.6-3-10.8-1.4-13.8,3.5c-0.5,0.9-1,1.8-1.2,2.7c-2.5,14-2.2,29.2-15.4,54.6C-236.2,130.8-235.3,132.1-234.2,132.4z"/>
		<path class="st2" d="M-223.7,139.2c-1,0.8-0.8,2.3,0.1,3.1c0.7,0.6,1.7,0.5,2.6,0.1c19.8-7.7,47.4-31,47.4-31
			c4.8-3.2,6.4-9.5,3.4-14.2c-2.9-4.7-9.2-5.9-14-2.7c-0.8,0.6-1.7,1.2-2.3,2C-194.6,108-200.9,121.9-223.7,139.2z"/>
		<path class="st2" d="M-154.4,133.8c-1-5.4-6.3-8.9-12-7.8c-1,0.2-2,0.5-2.8,1c-12,7.6-23,18.1-50.7,25.6c-1.2,0.3-1.6,1.9-1,2.9
			c0.4,0.9,1.4,1.1,2.4,1.1c21.2,0.3,55.6-11,55.6-11C-157.3,144.5-153.5,139.2-154.4,133.8z"/>
		<path class="st2" d="M-597,94.9c-4.2-2.6-7.7-1.9-10.6,1.9c-3.2,3.5-4.9,7.2-5.1,11.1c-0.2,3.9,1,6.8,3.6,8.7
			c2.6,1.9,5.6,2.3,9.2,1c1.3-0.6,2.4-2,3.4-4.1c1-2.1,1.6-4.3,1.9-6.8c0.3-2.4,0.3-4.7,0-7C-594.9,97.5-595.7,95.9-597,94.9z"/>
		<path class="st2" d="M-218.9,189.6c-1,0-1.9,0.6-2.9,1.7c-1,1.1-2.4,3.5-4.3,7c-2.9,5.5-6.4,10.3-10.6,14.5
			c-4.2,4.2-7.9,6.8-11.1,7.7c-1.9,0.6-3.4,0.9-4.3,0.7c-1-0.2-2.3-0.7-3.9-1.7c-1-0.3-1.9-0.8-2.9-1.4c-1-0.6-1.4-1.3-1.4-1.9
			c-0.3-0.6-0.1-1.8,0.7-3.4c0.8-1.6,1.8-3.4,3.1-5.3c1.6-1.9,3.1-4.5,4.6-7.7c1.4-3.2,2.8-6.1,4.1-8.7c6.1-14.5,8.4-26.1,6.8-34.8
			c-1.6-8.7-6.8-13-15.5-13c-7.4,0-13.8,3.3-19.1,9.9c-5.3,6.6-8.8,16-10.4,28.3c-1.6,11.6-0.3,21.4,3.9,29.5l3.4,7.7l-3.9,1.9
			c-3.9,1.3-7.9,0.4-12.1-2.7c-4.2-3.1-6.6-6.8-7.2-11.3c-1.3-5.8-1-12.6,0.7-20.5c1.8-7.9,4.4-14.2,8-19.1c1-1.6,1.8-3.1,2.7-4.3
			c0.8-1.3,1.2-2.2,1.2-2.9c0-3.9-2.7-5.8-8.2-5.8c-1.6,0-3.1,0.4-4.6,1.2c-1.4,0.8-3.5,2.5-6,5.1c-5.5,5.8-9.4,13.4-11.8,22.7
			c-0.8,3-1.3,6-1.6,8.9c-0.8,1.6-1.8,3.9-3,6.8c-1.3,3.1-2.9,7.2-4.8,12.3c-9,23.5-16.6,38.5-22.7,44.9c-2.6,2.9-4.4,4.4-5.6,4.6
			c-1.1,0.2-2.5-1-4.1-3.6c-2.3-2.6-3.2-9.1-2.9-19.6c0.3-10.5,1.8-22.8,4.3-36.9c3.9-22.5,4.8-36.5,2.9-42c-3.5-9-10-10.6-19.3-4.8
			c-5.5,3.5-12.3,10.4-20.5,20.5c-8.2,10.1-16.8,22-25.8,35.5c-5.8,9.7-8.4,13-7.7,10.1c0-1,0.3-3.2,1-6.8c0.6-3.5,1.3-7.6,1.9-12.1
			c1-5.5,1.8-9.5,2.4-12.1c0.6-2.6,1.3-4.2,1.9-4.8c0.6-0.6,2.1-1.8,4.3-3.4c2.2-1.6,4.7-3.4,7.2-5.3c3.2-2.2,6.8-5.2,10.9-8.9
			c4-3.7,8.1-7.7,12.3-12.1c4.2-4.3,8.2-8.8,12.1-13.3c3.9-4.5,7.1-8.5,9.7-12.1c11.6-16.4,18.9-31.8,22-46.1
			c3.1-14.3,1.7-27.1-4.1-38.4c-4.5-8.4-10.4-14.2-17.6-17.4c-7.2-3.2-14.2-2.7-21,1.4c-4.5,2.9-8.5,6.4-12.1,10.4
			c-3.5,4-7.1,9.4-10.6,16.2c-1.6,3.5-3.4,7.4-5.3,11.6c-1.9,4.2-3.2,7.6-3.9,10.1c-4.2,11.3-8.5,28.2-13,50.7
			c-4.1,20.4-8.6,46.5-13.5,78c-1.9,4.1-3.9,8.1-6.1,12c-3.1,5.6-6,10.6-8.9,15c-2.9,4.3-5.6,7.7-8,9.9c-2.4,2.3-4.1,2.9-5.1,1.9
			c-5.8-4.5-5.8-23.5,0-57c1-5.8,1.7-11.4,2.2-16.9c0.5-5.5,0.8-10.6,1-15.5c0.2-4.8,0.2-9,0.2-12.6c0-3.5-0.2-6.1-0.5-7.7
			c-1.9-5.5-5.2-8.8-9.7-9.9c-4.5-1.1-9,0.1-13.5,3.6c-10.6,8.4-25.1,27.2-43.5,56.5c-2.6,3.9-4.7,7.2-6.3,9.9
			c-1.6,2.7-2.6,4.1-2.9,4.1l1-8.7c1-6.1,1.3-11.9,1-17.4c-0.3-5.5-1.3-9-2.9-10.6c-3.2-3.2-6.9-3.1-11.1,0.5
			c-1.3,1.6-2.7,4.8-4.1,9.7c-1.4,4.8-2.7,10.1-3.6,15.9c-0.6,3.3-1,6.7-1.4,10c-2,4.8-4.2,9.6-6.5,14.4c-2.7,5.6-5.6,10.8-8.5,15.5
			c-2.9,4.7-5.7,8.7-8.5,12.1c-2.7,3.4-5.1,5.6-7,6.5c-1.6,1.3-2.8,1.9-3.6,1.9c-0.8,0-1.7-0.3-2.7-1c-8.7-5.8-9.3-27.2-1.9-64.2
			c2.6-12.2,4-20.9,4.3-26.1c0.3-5.1-0.5-8.7-2.4-10.6c-1.3-1.6-2.9-2.4-4.8-2.4c-1.9,0-3.7,0.6-5.3,1.9c-1.3,1-2.7,3.8-4.3,8.5
			c-1.6,4.7-3.3,10.1-5.1,16.4c-1.8,6.3-3.3,13-4.6,20c-0.3,1.5-0.5,3-0.8,4.4c-0.7,1.8-1.6,4-2.6,6.7
			c-9.3,22.9-17.7,38.4-25.1,46.6c-7.4,8.2-13,8.1-16.9-0.2c-1.3-2.9-2.1-6.6-2.4-11.1c-0.3-4.5,0-10.9,1-19.1
			c1-8.2,2.6-18.6,4.8-31.1c2.2-12.6,5.1-28.2,8.7-46.8c1.3-6.1,2.5-12,3.6-17.6c1.1-5.6,2.2-10.7,3.1-15.2c1-4.5,1.8-8.3,2.4-11.3
			c0.6-3.1,1-5.1,1-6c0-4.2,0.6-6.6,1.9-7.2c0.3-0.3,3.1-1,8.2-2.2c5.1-1.1,11.3-2.3,18.4-3.6c5.1-1,9.5-1.7,13-2.2
			c3.5-0.5,6.7-0.9,9.4-1.2c2.7-0.3,5.2-0.5,7.5-0.5c2.2,0,4.7,0,7.2,0c6.8,0.6,11.4,1.5,14,2.7c2.6,1.1,4.7,3.8,6.3,8
			c1.3,3.5,2.4,5.3,3.4,5.3c0.3-0.3,1.1-0.5,2.4-0.5c1,0,1.4-1.4,1.2-4.1c-0.2-2.7-1-5.4-2.7-8c-5.2-9.7-17.7-13.2-37.7-10.6
			c-2.3,0.3-5.6,0.9-9.9,1.7c-4.3,0.8-9,1.6-14,2.4c-5,0.8-9.8,1.6-14.5,2.4c-4.7,0.8-8.3,1.5-10.9,2.2c0,0.3-0.2-0.5-0.5-2.4
			c-0.3-1.9-0.5-4.2-0.5-6.8c-0.3-5.5-0.9-9.1-1.7-10.9c-0.8-1.8-2.3-2.7-4.6-2.7c-2.3,0-4.2,1.5-5.8,4.6c-1.6,3.1-4,10.1-7.2,21
			c0,0.6-1.9,1.4-5.8,2.2c-3.9,0.8-8.5,1.6-14,2.4c-5.5,0.8-11.3,1.5-17.6,2.2c-6.3,0.6-12,1.1-17.1,1.4c-9.3,0.3-16.3,0.2-20.8-0.5
			c-4.5-0.6-8-2.2-10.6-4.8c-1.6-1.6-2.7-3-3.1-4.1c-0.5-1.1-0.7-3-0.7-5.6c0-4.2-0.6-6.4-1.9-6.8c-1.6-0.6-2.9-0.1-3.9,1.7
			c-1,1.8-1.4,4.1-1.4,7c0,2.3,0.3,4,1,5.3c0.6,1.3,2.1,3.1,4.3,5.3c2.6,2.9,5.6,5,9.2,6.3c3.5,1.3,8.5,2.3,15,2.9
			c4.8,0.6,12.2,0.6,22.2-0.2c10-0.8,19.8-2,29.5-3.6c1.6-0.3,3.3-0.6,5.1-1c1.8-0.3,3.3-0.6,4.6-1c1.3-0.3,2.6-0.5,3.9-0.5
			c0,0.3-0.4,2.7-1.2,7.2c-0.8,4.5-2,10-3.6,16.4c-5.2,23.5-9.3,43-12.3,58.4c-2.9,14.7-4.9,26.9-5.9,36.8c-1.9,4.1-4,8.2-6.2,12.2
			c-3.1,5.6-6,10.6-8.9,15c-2.9,4.3-5.6,7.7-8,9.9c-2.4,2.3-4.1,2.9-5.1,1.9c-5.8-4.5-5.8-23.5,0-57c1-5.8,1.7-11.4,2.2-16.9
			c0.5-5.5,0.8-10.6,1-15.5c0.2-4.8,0.2-9,0.2-12.6c0-3.5-0.2-6.1-0.5-7.7c-1.9-5.5-5.2-8.8-9.7-9.9c-4.5-1.1-9,0.1-13.5,3.6
			c-10.6,8.4-25.1,27.2-43.5,56.5c-2.6,3.9-4.7,7.2-6.3,9.9c-1.6,2.7-2.6,4.1-2.9,4.1l1-8.7c1-6.1,1.3-11.9,1-17.4
			c-0.3-5.5-1.3-9-2.9-10.6c-3.2-3.2-6.9-3.1-11.1,0.5c-1.3,1.6-2.7,4.8-4.1,9.7c-1.4,4.8-2.7,10.1-3.6,15.9c-0.4,2.3-0.7,4.6-1,6.9
			c-1.5,3.3-3.6,8.1-6.2,14.4c-10.3,26.1-18.4,41.7-24.1,46.8c-2.6,2.3-4.3,3-5.3,2.2c-1-0.8-2.3-3.5-3.9-8
			c-1.3-4.5-1.8-9.8-1.4-15.9c0.3-6.1,1.6-14.5,3.9-25.1c1.9-9.3,2.9-15.9,2.9-19.8c0-3.9-0.8-6.6-2.4-8.2c-1-1.6-2.3-2.4-3.9-2.4
			c-1.6,0-3.7,2-6.3,6c-2.6,4-6.4,11.2-11.6,21.5c-10.9,21.2-18.4,31.2-22.2,29.9c-3.9-1.3-5-8.9-3.4-22.7c1-8.7,2.6-16.7,4.8-24.1
			c2.2-7.4,4.8-13.8,7.7-19.3c2.9-5.5,6-9.7,9.4-12.6c3.4-2.9,6.7-4,9.9-3.4c2.6,0.6,4.8,2.1,6.8,4.3c1.9,2.3,3.2,4.8,3.9,7.7
			c0.6,3.2,1.9,4.8,3.9,4.8c1.6,0,2.5-0.2,2.7-0.7c0.2-0.5,0.2-2,0.2-4.6c-0.3-7.7-3.5-13.7-9.4-17.9c-6-4.2-12.6-5.1-20-2.9
			c-8.7,1.9-16.4,8.2-23.2,18.8c-7.2,10.7-11.9,21.8-14.1,33.3c-1.4,2.3-3,4.7-4.7,7.3c-2.9,4.2-6,8.5-9.4,12.8
			c-3.4,4.3-6.8,8.5-10.4,12.6c-3.5,4-6.8,7.5-9.7,10.4c-6.4,6.1-13.2,10.9-20.3,14.2c-7.1,3.4-12.7,4.8-16.9,4.1
			c-2.9-0.3-6-1.5-9.4-3.6c-3.4-2.1-6.8-4.5-10.1-7.2c-3.4-2.7-6.5-5.8-9.4-9.2c-2.9-3.4-5.2-6.5-6.8-9.4c-1.9-3.2-3.5-6.5-4.6-9.9
			c-1.1-3.4-2-7.1-2.7-11.1c-0.6-4-1.1-8.8-1.4-14.2c-0.3-5.5-0.5-11.9-0.5-19.3c0-6.8,0.1-12.2,0.2-16.4c0.2-4.2,0.4-7.9,0.7-11.1
			c0.3-3.2,0.9-6.4,1.7-9.7c0.8-3.2,2-7.2,3.6-12.1l1.4-6.3l12.6-1c31.2-1.9,59.6-12.6,85-31.9c14.2-10.6,25.9-22.2,35.3-34.8
			c9.3-12.6,15.6-25.1,18.8-37.7c3.9-15.1,2.8-27.4-3.1-36.9c-6-9.5-15.7-14.2-29.2-14.2c-5.5,0-10.3,0.5-14.5,1.4
			c-4.2,1-9.5,3.1-15.9,6.3c-11.9,5.8-23.8,14.3-35.7,25.6C-985.6,7.2-996,20.1-1005,34.6c-2.6,3.9-5.4,8.7-8.5,14.5
			c-3.1,5.8-6,11.8-8.9,17.9c-2.9,6.1-5.6,12-8.2,17.6c-2.6,5.6-4.5,10.4-5.8,14.2l-4.8,12.6l-3.9-1c-13.5-1.6-25.5-5.5-36-11.6
			c-12.5-7.3-18.9-25.1-21.4-23.8c-0.5,0.3-0.6,1.2-0.6,2c0,12.1,6.3,20.3,6.3,20.3s8.4,11.1,33.8,17.9c4.8,1.3,7.7,1.7,7.7,1.7
			c2.6,0.5,4.3,0.7,5.3,0.7c3.2,0,5.1,0.5,5.6,1.4c0.5,1,0.1,4.2-1.2,9.7c-2.9,12.6-4.8,24.9-5.6,36.9c-0.8,12.1-0.6,23.4,0.7,34
			c1.3,10.6,3.6,20.3,7,29c3.4,8.7,7.6,15.9,12.8,21.7c3.2,3.5,6.3,6.3,9.2,8.2c2.9,1.9,6.8,4,11.6,6.3c2.9,1.3,5.5,2.1,7.7,2.4
			c2.2,0.3,6.1,0.3,11.6,0c2.9,0,5.3-0.1,7.2-0.2c1.9-0.2,3.6-0.4,5.1-0.7c1.4-0.3,2.9-0.8,4.3-1.4c1.4-0.6,3.5-1.6,6-2.9
			c4.5-2.2,8.1-4.4,10.9-6.5c2.7-2.1,6.8-5.9,12.3-11.3c5.8-5.8,11.3-11.9,16.4-18.4c3.2-4.1,6.1-7.9,8.6-11.5c0,0.9,0,1.9,0.1,2.8
			c0.3,4.5,0.6,7.8,1,9.9c0.3,2.1,1.3,4.4,2.9,7c4.8,8.4,10.5,12.6,16.9,12.6c4.2,0,7.9-1.8,11.1-5.6c3.2-3.7,7.6-10.4,13-20
			c2.2-3.5,3.6-5.6,4.1-6c0.5-0.5,0.6,0.1,0.2,1.7c-2.9,22.9,0,38.6,8.7,47.3c1.6,1.6,3,2.7,4.1,3.1c1.1,0.5,2.8,0.7,5.1,0.7
			c2.6,0,4.4-0.3,5.6-1c1.1-0.6,3-2.2,5.6-4.8c3.2-3.5,7.2-10.1,12.1-19.6c4-7.9,7.8-16.4,11.4-25.5c0.1,0.4,0.1,0.8,0.2,1.2
			c1.9,10.3,6,15.5,12.1,15.5c4.5,0,8.7-4.5,12.6-13.5c3.5-8.7,7.7-17.5,12.6-26.6c4.8-9,9.7-17.3,14.7-24.9c5-7.6,9.8-14,14.5-19.3
			c4.7-5.3,8.5-8.8,11.3-10.4c1-0.6,1.7-1,2.2-1c0.5,0,0.7,0.7,0.7,2.2c0,1.4-0.3,4-1,7.7c-0.6,3.7-1.6,8.9-2.9,15.7
			c-2.6,14.2-4.1,27.3-4.6,39.4c-0.5,12.1,0.1,21,1.7,26.8c1.6,5.5,3.5,10.4,5.6,14.7c2.1,4.3,4.4,7.3,7,8.9
			c6.1,4.2,12.1,3.5,18.1-2.2c4.9-4.7,10.7-13.7,17.2-27c0,2.7,0.1,5.2,0.4,7.5c0.6,6.4,2.3,12.2,4.8,17.4c3.9,8.4,9,13.2,15.5,14.5
			c6.8,1.9,12.6,1.1,17.4-2.4c4.8-3.5,10.3-10.6,16.4-21.2c1.9-3.2,4.1-7.5,6.5-12.8c1-2.2,2-4.4,2.9-6.5c0.3,6.6,1.5,12.6,3.6,18.1
			c3.2,8.5,8,14.7,14.5,18.6c3.5,2.3,7.3,2.9,11.3,1.9c4-1,7.8-3.4,11.3-7.2c3.5-3.5,8-10.1,13.3-19.6c2.9-5.2,5.7-10.7,8.6-16.5
			c0.1,0.8,0.2,1.6,0.4,2.3c1.9,10.3,6,15.5,12.1,15.5c4.5,0,8.7-4.5,12.6-13.5c3.5-8.7,7.7-17.5,12.6-26.6
			c4.8-9,9.7-17.3,14.7-24.9c5-7.6,9.8-14,14.5-19.3c4.7-5.3,8.5-8.8,11.3-10.4c1-0.6,1.7-1,2.2-1c0.5,0,0.7,0.7,0.7,2.2
			c0,1.4-0.3,4-1,7.7c-0.6,3.7-1.6,8.9-2.9,15.7c-2.6,14.2-4.1,27.3-4.6,39.4c-0.5,12.1,0.1,21,1.7,26.8c1.6,5.5,3.5,10.4,5.6,14.7
			c2.1,4.3,4.4,7.3,7,8.9c6.1,4.2,12.1,3.5,18.1-2.2c4.3-4.1,9.2-11.4,14.7-22.1c0,0,0,0.1,0,0.1c-0.3,3.5-0.3,6.4,0,8.5
			c0.3,2.1,0.8,3.5,1.4,4.3c0.6,0.8,1.8,1.5,3.4,2.2c3.2,1.3,6.3,0.5,9.2-2.4c2.9-2.9,8-10,15.5-21.2c7.4-11.3,14.2-21.2,20.5-29.7
			c6.3-8.5,11.7-15.2,16.2-20c2.9-3.2,5.7-5.8,8.4-7.7c2.7-1.9,4.1-2.2,4.1-1c0,0.3-0.4,3-1.2,8c-0.8,5-2,11-3.6,18.1
			c-1.6,9-2.9,16.5-3.9,22.5c-1,6-1.7,10.9-2.2,15c-0.5,4-0.7,7.2-0.7,9.7s0.3,4.8,1,7c1.3,6.4,3.3,12.2,6,17.1
			c2.7,5,5.9,8.3,9.4,9.9c3.2,1.6,6.4,2.1,9.4,1.4c3.1-0.6,6.1-2.7,9.2-6.3c3.1-3.5,6.2-8.7,9.4-15.5c3.2-6.8,6.9-15.5,11.1-26.1
			c1.3-2.9,2.7-6.4,4.1-10.4c0.8-2.2,1.6-4.2,2.4-6.1c0.2,0.8,0.4,1.6,0.7,2.5c1.3,3.9,3.5,7.7,6.8,11.3c3.2,3.7,6.9,6.5,11.1,8.5
			c3.5,1.6,7.6,2.4,12.1,2.4c4.5,0,8.7-0.8,12.6-2.4c2.6-1.6,4.3-2.4,5.3-2.4c1,0,2.6,0.6,4.8,1.9c7.4,3.2,14.8,3.2,22.2,0
			c4.2-1.9,8-4.7,11.3-8.5c3.4-3.7,7.2-8.9,11.3-15.7c3.5-5.8,5.6-9.7,6-11.6C-215.7,190.5-216.6,189.6-218.9,189.6z M-421.5,160.4
			c1.1-6.6,2.4-14,3.9-22.2c1.4-8.2,2.9-16.1,4.3-23.7c1.4-7.6,2.5-13.1,3.1-16.7c5.1-20.3,11.2-36.1,18.1-47.3
			c6.9-11.3,13.8-16.3,20.5-15c2.9,0.6,5.7,2.3,8.5,4.8c2.7,2.6,5.1,5.7,7,9.4c1.9,3.7,3.3,7.8,4.1,12.3c0.8,4.5,0.9,8.9,0.2,13
			c-1.6,12.2-5.9,24.3-12.8,36.2c-6.9,11.9-17.1,24.6-30.7,38.2c-9,9-15.9,15.5-20.8,19.3c-4.8,3.9-7.2,5-7.2,3.4
			C-423.1,170.9-422.6,167-421.5,160.4z M-1022.4,105.5c1.3-3.2,2.8-6.9,4.6-11.1c1.8-4.2,3.7-8.6,5.8-13.3
			c2.1-4.7,3.9-8.8,5.6-12.3c3.5-7.1,7.8-14.6,12.8-22.5c5-7.9,10-15.4,15-22.5c5-7.1,10-13.4,15-19.1c5-5.6,9.3-9.7,12.8-12.3
			c3.2-2.6,7.2-5.1,12.1-7.5c4.8-2.4,9.7-4.6,14.5-6.5c4.8-1.9,9.6-3.5,14.2-4.6c4.7-1.1,8.5-1.7,11.3-1.7c5.1,0,9.4,2.4,12.8,7.2
			c3.4,4.8,5.1,10.9,5.1,18.4c0,6.8-1.5,14.1-4.6,22c-3.1,7.9-7.2,15.7-12.3,23.4c-5.2,7.7-11.3,15.2-18.4,22.5
			c-7.1,7.2-14.7,13.6-22.7,19.1c-17.4,11.6-36.2,19.3-56.5,23.2c-3.2,0.6-6.5,1.2-9.9,1.7c-3.4,0.5-6.5,0.8-9.4,1
			c-2.9,0.2-5.2,0.3-7,0.5c-1.8,0.2-2.7,0.1-2.7-0.2C-1024.4,110.5-1023.7,108.8-1022.4,105.5z M-266.2,205.5
			c-0.6-1.9-1-4.7-1.2-8.2c-0.2-3.5-0.2-7.2,0-11.1c0.2-3.9,0.6-7.6,1.5-11.1c0.8-3.5,1.7-6.6,2.7-9.2c2.9-6.4,5.9-10,8.9-10.6
			c3.1-0.6,5.1,1.9,6,7.7c1,6.8-1.4,16.1-7.2,28c-1.6,3.2-3.1,6.1-4.6,8.7c-1.4,2.6-2.5,4.2-3.1,4.8
			C-264.9,206.8-265.9,207.1-266.2,205.5z"/>
	</g>
</g>
<g>
	<path class="st2" d="M-459.5,515.2c-12.3-55.2-38.6-103.8-73.3-146.2l-0.3-0.8l-0.5-0.3c-3.2-3.8-6.4-7.6-9.7-11.4
		c0.2-0.3,0.8-0.2,1.9,0.4c0.7,2.3,3,4.5,3.8,6c-1.8-5.3-4.7-8.3-7.1-10.9c-2.4-2.6-4.1-5-3.7-9.3c-5.6-2.6-14.3-9.3-17.9-18.8
		c4.1,1.8-6.8-8.3-0.4-6.9c-4-1.8-7.2-10.5-10.3-10c1.6,0.5,4.3,3.9,5.3,6.9c-3.4-2.6-5.7-1.4-8.3-5.6c-0.1-0.8,0.7-0.9,0.7-0.9
		c-5.9-3.6-8.3,3.9-15.4-4.7c-10.3-10.5-7.9-11.2-3-9.9c4.9,1.3,12.3,4.8,11.6,2.6c-2.3,0.5-12.1-8.4-14.7-14l1.7,0.4
		c-2.7-1.7-7-3.8-7.7-7.6c-3.8,1-8.7,0.8-11.8,0.9c0,0-2.4-2.3-4.9-4.5c-2.5-2.2-4.9-4.4-4.9-4.4l3.3,0.5c-2.7-1.5-4.7-3.3-6.8-5.1
		c1-2.7,3.4,0.5,7,2.6c0.1-3.3-1.9-5.1-6-5.3l1.1,1.2c-3.6-1.3-15.4-6.8-8.8,0.6c-7.1-3.1-5.4-8.5-10.1-10.9c1-2,5,0.6,4.2-2.4
		c-3.4-3.7-5.9-6-9.7-7.8c2.6,3.1-2.2,0.9,1.8,5.9c-2.7-0.6-7.9-4.2-8.4-3.2c1.9,0.9,3.6,1,5.4,4.3c-5.9-3.4-11.5-7.5-15.9-13.1
		c0.5-0.3,1.4-0.3,2.3-0.2c-1.6-0.4-3.2-1-4.9-1.6c3.9,0.6,7,1.1,7,1.1c-7.4-5.7-14.5-7.2-21.2-8c-0.9-0.1-1.8-0.3-2.7-0.4
		c-1.5-0.5-2.9-0.8-4.2-0.9c-0.9-0.2-1.7-0.5-2.6-0.8c-3-1-6-2.5-8.8-5.1c1.2,0,2.4-0.3,3.5-1.2c-1-0.6-1.9-1.1-2.8-1.5
		c0,0,0-0.1,0-0.1c-0.1,0-0.2,0-0.3-0.1c-2.9-1.3-5.5-1.7-8-1.8c-2-0.4-3.9-0.7-5.4-0.3l-6.9-3.2c0.8-1.6,5.2-4.5,12.4-1.2
		c-6.2-2.9-12.3-5.1-18.4-6.7c-3-0.8-6-1.6-9-2.3c-3-0.6-6-1.2-9-1.8c-11.9-2.4-23.7-4.5-36.4-9.7c-0.9-1.1,3.8-0.1,1.9-1.2
		c-3.3,0-8.3-0.1-9.6,0.6c0.5-0.5,1.3-1.1,2.8-1c-6.7-0.9-11.5-3-15.9-4.7c-4.5-1.7-8.4-3.4-13.2-2.8c-0.1-2.3,7.1-0.2,6.1-1.2
		c-6.7-2.3-12.2-1.8-17.7-1.3c-5.5,0.7-10.9,1.7-17.9,0.8c5-2.7-2.7-3.5-6.3-5.8c-5.9,0.7-14.9,0.9-24.7,1.2
		c-4.9,0.2-9.9,0.5-14.8,0.7c-4.9,0.4-9.7,0.8-14,1.4c4.4-8-19.3,0.2-21-6.2c-3.9,0.2-9.9,1.8-10.1,4.3c2.1-1.4,7.5,0.3,6.8,1.7
		c-5.6,0.7-14.2,1.8-14.6,5.1l-7.2-2.6c-0.2,2.5-2,5.8-5.8,6.3c-9.2-5.2,1.5,4.3-10.9,2.5c2.3-3.1,4.5-5.2,5.2-7.4
		c-6,0.1-4.9,1.6-8.9,2.9c-1.7-1.7,3.2-6.1,7.6-7.9c0,0-2-0.2-3.9-0.5c-2-0.2-3.9-0.3-3.9-0.3c-6.8,5-18.3,12.7-30,14
		c1.4-2.7,5.1-3.5,1.4-6c-4.8,2.1-10.4,7.7-17.4,7.3c0.8-0.5,0.2-0.8,1-1.2c-10.5,6.4-8.9,1.2-19.3,3.9c0.1-0.4,0-0.8,0.2-1.3
		l-5.6,4.1c-11.2,9.8-15.7,1-24.4,1.7l1.5-1.1c-3.1-0.9-8.3,0.8-13.3,3.1c-5,2.3-9.8,4.7-12.3,4.9c6.4,0,2.8,1.5,8.3,3.7
		c4.5-2.7,1.2-6.8,9.9-8.4c0.3,3.9-9.3,9.4-10.2,13c-4.3,1.9-9.7-2.4-11-4.3c-5.4,2.7-9.9,4.1-14.6,6.1c-4.7,1.9-9.7,4-16,8
		c-1.7,2.4-2.5,5.9-4.5,9c-2,3.1-5.1,5.7-11.8,6.3l-0.1-0.9c-0.4,1.8-5.6,2.1-6.7,4.7c5.7,1.4-3.1,5,3.3,5.7
		c-5.9,3.9-9.8-0.3-12.2-2.8c-1.2,7.6-13.7,5-20.9,14.1c0.3-3,9.9-10.3,4.3-9.8l-8,13.4l5.1-3.6c-3.2,4.8-6,6.6-8.9,7.6
		c-2.9,0.9-5.7,0.9-8.8,2.1c-2-0.6,0.9-3.5,3.4-5.3c-2.8,1.8-6.7,5.5-9.2,9.2c0.4-0.9,0.5-1.5-0.2-1.5c-0.4,1.5-1,2.3-1.3,3.8
		c0.4-0.7,1-1.5,1.6-2.3c-0.7,1.7-3,4.8-5.2,8c-2.2,3.3-4.3,6.9-5.1,9.4c-0.5,0.3-1.1,0.6-1.6,0.9c-0.1-0.4-0.1-0.8,0.2-1.1
		c-0.6,0.7-1.1,1.3-1.5,1.9c-1.6,1-3.3,1.9-4.8,3l0.3-1.4c-0.4,0.6-0.8,1.3-1.2,1.9l-4.9,3.3l-1.3,3l1.2-0.9
		c1.3,1.8,1.1,4.4-0.1,7.3c-1.1,2.9-3.4,6-6.5,8.7c0.5-0.2,4-2.8,8.8-6.6l-0.5,2.5c-3.6,2.8-7,5.6-10.4,8.2
		c-3.3,2.8-6.4,5.5-9.5,8.1c1.4-2.7,3.1-5.3,5.8-7.6c-4.6,1.5-8.1,5.8-11,9.7c-3,3.9-5.7,7.3-9.3,6.9c5-13.3,11.5-16.2,20.2-27.3
		c8.2-1.9-4.6,8.2-3,10.4c0,0,1.6-1.2,3.2-2.4c1.6-1.2,3.2-2.3,3.2-2.3c-2.6-1.1,9.9-11.8,3-13.3c-14.2,10.5-26.9,22.9-36.7,34.6
		c0,0-3.5-7.7-6.6-15.5c-3.1-7.8-6.1-15.8-6.1-15.8c-0.3-0.3-0.6-0.9-0.8-2.2c-10.7,12.2,3.5,13.4,1.8,17.1c-2,2.9-1.9,6.9-5.4,7.8
		l-0.2-2.3c-5.1,8.6,1.4,5.1-4.4,11.6c-2.3,7.1,4.3-4.5,3.5,0.6c-3.2,3.4-2.5,5.8-2.4,8.4c0.1,2.7-0.5,5.5-6.1,10.3
		c-0.7-1.4-4.9-1.6-0.4-8.8l-7.3,4.9c4.5-8.9,1.2-3.8,7.1-12.1c-0.5-6.3-3.3-7.1-3.4-12.7c-1.6,3.7,1.6,5.2-2.1,9.6
		c-5.1,4.9-1-2.1-1.7-3.5c-1.8,10.2-9.7,5.7-10.8,15.2c4.9,1.5,3.9,2.7,9.9-0.2c-2.1,5.6-9,9.7-12.2,6.9l2.6,3.2
		c-1.6,0.6-4.2,4.4-5.2,4.1l0.5,2.7c4.9-1.9,7.8-4,10.9-10.8c0.5,3.9,7.7,0.5,3.1,8.7c-2.3,3.3-2.1-0.8-3.2-1.3
		c-2.3,4.8-4.5,8.1-6.7,10.5c-2.1,2.5-4.1,4.2-6.1,5.8c-4,3.1-7.8,5.9-10.8,13.8c0.3-2.3,2.2-5.3,4.3-8.9c2.2-3.5,4.5-7.4,5.4-11.6
		c-5.4,2.4-4.6,9.5-7.3,13.4c0.6-4.5-0.2-5.9-4.1-2.4l1,3c-1.5,2.6-3.9,7.4-5.1,7.2c0.7,0.5,1.9-0.3,3.9-2.3c-0.2,2-0.7,4.4-1.5,6.9
		c-0.7,2.5-1.6,5.3-2.7,8.1c-1.1,2.8-2.5,5.7-4,8.7c-1.4,3-3,5.9-4.8,8.7c-4.2-2.9,5.5-18.4-2.2-11.3c-1.5,5.4,1.4,11.6-4.8,19.1
		c-1.1-4.8-4.4,2.8-6,2c0,0,0.1,3.6,0.2,7.2c0.2,3.6,0.5,7.2,0.5,7.2c-1.4,2.9-2.8,6-3.9,9.1c-0.9,2.5-1.4,5-1.7,7.5
		c0.3-1.6,0.9-3.4,1.8-5.4c3,10.3-7.1,14.9-7.6,26.5l-0.5-5.6c-1.7,4-2.7,7.7-3,11.3c-0.3,3.6-0.2,7.2-0.1,10.7l-3.5-1
		c4.5,2,2.7,16.5,3.6,19.9c0.3-10.4,2.1-14.6,4.1-18.6c2-4,3.6-7.9,4.5-18c2.8,8.5,2.5,13.9,5.2,22.7c-1,2.8-2.1,3.8-3.2,3.8
		c1.4,2.9,4.4,4.3,4.8,9.1l-2.2,1c-2.4,6.3-0.7,9.6,0.9,12.8c1.7,3.2,3.3,6.3,1.7,12.3c-5,1.9-4.6-11.5-6.1-19.7
		c-5.3,5.2,0.3-12.9-7-7.1l2.1,4.3c-0.7,3.5-2.6,3.2-2.8,1.4c0,4.5-0.6,3.4,1.3,5.6c-1.3,10.1-2.7,9.4-4.4,8.6
		c-1.6-0.8-3.9-1.8-6,8.2c-1-2.4-0.1-8-2.9-7.3l2.8-10.8l-3.5-0.8c-2.6,13.9,1.4,22.7,6.6,29.5c-2.1-12.7,3.9-1,6.4-7.2
		c1.5,2.6,0.3,4.7-0.9,5.9c0.9,1,1.1,7.2,3.2,6.5c-4.4,1.1-7.3,8.3-9.8,14.5c-2.4,6.2-4.9,11.4-9.2,8.2c-3.1,7.8,2.1,31.9,4,48.4
		l-2.9-4.4c-6,18.2,7.3,14.9,10.9,24.7c-4.2-8.5-2.7,8.4-4.7,12.4c4.3,7.4,10.2,12.8,11.9,23.7c-3,3-8.8,4.5-7.4,11.5l4.2,4
		c1.3,7,5.9,15.5,5,20.4l-0.5-0.9c0.3,8.1,5.7,7,4.6,0.9l4.1,6.6l-1,0.5c2.4,4.5,5.6,8.5,8.9,13.2c3.3,4.7,6.9,10,9.8,17.2
		c-4.7-2.8-2.5,13.4-8.1,0.4c3,3.3,2.6-3.3,3.8-4.5c-0.8-5.1-6-8.2-7.1-10.2c-1.4,2.2-6.5,2.3-9.9,0.4c4.3,4,7.6,13.2,10.9,21.3
		c3.2,8.2,7.3,15,12.1,14.3c2.1,5.9,5,12.5,8.2,19.2c3.3,6.7,6.6,13.6,8.8,20.5c0.1-0.7,0.4-2.1,1.2-2.1c0,0,0.3,3.3,0.7,6.5
		c0.5,3.2,1,6.4,1,6.4l-2.1-2.2l1.1,8.7c-1,1.5-3.8-0.7-5.7-3.6c-1.3-1.4-1.1-3.3,0-2.4c-6.4-5.9,2.3,7.5-3.4,3.9
		c-0.5-2.2-2.6-4.4-3.1-5.9c2.4,10.3,10.1,11.7,8.3,19.8c2.6,1.4,5.6,4,8.5,7.2c3,3.2,5.6,7.2,6.8,12c-3.2-1.7,3,5.5,1.4,6.7
		c-8.3-9.4-16.3-19-24.1-29c-3.1-4-15.3,2.9-18.3-0.9c62.5,79.7,138.3,137.7,225.3,170.7c71,26.9,149,39.4,223,28.2
		c-6,0.9-12.3-1.8-18.3-0.9c-43.3,6.5-160.7-10.5-235.6-48.2c-6.1-3-12-6.2-17.9-9.5c1.6,0.4,3.3,0.9,5,1.9
		c-1.8-4.8-14.3-15.6-17.8-11.4c4.2,0.2,6.7,0.4,11,3.7c-1.1,3.2-2.9,2.8-5.2,1.8c-4.7-2.8-9.4-5.6-14.1-8.6l0.1,0l-1.3-2.3
		c-2.3-0.3-5.6-2.7-6.1-4.6c5.5,3-0.8-5.9,5.4-3.3c4.1,2,6.9,5.2,9.5,7.8c2.8,2.4,5.5,4.2,8.9,3.5c-6.8-4.9-13.7-14.3-17.7-14.7
		l4.1,3.6l-13.4-3.2c0.5-1-1.8-2.5-4-4c-2.2-1.5-4-3.4-2.7-4.7c3.4,2.6,6.6,4.9,9.4,6.7c0.2-0.8-1.9-2.8-4.4-4.9
		c-2.5-2.2-5.2-4.8-6.7-6.5l3.2,4.9c-4.6-2.4-9.2-6-13.6-9.7c-2.2-1.8-4.4-3.7-6.6-5.4c-2.1-1.8-4.1-3.5-6.2-5
		c7.3,3.8-4.8-9,1.6-6.4c3.1,0.5,3.6,5.5,3.5,4.1c2.9-1.6-3.5-4.8-3.1-7.9c-2.2,0.7-9.8-6-7.6,0c-1.1-3.4-8.5-6.4-9.3-11.4
		c-2.1,3.4-7-5-9.3-5.2c-1-1.6-1.5-3.4-1.6-5c3.5,2.5,7.9,5.4,12.4,8.4l0,0c0.8,2,3.2,5.1,3.2,3.6l1.1-0.9
		c9.5,5.5,19,10.4,23.6,13.2l-3.1-0.5c2.1,0.6,3.8,1.6,5.3,2.8c1.6,1.1,2.9,2.5,4.2,3.9c2.6,2.8,5.2,5.7,9.2,7
		c-0.7,0.3-1.5-0.1-0.6,1c6.4,7.3,13.8,4.5,17.7,11.7l-2.1,1c0.7,0.2,5.3,1.8,6-0.6c-5.4-3.4-7-3.5-11-7.6c2.9,0.1,7.6,1.9,10.5,4.1
		l-0.1,0.1l0.2-0.1c0.1,0.1,0.2,0.2,0.3,0.2l2.6-2.6c6.1-0.1,6.2,7.5,12.3,7.3c-0.1,0.1-2.8-5.3-2.8-5.3c0.2,0,0.6,0.2,0.9,0.3
		c-2.1-1.3-4.1-2.2-5.1-1.9c-7.7-3.7-7.6-10.3-7.3-12.6c-1.3-1.9,0.4-2.5,2.2-3.1c0.4,0.3,0.9,0.6,1.3,0.8c5.6,3.4,11,6.8,16.6,10.4
		c1.9,1.3,3.9,2.7,5.9,4c0.4,0.4,0.8,0.9,1.2,1.3l-4.1,1.7c-3.4-6.1-7.7-6.9-12.4-11c0,0,9.7,10.6,9.9,10.3c3.7,6.3-0.4,4.4-5.2,1.9
		c1,0.8,1.9,1.6,1.8,2.3c1.4-0.7,15.5,5.3,5.5-2.4c2.9-3.2,7.8,2.9,11.1,3.9c-0.7-1.1-0.1-1.5,0.7-1.8c0.8,0.7,1.7,1.3,2.5,2
		c0.6,1.4-3.8-1.3-2.3,0.4c3.3,1.2,8.4,2.9,9.9,2.7c-0.7,0.4-2,0.8-3.8-0.2c2.4,1.1,4.4,2.2,6.3,3.4l-6.8,1.8c-0.1,0.2-6.5-6-6.5-6
		c-1.1,1.5-7.1-1-4.5,2.8c0.9,0.2,2.5,0.8,3.6,1.7c-2.9,2.7-10.8-5.1-10.9-0.3c6.4,3.2,6.8,4.5,12.1,4.3c5.2,3.8,8.9,6.7,10.8,9.5
		c2,0.4,3.4-1.5,5.7-0.7c-0.5-0.2-0.9-0.4-1.5-0.7l2.7-5.2c-2.3,0.1-3.7-1.3-5.6-2.3l7-0.5c1.1,0.8,2.1,1.6,3.1,2.3
		c2,1.6,4,3.1,6,4.3c0.1,0.1,0.3,0.1,0.4,0.2c0,0-0.1,0-0.1,0c-1.4,0-2.2,0.6-3,1.4c-1.5,1.5-2.9,3.3-8.7,0.8
		c0.7,0.3,1.6,0.8,2.5,1.9c2.8,1.2,4.2,4.4,2.7,4.7c6.7,0.7,5.6,3.1,8.6-1c4.7-0.5,7.1,4.3,2.1,4.2l11.8,2.1l-5.9-3.6
		c3.4-3,9.4,5.8,13.3,2.2l-11.3-4.8l0.7-0.6c1.6,0.4,3.3,0.7,4.9,0.9l0.1,0c89.6,51.7,196.1,52.2,297.4,27.8
		c-4.2,1.9-9.6,3.1-14.5,4c-7.8,1.7-14.5,2.8-13.3,7.5c3.5-1.2,9.4-2.4,14-5.9l1.7,6.3c7.6-2.5-0.4-5,10.4-8.2l-3.3,0.7
		c3.6-2.2,8.8-4.1,14.2-5.9c4.3-1.5,8.8-2.9,12.7-4.2l2.9-0.8c0.1,1.8,5.5,0.4,6.2,2.8c-0.6,0.3-1.1,0.6-1.7,0.9
		c0.6-0.2,1.3-0.4,1.8-0.6c0,0.1,0,0.1,0,0.2c5.4-2.8,10.8-5.4,13.1-9.2c6.3-2,12.5-4,18.7-6.1c-6.1,7.2-12.4,14.2-20.7,20.6
		c-1-1.4-5.4-0.4-10.7,1.3c-5.2,1.6-11.3,3.7-15.4,4.7c1.9-4.5,7.4-7.4,13.1-10.3c-3.8,1.2-10.4,3.3-15.3,4.8l0.2,7.4
		c-22.1,7.6,3.7-7.1-6.9-5.2c-5.9,2.5-7.3,5.8-10.9,7.7c17-7.6,0.1,9.3,17.7,2.3c-1.1,5.4-11.4,9.3-18.1,9.6
		c-8.3-2.6,5.2-4.9,5.4-9.9c-7,2.9-5.5,3.3-7.9,6.7c-2.9,0.5-5.8,1.6-8.6,2.7c-2.8,1.2-5.5,2.3-8.1,3.4c-5.2,2.1-10.1,3.3-14.3,0.8
		c-8.2,2.8-7.2,4.9-11.7,8.3c0,4.7,10.7,0.9,15.8,2.5c-0.4-0.3-0.6-0.6-0.5-0.9c0,0,1.9-0.1,3.8-0.3c1.9-0.2,3.8-0.4,3.8-0.4
		c-7.4,0-0.2-5.1,3.4-6.4c2.7-0.8,8-2.3,7.6-0.8l-3.8,2c5.7,0.3,10.6-6.6,16.9-5.5c0.6,1-1.3,2.1-1.5,2.9
		c5.3-4.9,11.2-6.7,19.5-11.8l-3.7,6.4c5.7-7.4,22.1-11.5,34.3-13.1c-1.5-0.3-4,0-3-1.4c6.1-3.5,12.2-2.5,10.2,1.2
		c2.4-3.3,8.8-4.8,15.3-7c6.5-2.2,13.4-4.6,16.4-9.1l1-1.5c2.9,1.9,5.6,3.3,7.3,2.6c94.2-38.9,173.6-118.3,219.6-207.6
		C-451.4,710.6-438.4,610-459.5,515.2z M-1246.7,937.3c0.6,1,0.9,1.6,0.8,2.1c1.1,0.9,2.1,1.7,3.2,2.6c0.1,0.3,0.2,0.6,0.3,0.9
		c-1.2-1-2.3-1.9-3.5-2.9c0.1-0.6-0.4-1.5-1.6-3.1C-1247.1,937-1246.9,937.2-1246.7,937.3z M-581.2,361c2.4,0.8,4.6,2.1,6.5,4.1
		c-1.1-1.2-2.1-2.7-2.6-5.4c0,0,3.5,1.8,6.9,3.6c3.4,1.9,6.9,3.8,6.9,3.8c-2.9-6.5-9.2-3.6-12.9-11.2c3.9-2,5.4-3.7,13.2,2.2
		c3.7,7.2-2.3,1-1.7,5.4c7.7,2.3,0.5,8.9,8.9,11.2c4.4,6.4,0.4,6,0.2,8.9c-4.2-6.4-1.9,5.3-7.6-2.5c1.8,7.9,6.8,2.5,8.6,9.1
		l-3.4,3.1c1.8,5.8,5.7,18,11.6,24.1c-0.4-7.4,4.3,2.3,6.3,0.2c-4,0.6-5.6-9-4-9.7c1.7,2.2,4.1,6.4,6.3,10.4
		c1.8,3.5,3.2,6.8,3.7,8.6c-0.2-1-0.5-2.7-0.8-4.5c-0.5-2.7-1-5.3-1-5.3c1.8,1.2,4.9,4.4,7.8,7.4c2.8,3,5.3,6,5.7,6
		c0,1.2,0.1,2.4,0.4,3.7c0.1,1.2,0.3,2.5,0.5,3.7c0.3,2.4,0.5,4.6-0.3,6l-5.4-6.3c0,0,0.5-0.9,0.9-1.8c0.4-0.9,0.8-1.8,0.8-1.8
		l-5-2.9c1,5.2,1.4,15.9-0.8,18.9c-0.8-2.7-1.8-5.8-3.1-9.1c-1.3-3.3-3.5-6.7-5.7-10.3c-4.7-7.1-11.1-14.6-19.4-21.9
		c0,0,0.8,0,1.5,0.7c-5-9.3-5.7-10-10.4-16.9l3,1.3c1.6-2.7-4.3-7.1-8.1-12.7c-2.3-0.9-6-3.8-5.8-7.1l2.3-0.3c0.9-2-2.7-7.8-7-14.1
		C-583.7,360.1-582.6,360.5-581.2,361z M-521.9,516c0.9,3.2,1.5,6.4,1.9,8.9c0.5,2.4,0.8,4.1,0.8,4.1c2,0.3,2.4-4,3.1-7.4
		c0.7-3.4,1.3-5.8,4.5-1.6c1.5,2.1,7.3,1,6.6,10.4c-0.5,0.2-1-0.6-1.3-1.4c1.2,4.1-0.1,4.9-0.4,9.5c-3.6,1.7-3.3-5.3-6.3-7.9
		c1.1,2.8,3,5.9,3,9.1l-1.5-0.6c0,0,0.5,2.4,1,4.7c0.2,1.2,0.5,2.4,0.6,3.3c0.1,0.9,0.2,1.5,0.2,1.5c1.5,1.9,1.6,0,1.4-2.3
		c-0.3-2.4-0.6-5.3,0.4-5.7l3,6c1.1,7,3.5,25.9-1.9,32.4c-1.8,8.2,2.5,4.5,4.9,6.6c3.2,4.9-0.9,9.6,0.5,14.4
		c1.5-0.1,2.2,1.3,2.9,2.8c0.7,1.5,1.5,3,3.3,3.1l-1.1,8c5.2,4.7,1.3-9.6,3.7-11.7c2.4-2.1,2.8-0.6,3,1.1c0.1,1.7-0.1,3.6,1.4,2.2
		c-0.3-6.2-3-6.7-3.8-9.7c-0.4-3.6,0.8-5.5,2.7-5.4c-2,10,3.9,5.4,3.1,13.6l-1.1,0.3c3.6,0.3,1,11.8,2.6,16.3
		c-4.5,8.7-5.2-7.4-6.4-7.1l0.8,10.8c-2.3-4.8-4.7-0.2-6.8-6.5c0.9,6.6-2.4,7.2-0.4,13.5c-2.6-3.7-3.7-1.5-4.7,1.5
		c-1,3.1-1.8,7.2-3.5,7.4c-0.6-6.8,4.4-18.6,5.7-19c-0.8-1.1,0.1-8.8,1.5-12l-4.8-5.2c-0.4,5.7,1.5,13.5-2.6,11.2l1.9,7.9
		c-6.3-8.3-6.1-7.8-8.7-15.1c-2.9,7.3-1.7,13.8-0.4,20.2c1.2,6.3,2.2,12.3-0.6,18.2l-0.4-1.9c-0.1,6-0.6,10.9-1.6,14.8
		c-1,3.9-2.4,6.9-3.9,9.3c-2.1,3.3-4.8,5.3-7.7,6.8c4.8-25,7.4-50.8,7.4-77.1c0-14.4-0.8-28.5-2.2-42.5c1-0.4,2-0.4,3-0.1l1.1,12.5
		c0.7-4.1,2.8-6.4,3.1-9.8c0,0,0,0,0,0c0,0,0,0,0,0c0-0.2,0-0.4,0-0.6c0.5,0.7,0.9,1.4,1.3,1.9c0.2,3.7,0.5,6,1.9,5.1l0.1-2.3
		c1.7,2.2,1.4,1.2,0-0.9c-0.2-2.4-1.3-2.2-2-2.5c-0.4-0.5-0.9-0.9-1.3-1.4c0-1.3-0.2-2.8-1-4.6c-1.3-2.1-1.7-1.6-3.3-1.5
		c-1.1-1.9-2.5-4-4.1-6.3c-1.3-10-3-19.9-5-29.6c2.4-2.9,1.1-7-0.8-11.6c-1.9-4.8-4.3-10.2-4.2-15.6l2,1.2
		c-2.3-2.4-3.4-7.3-4.1-12.7c-0.3-2.7-0.6-5.6-0.8-8.3c-0.3-2.7-0.8-5.3-1.2-7.6l0.8,0.1c3,5,5.4,5.5,6.2,2.5
		c1.4,1.7,2.5,4.6,3.8,6.1c0.4,3.1,3.7,11.5,0.6,13c-1.6-6.4-1.8-5.7-3.2-2.3c2.2,2.8,3.5,7.2,4.9,10.8c1.4,3.5,2.5,6.3,5,5.4
		c1.7,9-0.5,2.9-1.2,9.6c-1.4,1.1-3-0.9-4.6-2.9C-525.1,503.2-523.5,509.6-521.9,516z M-523.5,741c-1.1,4.3-2.9,9.2-2.8,12.3
		c-5.1,12.8-9.9,5.5-13.1,17.3l4.5-2.7c-1.8,5.1-2.9,8.8-4.7,12.4c-1.8,3.6-3.7,7.3-7.4,12c-4-0.6,3.5-4.3,3-7.7c0,0-1.5,0.8-3,1.6
		c-1.5,0.8-3,1.5-3,1.5c1.1-2.3,0.6-8.2,3.7-6.4c-1.6-0.9-2.3-5.8-4.4,1.4l0.1-6.2c-0.5,0.1-1,0.3-1.5,0.6c0.6-1.5,1.2-3.1,1.8-4.6
		c2.1-1.3,3.5-4.8,7.5-6.5c1.1,0.3,0,3.6-0.4,5.6c3.6-3.9,4.9-8.3,5.4-11.3c-4.1,6.9-3.9,2.3-7.4,2.6c0.9-4.8,4.6-11.8,4.9-14.7
		c3.8-5.5,8.8-9.6,9.9-4.4c0,0,0-0.1,0-0.1c0,0.6,0,1.3,0.2,2c0-0.9,0-1.6-0.2-2.3c0.3-4.4,3-8,1.4-13.2c0.5,9.1-7.3-2.3-6.4,9.3
		c-5.9,1.1,0.3-9.4,3.7-14.1c-0.1,3,2.2,1.2,3.4,2.3c0.9-8.5-3.8-5.8-6.8-0.6l0.3-9.8c-0.1,0.3-0.3,0.6-0.4,0.9
		c0.7-3.2,1.1-6.4,1.5-9.5c4.2-0.1,6.8,0.3,5.2,2.6l4-4.3l-1,8c4-2.3,2.8-8.4,3.9-12.4c3.4-4,0.2,11,3.5,17.4
		c0.9,4.6-3.9,12.1-5.7,12.1C-521.9,733.6-522.5,737-523.5,741z M-556.8,793.8c-0.6-0.9-1.3-0.8-2.1-0.3c0.1-0.3,0.3-0.6,0.4-0.9
		c0.7-0.3,1.3-0.3,1.7,0.5c1.5-2,2.2-3.2,2.3-4C-554.3,789.9-554.8,791.2-556.8,793.8z M-555.1,601.3c-6.9,2-5.3,7.3-5.7,14.9
		c-0.6,9.3-4.2,8.6-6.1,6.4c-2.3-2.7-4.3-5.5-6.6-8.2c-2.1-2.5-4.4-5-6.5-7.5c-12.5,3.5-19.7,9.8-22.7,5.5c-1.9-2.9-0.1-4.7,1.3-6.9
		c12.9-19.5,12.5-12.4-0.4-29.1c-0.8-1.1-1.5-2.3-2-3.6c-2.9-6.6,13.9,0.4,21.8,3.3c0.8-0.8,1.5-1.5,2.2-2.2
		c14.9-16.7,9.1-10.5,12.8-13.6c3.2-2.7,6.5,0.6,6.2,3.7c-0.1,1-0.4,1.9-0.6,2.9c-1.3,4.6-0.9,9.3-1.5,14.1c4.8,2.8,9.5,5,14.7,6
		c1.5,0.3,3.1,0.7,4.6,1.1c1.9,0.6,2.9,2,3.2,3.8c0.4,2-0.6,3.5-2.2,4.4c-1.9,1.1-3.8,1.9-5.8,2.7
		C-550.6,599.9-552.9,600.6-555.1,601.3z M-573.7,809.7c-1.7,0-4.5,1.3-8.1,3.3c4.1-6.5,7.9-13,11.6-19.7c0.1,1.6,0.1,3.4,0,5.2
		c0,6.2-0.4,13.4-0.8,16.6c-1.8,3.1-3.8,6.3-5.8,9c-2.1,2.7-4.2,4.9-5.9,6.4l0.8-2.2c5.2-6.7,7.9-11.6,9.1-14.5
		C-571.6,810.8-572.1,809.6-573.7,809.7z M-653.8,837.6l-5.6-6.3c40.1-42.4,69.8-94.8,84.6-153.1h8.7
		C-581.2,739-611.9,793.6-653.8,837.6z M-589.5,853.6c-0.6,2.5-7.8,10.9-8.5,7c6.2-4.8-1.8-10.7,7.2-12.3c-1.3-2.6-3.3-1.8-5.5-0.1
		c0.2-1.1,0.1-1.8-0.3-2.3c1.9-2,3.6-3.9,5.2-5.7c1.6-1.5,3.2-2.7,3.7-1.6C-584.9,841.7-590.5,849.1-589.5,853.6z M-627.2,878.5
		c-2,0.7-3.2,0.1-4.5-0.6c0.2-0.1,0.3-0.3,0.5-0.4c1.1,0.5,2.2,0.9,3.9,0.4L-627.2,878.5z M-668.7,917.8c-1.8,1.1-3.8,2.1-5.7,3.1
		l1.2-2l-1.4,0.8c-0.5-1-0.6-2.2-0.4-3.4c3.9-3.1,7.7-6.2,11.5-9.4C-665.8,910.1-672.7,915.9-668.7,917.8z M-688.6,656.2v-83.8
		l-34.2-153.5h34.2l17.1,107.2h1.2l18-107.2h33.6l-35.4,153.5v83.8H-688.6z M-660.7,907c2.4-2.4,5.7-5.4,5.1-6.5
		c0,0-0.6,0.3-1.4,0.8c5.4-4.7,10.6-9.6,15.7-14.6c2-1.5,3.9-2.4,6-2c-3.5,6.7-7.2,10.5-11.1,14.1c-4.1,3.5-8.4,6.8-13.8,12
		C-664.7,911.4-663.2,909.4-660.7,907z M-678,258.9c0,0.1-0.1,0.1-0.3,0.1c-0.1-0.1-0.1-0.1-0.2-0.2l-0.5-0.4
		C-678.7,258.6-678.4,258.8-678,258.9z M-678,259.5c8,2.7,11.2,11,20,12.8l-2.9-0.3c-7-2.9-10.3-10.2-18.1-12.2
		C-678.6,259.7-678.1,259.7-678,259.5z M-659.6,272.8c5.2,2.4,13.6,6.2,22.1,10.6c0.7,0.5,1.4,1,2.1,1.5l-0.2,0.2
		c-10.2-5.3-20.6-10-25.8-12.4L-659.6,272.8z M-688.1,230c0.1,0.1,0.1,0.2,0.2,0.3c-0.6-0.3-1.1-0.4-1.5-0.5
		C-689,229.9-688.6,229.9-688.1,230z M-689.7,229.8c-0.4,0-0.6,0.1-0.7,0.3l-0.3-0.4C-690.6,229.7-690.3,229.7-689.7,229.8z
		 M-683.3,243.1c-3.9-1.5-5.4,0.3-9.5-3.4c1-1.5,3.4,0.1,4.9-0.1c1.1-3.2-5.6-0.9-9.5-5.2c1.2,0.2,3.9,0.6,6.5,1
		c1.8,0.3,3.6,0.6,5,0.8c1.3,0.3,2.2,0.4,2.2,0.4c-0.9,2.1,10.5,5.7,8.1,8.6c-3.9-2.4-7.5-4.5-10.6-6.4c-0.1,0.9,2.3,2.8,5.1,4.9
		c2.9,2.1,6,4.6,7.8,6.2l-4-4.7c10.5,4,20.5,13.7,29.8,19c-2.7-1.1-2.9-0.5-2.2,0.7c-15.8-9.8-32.9-18-50.2-25
		C-694,241.8-688.2,243.2-683.3,243.1z M-687.8,254c-3.4-1-6.6-1.7-9.2-4.4c0.6,0.3,1.2,0.6,1.8,0.9c1.2,0.8,2.4,1.3,3.8,1.8
		C-690.2,252.8-689,253.4-687.8,254z M-710.9,243.5L-710.9,243.5L-710.9,243.5l1.1,0.5c1.6,0.7,3.1,1.4,3.1,1.4l-0.2-0.2
		c1.6,0.7,3.1,1.4,4.7,2.1c-0.1,0.2-0.2,0.4-0.3,0.6c6.1,3,7.7,3.1,12.3,7.1c-3.2,0.1-8.4-1.8-11.7-3.8l-2.4,2.8
		c-3.1,0.3-5-1.5-6.8-3.2c-1.9-1.6-3.8-3.3-6.9-2.9l2.8,3.8c-5.3-3.2-10.7-6.3-16.2-9.3c0.1,0,0.2,0,0.3,0.1
		c2.5,0.7,4.7,1.3,4.3-1.1c-6.4-2.2-7.6-3.3-11.8-2.8c-4-2.1-8-4.1-12.1-6c-0.7-0.5-1.3-1-1.9-1.5c-0.4,0-0.7,0.1-1,0.2
		c-5.7-2.6-11.4-5.2-17.2-7.6c10.9,2.6,21.5,5.7,32.1,9.4C-729.2,236.3-720,239.8-710.9,243.5z M-702.7,259.5
		c-2.9-1.9-5.7-3.7-8.6-5.5c0.4,0.1,0.9,0.1,1.2,0.1c2.2,1.4,4.4,2.8,6.6,4.2C-703.3,258.8-703,259.2-702.7,259.5z M-730.4,228.1
		c1.6,0.5,3.2,1.1,4.8,1.6c0.3-0.2,1.5-0.5,2.4-0.8c0.2,0.1,0.5,0.2,0.7,0.3c-0.4,0.4-2.7,0.8-3.1,1.1c-1.7-0.6-3.5-1.2-5.2-1.8
		C-730.7,228.4-730.5,228.3-730.4,228.1z M-719.4,232.4c-1.2-0.4-2.3-0.8-3.5-1.2C-721.7,231.6-720.6,232-719.4,232.4z
		 M-735.6,223.9c0.6,1,3.9,2.1,5.6,3.1c-0.1,0.2-0.2,0.3-0.3,0.4C-732.5,226.3-736.4,225-735.6,223.9z M-761.7,217.2
		c-0.1-2,0-4.3,8.2-1.9c2.2,4.4,14.8,8.4,17.4,11.5l-3.5-1.1c-8-2.5-15.5-4.6-22.9-6.4C-761.6,219.1-761.7,218.2-761.7,217.2z
		 M-823.7,199.9c2.1,2.3,5.1,2.7,8.6,3c3.5,0.3,7.5,0.2,11.2,2c0.9,1.1,3.1,2.7,1.2,3.9l-2.2-0.4c10.2,3.3,22.6,3.9,32.6,4.1
		l3.5,5.2c0.6,0.2,1.1,0.5,1.6,0.6c-10.4-2.3-20.7-4-32.3-5.2c-13.1-4.3-26.5-7.9-40.2-10.8C-834,201.7-828.3,201-823.7,199.9z
		 M-866.8,196.5c1.3-0.1,2.2-0.1,2.2-0.1c1.1,0.3,1.5,0.6,1.5,0.9l1.4-3.2c3.7,0.4,4.7,1.4,3.9,2.7c8.1-0.5,11.5-4.4,19.8-2.3
		c-4,2.4-6.6,4-12.5,3.2l9.6,1.3c-1.9,1-5.7,1.1-9.4,1.3c-4.3-0.8-8.6-1.5-13-2.2l0.1-0.3c-0.1,0.1-0.2,0.2-0.4,0.3
		c-2.6-0.4-5.2-0.7-7.7-1.1C-869.7,196.7-868.1,196.6-866.8,196.5z M-1255.3,334.8c1.4-1.5,2.3-2.2,2.9-2.5c-1.1,1-2.2,2-3.3,3
		C-1255.5,335.1-1255.5,335-1255.3,334.8z M-912,235.6c167.1,0,307.4,115,345.9,270.3h-8.7C-613.1,355.3-749.5,244-912,244
		c-162.4,0-298.9,111.3-337.2,261.8h-8.7C-1219.4,350.6-1079.1,235.6-912,235.6z M-732.5,467.2v140.3c0,10.6-0.7,19.1-2,25.5
		c-1.3,6.4-3.8,11.3-7.5,14.7c-3.7,3.4-8.8,5.7-15.2,6.8c-6.4,1.1-14.7,1.7-24.9,1.7h-49.3V418.9h49.3c10.2,0,18.5,0.6,24.9,1.7
		c6.4,1.1,11.5,3.4,15.2,6.8c3.7,3.4,6.2,8.3,7.5,14.6C-733.1,448.1-732.5,456.6-732.5,467.2z M-890.8,457.9
		c-0.4-2.4-1.1-4.3-2.1-5.7c-1-1.4-2.5-2.3-4.4-2.7c-1.9-0.4-4.5-0.6-7.7-0.6h-14.7v174.8l-0.9,0.1l0-0.1c-0.5,0-1.9,0.2-3.8,0.5
		h-0.3c-3.3,0.6-6.5,1.5-9.5,2.7l0,0c-3.4,1.4-6.4,3.1-9.1,5.1l0,0c-2.6,2-4.9,4.2-6.9,6.6c-1.4,1.7-2.7,3.6-4,5.7V418.9h49.3
		c10.2,0,18.5,0.6,24.9,1.7c6.4,1.1,11.5,3.4,15.2,6.8c3.7,3.4,6.2,8.3,7.5,14.6c1.3,6.3,2,14.8,2,25.4v140.3
		c0,10.6-0.7,19.1-2,25.5c-1.3,6.4-3.8,11.3-7.5,14.7c-3.7,3.4-8.8,5.7-15.2,6.8c-0.9,0.2-1.9,0.3-3,0.4c-0.2-2.9-0.6-5.5-1.2-7.8
		c-1-4-2.7-7.4-4.9-10.5l-0.2-0.2c-2.1-2.8-4.5-5.1-7.2-7c-1.8-1.2-3.6-2.3-5.6-3.1c1.9-0.1,3.5-0.3,4.7-0.7
		c1.9-0.5,3.4-1.4,4.4-2.7c1-1.3,1.7-3.2,2.1-5.7c0.4-2.5,0.6-5.8,0.6-9.8V467.2C-890.2,463.4-890.4,460.3-890.8,457.9z
		 M-989.7,624.9L-989.7,624.9c-2.3-0.3-4.4-0.4-6.4-0.4c-1.2,0-3.1,0.1-5.5,0.3c-2.1,0.2-3.9,0.4-5.4,0.7c-5.2,0.9-10,2.6-14.2,5.2
		c-0.8-0.4-1.7-0.8-2.6-1.1c-1.3-0.5-2.6-0.9-4-1.3l0.4,0c3,0,5.5-0.2,7.4-0.8c1.9-0.5,3.4-1.4,4.4-2.7c1-1.3,1.7-3.2,2.1-5.7
		c0.4-2.5,0.6-5.9,0.6-10.1V418.9h33.6V609c0,6.8-0.3,12.7-0.8,17.8c-1.1-0.3-2.2-0.6-3.4-0.9l0,0
		C-985.8,625.5-987.8,625.1-989.7,624.9z M-1068.1,630L-1068.1,630c-2.5,1-4.9,2.3-7.1,3.9c-1.2-6.4-1.8-14.7-1.8-24.9V418.9h34.5
		V609c0,4.2,0.2,7.6,0.6,10.1c0.4,2.5,1.2,4.4,2.3,5.7c0.7,0.8,1.6,1.5,2.6,2c-1.2-0.1-2.3-0.3-3.3-0.4c-2.6-0.3-4.8-0.4-6.5-0.5
		l-1.2-0.1h-1.1c-3.1,0-6.4,0.4-9.8,1.2C-1061.8,627.7-1064.9,628.7-1068.1,630z M-1266.4,341.5l1.2,2.6c0.8-0.8,1.7-1.7,2.5-2.5
		c0.2,0.1,0.3,0.1,0.5,0.2c-1,1-2,2-3,3l-1.5-3.1C-1266.6,341.6-1266.5,341.6-1266.4,341.5z M-1292.4,361c-1.4,1.3-1.9,2.6-1.9,3.8
		c-0.1-1.4,0.3-2.8,1.7-4.3C-1292.5,360.7-1292.4,360.9-1292.4,361z M-1297.6,372.7c3-0.8,3.8-1.9,3.9-3.3c0.1,1.6-0.5,2.9-3.5,3.8
		C-1297.4,373-1297.5,372.9-1297.6,372.7z M-1299.6,367.9c0.3,0.8,0.3,1.6,0.3,2.5c0-0.7-0.1-1.4-0.4-2.1
		C-1299.7,368.2-1299.7,368.1-1299.6,367.9z M-1300.6,379.3c0.1,1.1,0.4,2.1,1.3,2.8c0.6,1.1,1.9-0.3,3.4-1.7
		c1.3-1.7,2.6-3.6,4.1-5.5c0.1,0.1,0.1,0.2,0.2,0.3c-1.5,2.1-3,4-4.3,5.8c-1.4,1.5-2.7,2.8-3.4,1.7
		C-1300.4,382-1300.6,380.8-1300.6,379.3z M-1312.9,406.4c2.8-6.2,6.4-12.5,9.6-15.5l-0.6,2.1c-8.1,13.8-8.8,18.6-5.6,18.3
		c3.2-0.3,10.3-5.5,18.7-11.2c-5.7,8.5-11.9,17.3-17.2,26.6l2.4-0.3c-2.3,2.7-0.9,6.3-3.9,7c-0.4-0.1-1.6-5.3-2.2-11.2
		C-1312.4,416.3-1313,409.5-1312.9,406.4z M-1282.7,786.3c-1.5-1.8-3.2-3.4-4.6-5.1c-1.5-2-2.6-4-2.5-6.8c0,2.4,1.1,4.3,2.5,6.1
		c1.1,1.4,2.5,2.7,3.8,4.1C-1283.2,785.2-1283,785.7-1282.7,786.3z M-1306.5,737.9l2.2,8.4l-0.3-0.4l-2.1-8L-1306.5,737.9z
		 M-1305.4,748.1c0.3,3.7,4.2,7.9,4.5,13.2c3.6,3.6,8.5,20.5,11.3,11.3c-0.1,0.3-0.1,0.7-0.1,1c-2.8,8.4-7.6-8.1-11.2-11.6
		C-1301.1,756.3-1305.5,752-1305.4,748.1z M-1301.9,752.5l1.8-3.7c0,0.1,0.1,0.2,0.1,0.3l-1.8,3.7
		C-1301.7,752.7-1301.8,752.6-1301.9,752.5z M-1312,476.1c0-1.1-0.1-2.4-0.5-3.8c0,0,0.1,0,0.1,0C-1312,473.8-1311.9,475-1312,476.1
		z M-1315.3,491.1c0,0.3,0,0.6,0,1c1.7-6.4,3.6-12.7,5.6-18.9c0.1,0,0.1,0,0.2,0c-2.1,6.4-4,12.9-5.8,19.5
		C-1315.3,492.1-1315.3,491.6-1315.3,491.1z M-1317.8,502.4c-0.5,2-1,4-1.4,6c-0.8-0.3-1.9-0.4-3-0.5c0.1-0.2,0.3-0.4,0.4-0.6
		c1,0.1,1.9,0.3,2.6,0.5c0.4-1.9,0.9-3.7,1.3-5.6C-1317.8,502.3-1317.8,502.4-1317.8,502.4z M-1326.1,431.2c0.2,0.9,1.2,1.2,1.8,2
		c0.6-1.8,1.3-3.6,1.9-5.4c0.1-0.1,0.2-0.1,0.3-0.2c-0.7,2.1-1.5,4.1-2.2,6.2C-1325,432.8-1326.3,432.7-1326.1,431.2z M-1322.4,524
		c-0.9,5.1-1.8,10.2-2.5,15.3c-1.2-3.4-2.4-6.1-4.5-5.4c0-0.4,0-1,0-1.4c0,0,0,0,0,0c0,0.3,0,0.6,0,0.8c2-0.8,3.3,2,4.5,5.4
		c0.7-4.8,1.5-9.6,2.4-14.4C-1322.5,524.2-1322.4,524.1-1322.4,524z M-1329,607c-0.2-0.1-0.4-0.1-0.6-0.1c0-0.2,0.1-0.4,0.2-0.7
		c0.1,0,0.3,0,0.4,0.1C-1329,606.6-1329,606.8-1329,607z M-1351.2,487.1c-2-1.2-1.7-4.5-1-8.3c0.8-4.1,2.3-8.7,1.8-11.6
		c1.9-6.1,4.3-7.5,6.4-8.8c2.1-1.3,3.9-2.5,4.9-8.1l-4.2,2.8c1.2-4.9,2.1-8.4,3.5-11.9c1.4-3.5,2.9-7,6-11.8c4,0.3-3,4.3-2.1,7.4
		c0,0,1.4-0.8,2.8-1.6c1.4-0.8,2.8-1.6,2.8-1.6c-0.9,2.2,0.3,7.8-3,6.2c1.6,0.8,2.9,5.4,4.2-1.6l0.5,5.9c0.5-0.1,1-0.3,1.4-0.6
		c-0.4,1.5-0.9,3-1.3,4.5c-1.9,1.3-3.1,4.6-6.8,6.5c-1.1-0.2-0.4-3.4-0.2-5.3c-3.2,3.8-4,8.1-4.2,10.9c3.3-6.7,3.6-2.4,7.1-2.8
		c-0.4,4.7-3.6,11.3-3.6,14.1c-3.2,5.5-8.1,9.4-9.5,4.5c0.1,4.2-2.3,8-0.4,12.9c-1.2-8.6,7.4,1.9,5.6-9c5.6-1.3,0.7,8.9-2.7,13.4
		c0-2.8-2.3-1.1-3.5-2.1c-0.5,8,4.1,5.3,6.9,0.4c0,0,0,2.3,0.1,4.6c0.1,2.3,0.2,4.6,0.2,4.6c0.1-0.3,0.2-0.5,0.3-0.8
		c-0.3,3-0.7,6-1,9c-4.2,0.2-6.8-0.1-5.3-2.3l-3.8,4.1l0.7-7.5c-3.9,2.3-2.5,8-3.2,11.7c-1.5,1.9-1.8-0.7-2.1-4.5
		c-0.3-3.8-0.5-8.8-2.3-11.7C-1357.4,494.2-1353,487.2-1351.2,487.1z M-1345.5,708.1c-2.1-8.3,0.4-2.8,0.7-9.1
		c1.3-1.1,3,0.7,4.7,2.4c0,0-1.9-5.9-3.8-11.8c-1-2.9-1.8-5.9-2.4-8.2c-0.6-2.2-1-3.7-1-3.7c-4.1-0.4-0.4,16.5-6.9,9.1
		c-1.6-1.9-7.3-0.4-7.3-9.2c0.5-0.2,1,0.5,1.4,1.2c-1.4-3.7-0.2-4.6-0.2-8.9c3.5-1.9,3.7,4.7,6.8,6.9c-1.3-2.5-3.3-5.3-3.6-8.2
		l1.5,0.4c0,0-0.6-2.2-1.3-4.3c-0.3-1.1-0.6-2.2-0.9-3c-0.3-0.8-0.4-1.4-0.4-1.4c-1.6-1.6-1.6,0.1-1.2,2.3c0.4,2.2,1,4.9-0.1,5.3
		l-3.4-5.3c-0.9-3.2-2.1-9.3-2.6-15.4c-0.5-6.1,0.3-12.1,2.6-15.4c1.2-7.8-2.8-4.1-5.3-5.9c-3.4-4.5,0.5-9.1-1.1-13.6
		c-2.9,0.3-3-5.2-6.6-5.3l0.7-7.7c-5.4-4.3-0.9,9.2-3.2,11.3c-4.6,4.3-1.8-5.6-4.5-2.9c0.7,5.9,3.3,6.3,4.2,9.1
		c0.5,3.4-0.6,5.2-2.5,5.2c1.6-9.6-4.1-5-3.7-12.8l1.1-0.3c-3.6-0.1-1.5-11.3-3.3-15.5c4.1-8.5,5.6,6.9,6.7,6.6c0,0-0.3-2.6-0.6-5.2
		c-0.3-2.6-0.6-5.2-0.6-5.2c2.4,4.5,4.7,0,7,6c-1.3-6.2,2.3-6.9,0.1-12.9c5.3,6.9,4.4-8.2,7.8-8.7c1.1,6.5-4.1,18.1-5.2,18.2
		c0.9,0.8,0.4,8.3-0.9,11.4l5,4.7c0.1-5.4-2.1-12.8,2.1-10.7c0,0-0.6-1.8-1.1-3.7c-0.6-1.8-1.1-3.7-1.1-3.7
		c6.5,7.5,6.4,7.2,9.2,13.7c0,0.1,0,0.1-0.1,0.2l0.6,0.4c-0.1-0.2-0.2-0.5-0.3-0.7c2.5-6.8,0.9-12.8-0.3-18.6
		c-1.3-5.9-2.8-11.6,0.1-17.2l0.4,1.8c0-11.4,2.3-18.2,5.3-22.6c3-4.4,7-6.4,11.1-8.1c-0.1,3.3,0,6.5,0.1,9.4l-3.4,0.2
		c-0.7,3.7-0.9,7.3-0.6,10.7c0.4,3.4,1,6.8,1.7,10.1c1.2,6.6,2.9,13.2,1.8,20.9c-3-2.2-1-8.1-2.6-7.3c-1,9.4,7.6,8.2,3.4,17.3
		c-1.1-12.5-1.5,6.2-4.3-2.1c1,3.6,1.4,7.3,1.6,10.9c0.3,4.1,0.1,8.2-0.2,12.2c-0.5,7.9-1.3,15.2-0.3,20.6c1.8-2.9,3.7,4.1,4.4,4.3
		c0,2.8-2.1,2.2-2.5-0.1c-1.2,5.8-3.8,7.2-6.6,6.6l-1.8-11.6c-0.5,3.9-2.5,6.2-2.5,9.4c0,0,0,0,0,0c0,0,0,0,0,0
		c0,1.4,0.3,2.9,1.3,4.8c1.4,1.8,1.8,1.4,3.4,1.1c2.5,3.4,6.3,7.5,10.6,12.8l-0.7-0.2l3.1,12.1l-1.9-1.2c0,0,1,1.7,2.1,3.3
		c1,1.7,2.2,3.3,2.2,3.3c-3.6,0.6-1.1,2.6-3.7,2.7c-5.1,5.9,6.1,15.4,5.9,25.7l-2-1c4.8,4.3,4.9,18.2,6.5,26.8l-0.8-0.1
		c-3-4.6-5.2-5.1-6.1-2.2c-1.2-1.6-2.5-4.2-3.8-5.6c-0.5-2.9-4-10.6-1-12.1c1.8,5.9,2,5.2,3.3,2c-2.2-2.5-3.7-6.6-5.1-9.9
		C-1341.7,709.6-1343.1,707.2-1345.5,708.1z M-1309.4,839c-2.8-7.1,2.4-0.8,2.3-5c-7.3-2.7,0.5-8.4-7.5-11.2c-3.3-6.5,0.4-5.7,1-8.5
		c3.3,6.4,2.6-4.9,7.1,2.9c-0.7-7.7-6.3-2.9-7.3-9.2l3.7-2.7c-0.6-2.8-1.5-7.2-3.1-11.5c-1.4-4.4-3.2-8.9-5.9-11.9
		c-0.3,7-4-2.4-6.1-0.4c4-0.4,4.7,8.8,3,9.4c-2.5-4.1-7.4-14.4-8.1-18.2l1.2,9.2c-3.3-2.3-11.7-12.4-12.3-12.5
		c0.5-4.3-1.8-9.6-0.2-12.2l5.4,5.7l-1.9,3.3l4.7,2.7c-0.2-4.8-1-14.7,1.3-17.6c1.6,5.1,4.1,11.3,8.2,18.2
		c4.3,6.7,9.9,14.2,17.2,21.6c0,0-0.8,0-1.4-0.7c4.1,9,4.7,9.7,8.5,16.6l-2.8-1.4c-1.7,2.3,2.8,6.6,5.9,11.9c-0.1,0-0.1-0.1-0.2-0.1
		c-0.1,0.7,1.2,2,1.8,2.7c-0.2-0.5-0.5-1-0.7-1.5c2.2,1.2,5,3.9,4.5,6.8l-2.3,0.1c-1.1,1.8,1.8,7.6,5.1,13.9c-1-0.5-2.1-1-3.3-1.5
		c-2.2-0.9-4.2-2.3-5.8-4.4c0.9,1.2,1.7,2.8,1.8,5.4l-12.6-8c2.1,6.3,8.6,4,11.2,11.6C-1300.9,843.7-1302.6,845.2-1309.4,839z
		 M-1283.6,903.7c-1-0.3-2-0.8-3.1-1.3c-6.3-6.4-12.5-13-18.5-19.7c2.3,1.5,4.3,1.4,6.2,4.8c0,0.7-0.8,0.8-0.8,0.8
		c5.4,3.8,8.6-3.2,14.6,5.5C-1276.6,904.7-1279.1,905.3-1283.6,903.7z M-1266.6,921.9c0.3,0,0.5,0,0.7,0c1,0.9,1.9,1.7,2.9,2.6
		c0.6,0.7,1.2,1.4,1.9,2.1l2.1,2.1C-1261.5,926.5-1264.1,924.2-1266.6,921.9z M-1274.3,622.2c-3.2-1.2-2.9-3.8-3-6.4
		c-1-23.3,2.8-17.4-17.4-23.4c-1.3-0.4-2.5-1-3.7-1.7c-6.2-3.7,11.6-7.8,19.7-10.1c0.2-1.2,0.4-2.1,0.5-3
		c2.3-22.3,1.2-13.8,2.4-18.6c1-4,5.6-3.3,7.2-0.7c0.5,0.8,0.8,1.8,1.2,2.7c1.6,4.5,4.7,8.1,7,12.3c5.5-0.5,10.6-1.5,15.4-3.8
		c1.4-0.7,2.9-1.3,4.3-1.8c1.9-0.7,3.5,0,4.9,1.2c1.5,1.4,1.6,3.2,0.8,4.9c-0.9,1.9-2,3.8-3.1,5.6c-1.3,2-2.7,3.9-4.1,5.7
		c-4.4,5.7,0,9,4.1,15.5c5,7.8,1.6,9.5-1.2,8.8c-3.4-0.8-6.8-1.9-10.2-2.8c-3.2-0.8-6.5-1.5-9.7-2.2
		C-1267.2,614.6-1269.4,624-1274.3,622.2z M-1248.2,867.4l-1.4-0.6l-2.5-7c6.6,0.8,7.7,6.7,12,7.8c-0.7-9.9-10.6-6.6-15.9-15.2
		c0.3-5.1,2.2-3.3,4.7-0.7c2.6,2.5,5.7,6,7.6,4.6c-2.1-0.9-3.2-6.7-1.6-6.9c3.7,8.5,5.6,2.9,9.2,12.7c-4.1-3.2-0.8,1.5-3.1,2
		c1.1,0.1,3.1,2,5.3,4.7c1.1,1.2,2.3,2.6,3.4,4.1l0.7,4.4c0,0-1.3-0.8-3.3-2.1c-2-1.2-4.7-3-7.3-4.8c-5.2-3.7-10.5-7.4-10.5-7.4
		C-1250,864.6-1249.1,866-1248.2,867.4z M-1252,835.6c0.7,2.1,2,4.3,4.5,7c0.3,0.3,0.6,0.3,0.9,0.3c0.1,0.2,0.3,0.3,0.4,0.5
		c-0.4,0.2-0.9,0.2-1.3-0.2c-3-3.1-4.2-5.7-4.8-8.1C-1252.2,835.3-1252.1,835.4-1252,835.6z M-1226.3,870.4c1.6,2,3.2,4.1,4.8,6.1
		l-5.3-3.2c-1-2-2.5-4.3-3.1-6.4c-7.6-4.4-6.7-15.1-13.9-17.7c-2.4-3.3-2-4-0.9-3.9c5.1,7.4,10.4,14.7,15.9,21.9
		C-1229.4,868.3-1228.1,869.1-1226.3,870.4z M-1241.3,875.9c-0.6-0.6-1.1-1.4-1.7-2.3c0.3,0.3,0.7,0.6,1,0.9
		c0.2,0.3,0.4,0.5,0.7,0.8c0.6,0.5,1.1,0.9,1.8,1.3c0.6,0.5,1.3,1,1.9,1.4C-1238.9,877.5-1240.2,876.9-1241.3,875.9z M-1212.6,907.8
		c-1.1-5.9-6-2.2-7.9-8.5l1.5,0.2c-1.2-0.4-2.1-0.9-2.7-1.4c0.4,0.1,0.6,0,0.7-0.3c-0.7-0.4-1.4-0.8-2.1-1.1c-0.8-1.1-1.3-2.2-3.6-3
		c0.7-0.2,0.7-0.9,0.7-1.6c-6.6-5.8,0,3.5-8.1-1.3c-0.4-0.5-0.6-1-0.8-1.4c1.1,1,2.1,1.7,3,1.8c-1.2-0.4-2.4-2.1-3.6-3.9
		c0-2.7,4.2-2.8,4.3-4.8c1.8,1.3,3.6,2.7,5.3,4.2c2.6,2.3,4.8,5,6.5,8.8c-2.4-1.3-1.5,1.2-1.7,2.3c4.6,2.8,8.8,7.2,12.5,8
		c0,0,1.3,1.4,2.6,2.9C-1208.9,907.3-1211.5,904.4-1212.6,907.8z M-1197.5,923.8c0.1-0.1,0-0.3-0.1-0.6c0.5,0.4,1,0.7,1.5,1.1
		L-1197.5,923.8z M-1194.2,926.7c-0.4-0.6-0.4-1-0.3-1.2c0,0,0,0,0,0c0.1,0.2,0.1,0.4,0.3,0.6c1,0.7,1.9,1.2,2.7,1.5
		c0.5,0.3,1,0.7,1.5,1C-1191.2,928.3-1192.5,927.9-1194.2,926.7z M-1175.6,831.9c-39.1-43-67.8-95.5-82.3-153.7h8.7
		c14.3,56.1,42.2,106.8,80,148.2L-1175.6,831.9z M-1148.8,656.2h-49.3V418.9h49.3c10.2,0,18.5,0.6,24.9,1.7
		c6.4,1.1,11.5,3.4,15.2,6.8c3.7,3.4,6.2,8.3,7.5,14.6c1.3,6.3,2,14.8,2,25.4v17.7c0,6.2-0.8,11.3-2.3,15.3c-1.5,4-3.3,7.2-5.4,9.6
		c-2.1,2.4-4.4,4.2-6.9,5.4c-2.5,1.2-4.8,1.9-6.8,2.1v1.2c3.2,0.8,6.1,1.9,8.7,3.3c2.6,1.4,4.9,3.6,6.8,6.5
		c1.9,2.9,3.4,6.7,4.4,11.3c1,4.6,1.5,10.5,1.5,17.7v50.2c0,10.6-0.7,19.1-2,25.5c-1.3,6.4-3.8,11.3-7.5,14.7
		c-3.7,3.4-8.8,5.7-15.2,6.8C-1130.3,655.6-1138.6,656.2-1148.8,656.2z M-1120.4,975.4c0.2-0.2,0.3-0.3,0.5-0.5
		c0.6,0.1,1.2,0.1,1.5,0c0.1,0,0.3,0.1,0.4,0.1C-1118.2,975.8-1119.2,975.8-1120.4,975.4z M-1101,858.7c-0.7-0.5-1-1.2-0.9-1.9
		c1.2-1.5,2.2-2.8,2.9-3.7l0.2-0.3c1.3-1.7,0.8-3.3-1.3-4.9c-1.2-0.9-2.5-0.6-4.1,0.8c-0.6,0.5-2.1,2.3-4.5,5.5l-0.4,0.3
		c-1.1,1.5-1.2,3.1-0.1,4.7c0.3,0.6,1.5,1.8,3.6,3.8c1.1,1.4,1.6,2.8,1.5,4.5c-0.4,2.2-1.3,4.3-2.7,6.1l-0.9,1.2
		c-3.7,5-7,7.5-10,7.6c-3.3,0-5.9-0.7-7.8-2.1l-0.1-0.1c-2.7-2-3.6-4.3-2.8-7c0.4-0.9,0.8-1.6,1.1-2c2.6-3.5,4.3-5,4.9-4.5
		c0.1-0.1,0.4,0,1,0.3l0.6,0.5c0.6,0.4,0.8,0.9,0.8,1.6c-0.5,0.6-1.5,1.9-3.1,3.8c-0.8,1.7-0.7,2.9,0.4,3.7c1.8,1.3,3.9,1.5,6.2,0.5
		c1.2-0.8,2.9-2.5,5-5.4l0.3-0.4c1.5-2,1.7-3.7,0.7-5.3c-0.3-0.5-1.5-1.8-3.5-3.9c-1.4-2.3-1.8-3.8-1.3-4.5
		c-0.1-1.3,1.1-3.7,3.6-7.2l1.8-2.5c4.2-5.6,8.4-6.9,12.7-3.7l0.4,0.3c3,2.2,4,5.3,2.8,9.3c-0.4,0.8-0.9,1.5-1.2,2l-1.3,1.7
		C-1097.9,859.6-1099.4,859.9-1101,858.7z M-1094.5,966l-1.7-0.9l0.8-0.2l0.9,0.5c0.7,0.3,1.4,0.6,2.1,0.8c0.9,0.4,1.8,0.8,2.7,1.3
		C-1091.2,967.1-1092.8,966.7-1094.5,966z M-1065.2,879.7c-0.8,1.6-1.5,2.9-2.1,3.8l-4.3,7.4c-5,8.6-9.1,13.5-12.3,14.5
		c-1.3,0.2-3.4-0.5-6.2-2.2c-2.6-1.5-3.6-3.4-3.2-5.8c0.5-2.3,2.6-6.7,6.3-13.1c1.3-2.5,3.4-6.2,6.3-11.1c2.5-3.9,4-5.7,4.4-5.5
		c0.8,0,1.4,0.2,2,0.5c1.4,1,1.9,1.7,1.6,2.2c-4.4,6.6-7.3,10.9-8.4,12.9c-4.4,7.6-6.6,12.2-6.6,13.9c0.1,0.7,0.4,1.3,0.9,1.6
		l0.1,0.1c1.9,1.1,3.5,0.6,4.7-1.5c1.7-2.3,3.5-5.1,5.3-8.3l3.5-6c1.3-2.3,3-5.3,5-9c0.3-0.5,1.2-0.4,2.7,0.4l1.2,0.7
		C-1063.7,875.6-1063.9,877.1-1065.2,879.7z M-1035.8,902.6l-0.5,1c-2.3,4.9-6.8,7.1-13.5,6.4c-0.3,0-0.5,0-0.6,0.1
		c-1,2.1-2.5,6.1-4.5,12.3c-0.6,0.3-1.5,0.2-2.6-0.3c-1.4-0.6-1.8-1.6-1.2-2.8c2.6-7.4,6.1-16,10.3-25.9l0.4-0.8
		c2.5-5.4,4.1-8,4.7-7.7c1,0.2,1.8,0.5,2.4,0.7c2.5,1.6,4.2,3,5.1,4.3C-1033.6,893.7-1033.6,897.9-1035.8,902.6z M-1039.2,816.9
		c-4.5,1.6-9.9,2.5-16.1,2.8h-1.8c-5.7,0-11.3-1.3-16.9-3.8c-6.2-2.9-11.2-6.6-15.1-11.2c-3.9-4.6-6.2-9.4-7.1-14.5
		c-0.6-4-1-8-1-12.2c0-1.1,0-2.3,0.1-3.4c0.2-5.5,1.5-10.7,3.9-15.7c2.4-5,5.5-9,9.4-12c3.9-3,7.8-5,11.7-5.9
		c2.6-0.6,5.4-0.9,8.4-0.9c1.6,0,3.3,0.1,5,0.2c5,0.5,9.1,2.2,12.3,4.9c3.2,2.8,5.6,5.9,7.2,9.5c1.6,3.6,2.4,8,2.6,13.2v1.3
		c0,4.6-0.7,8-2.1,10.4c-1.5,2.6-3.2,3.8-5.2,3.8h-0.1c-1.9-0.1-3.5-0.5-4.7-1.3c-1.2-0.8-1.9-1.8-2.1-2.9c-0.1-0.4-0.1-0.9-0.1-1.5
		c0-1.4,0.2-3.6,0.6-6.7c0.2-1.9,0.3-3.6,0.3-5c0-1.8-0.2-3.3-0.5-4.4c-0.7-2-1.9-3.7-3.6-5.4c-1.7-1.6-5.3-2.9-10.6-3.8h-0.9
		c-2.5,0-4.9,0.6-7.2,1.7c-2.6,1.3-4.7,3.2-6.5,5.9c-1.8,2.6-3.1,5.9-4.1,9.8c-0.7,3.3-1.1,6.6-1.1,9.8v1.6
		c0.2,3.7,1.3,7.5,3.5,11.3c2.1,3.8,4.7,6.7,7.6,8.6c2.9,2,6.2,3.2,9.9,3.8c2.2,0.4,4.5,0.6,6.7,0.6c1.4,0,2.8-0.1,4.2-0.2
		c3.7-0.4,7.8-1.7,12.4-4c4.6-2.3,8.7-4.9,12.2-7.8c3.5-2.9,6.4-6.9,8.8-12c2.3-5.1,3.9-10.3,4.8-15.8c0.6-3.4,0.9-6.8,0.9-10
		c0-1.9-0.1-3.8-0.3-5.6c-0.5-4.9-3.3-16.2-8.4-33.8c-5.5,1-10.4,1.5-14.5,1.5c-1,0-2,0-2.9-0.1c-4.7-0.3-9.4-1.3-14.1-3.1
		c-4.7-1.8-9.5-4.8-14.5-8.9c-4.9-4.2-8.1-9-9.5-14.6c-0.9-3.6-1.3-7.1-1.3-10.5c0-1.9,0.1-3.7,0.3-5.4c0.8-5.1,2.8-10.3,6.3-15.7
		c1.9-3.1,4.1-5.5,6.4-7.5c0,0,0,0,0,0c0.1-0.1,0.3-0.2,0.4-0.3c0.2-0.2,0.4-0.3,0.6-0.5c0.3-0.2,0.6-0.4,0.9-0.6
		c0.2-0.1,0.4-0.3,0.6-0.4c0.3-0.2,0.7-0.4,1-0.6c0.2-0.1,0.3-0.2,0.5-0.3c0.5-0.3,1-0.5,1.6-0.8c4.1-1.7,7.9-2.6,11.3-2.6h1.1
		c3.7,0.2,7.7,0.6,11.9,1.1c4.2,0.5,6.8,1.6,8.1,3.1c0.9,1.1,1.3,2.3,1.3,3.5c0,0.3-0.1,0.8-0.2,1.2c-0.5,1.6-1.6,2.6-3.4,3.1
		c-1,0.3-2,0.4-3,0.4c-0.9,0-1.8-0.1-2.7-0.3c-1.7-0.4-3.8-0.6-6.3-0.6h-1.2c-0.7,0-1.3,0.1-2,0.1c-0.2,0-0.3,0-0.5,0
		c-0.6,0.1-1.2,0.1-1.8,0.2c0,0-0.1,0-0.1,0c-1.4,0.2-2.7,0.5-4.1,0.9c-2.6,0.8-5,2.3-7.3,4.5c-2.3,2.2-4,4.8-5.3,7.6
		c-1.3,2.8-1.9,5.9-2,9.1v0.6c0,3,0.6,5.7,1.8,8.3c1.3,2.7,3.1,5.1,5.5,7.3c2.4,2.2,5.4,3.9,9.1,5.4c3.7,1.4,7.1,2.3,10.2,2.8
		c0.6,0.1,1.3,0.1,2.1,0.1c3.1,0,7.6-0.7,13.3-2.1c-0.6-4.3-1-9.3-1.2-14.9c-0.1-1-0.1-2-0.1-3c0-4.6,0.5-9.1,1.3-13.8
		c0.7-3.9,2.1-7.7,4-11.3c0,0,0,0,0,0c0.1-0.1,0.1-0.2,0.2-0.3c0.3-0.5,0.6-1.1,0.9-1.6c0.1-0.2,0.3-0.4,0.4-0.7
		c0.4-0.7,0.9-1.5,1.4-2.2c3.5-5.2,8.1-8.2,13.9-9.2c2.7-0.5,5.2-0.7,7.6-0.7c2.9,0,5.5,0.3,8.1,0.9c0.5,0.1,1,0.3,1.5,0.4
		c0.2,0,0.3,0.1,0.5,0.1c0.2,0.1,0.4,0.1,0.6,0.2c0,0,0,0,0,0c3.5,1,6.5,2.3,8.8,3.9c2.9,2,5.2,5.4,6.8,10.4c1.2,3.6,1.8,7,1.8,10.1
		c0,1.3-0.1,2.5-0.3,3.8c-0.7,4.2-2,8.4-3.9,12.5c-2,4.1-5.5,8.3-10.7,12.7c-5.2,4.3-13.5,8.9-25.2,13.7c4.3,17.3,6.9,29,7.7,35.1
		c0.4,2.7,0.6,5.4,0.6,8c0,3.4-0.3,6.7-0.9,10.1c-1,6-2.1,11.1-3.4,15.2c-1.2,4.2-3.3,8.7-6.5,13.6c-3.2,4.9-7.6,9.3-13.3,13.4
		C-1029.6,812.5-1034.8,815.4-1039.2,816.9z M-999.1,904.3l-0.5,1.4c-0.4,1.2-1,1.7-1.8,1.4l-2.1-0.7c-1.3-0.4-3-0.9-5.3-1.4
		l-0.2,0.8c-0.5,1.7-1.4,4.1-2.5,7.2l7.3,1.8c0.8,0.3,0.9,1.3,0.3,3l-0.2,0.6c-0.3,0.9-1,1.2-2.1,0.9c-0.6-0.1-2.9-0.7-7.1-1.7
		l-4.3,13.8c1.5,0.5,4.5,1.3,8.9,2.4c0.7,0.2,0.9,0.9,0.5,2.1l-0.1,0.4c-0.6,1.7-1.4,2.4-2.7,2l-10.4-2.5l-0.2-0.1
		c-1.6-0.5-2.2-1.2-2-2c1.4-5.3,3.1-11,5.1-17l0.6-1.8c3.7-10.7,5.9-15.9,6.7-15.7c0.6-0.2,1.2-0.2,1.8,0c1.2,0.4,3.9,1.3,8.2,2.8
		C-999.5,902.5-998.8,903.2-999.1,904.3z M-977,930.5c0,0-0.5,0-1.5-0.1l-1.7,16.7c-0.6,0.3-1.3,0.4-2.2,0.2l-0.2,0
		c-1.4-0.2-2.1-0.8-1.9-1.7c1.2-11.6,2.6-24,4.4-37c0.2-1.3,0.7-2,1.5-1.8c2.1,0.1,3.9,0.3,5.4,0.5c3,0.5,5.3,2.4,6.9,5.7
		c0.6,2.3,0.7,4.7,0.3,7.2c-0.7,4.2-2.7,7.2-6,9.1c1.3,6.6,2.6,12.2,4.1,17l0,0.2c-0.1,0.8-1.5,1.3-4.1,1.6c-0.5-0.1-1.1-2-1.8-5.7
		c-1.8-7.7-2.8-11.7-3-12L-977,930.5z M-974.7,1004c1.1-0.7,2.6-1.2,4.3-1.1c1.3,1,2.3,1.6,2.9,1.9
		C-969.9,1004.6-972.3,1004.3-974.7,1004z M-962.3,1005.4c-1.4-0.1-2.7-0.3-4.1-0.4c0.9-0.8-1-5.4,7.8-2.7
		C-959.9,1003.4-961.2,1004.5-962.3,1005.4z M-934,931.1c-0.1,1.2-1.3,1.7-3.7,1.5c-0.9,0-3.9-0.2-8.7-0.5c-1.2-0.1-1.9-0.9-2.1-2.5
		l0.1-0.9c0.1-1.2,1-1.7,2.7-1.6l2.9,0.2c3.2,0.3,5.5,0.4,6.9,0.3c1.2,0.1,1.8,1.1,1.8,3.1L-934,931.1z M-923.1,1007.3
		c-2.4,0-4.9,0-7.3-0.1c2.6-0.4,5.2-0.5,7.8-0.4C-922.8,1007-922.9,1007.1-923.1,1007.3z M-911.3,926.9c3.3,0,5.8-0.1,7.6-0.2l0.3,0
		c0.4,0,0.6,0.8,0.7,2.3c0,1.6-0.1,2.4-0.4,2.4l-7.3,0.7c0.4,5.5,0.6,9.7,0.8,12.7l0.2,4.6c0.1,1.3-0.3,1.9-1,2l-3.1,0.2
		c-0.8,0-1.2-0.8-1.3-2.4l-0.5-9.9c-0.3-5.4-1-13.7-2.2-25c0-0.8,1.1-1.4,3.3-1.7c1.6-0.1,5.4,0.1,11.6,0.6c0.2,0.4,0.4,0.7,0.4,0.9
		c0.1,2.4-0.1,3.6-0.7,3.7c-0.8,0-3.8,0.1-9.1,0.1L-911.3,926.9z M-900,1006.7c0.8-0.1,1.5-0.1,2.1-0.1
		C-898.6,1006.6-899.3,1006.7-900,1006.7z M-879.4,1005.2c7.4-4.4,11.7-3.5,15.7-1.7C-868.9,1004.2-874.1,1004.7-879.4,1005.2z
		 M-862.9,940.4c0,1.3-0.6,2.9-1.7,4.6c-1.4,1.6-3.2,2.6-5.4,2.9c-3,0.5-5.6-2.8-7.8-10c-0.9-3-1.5-6-2-9l-0.4-2.6
		c-1.3-8.2-0.7-13.4,1.7-15.8c0.9-0.7,2.1-1.3,3.6-1.7c3.5-0.6,6.3,1.9,8.4,7.3c1.1,3.8,2,7.4,2.6,11
		C-862.8,935.9-862.5,940.4-862.9,940.4z M-834.2,999c-0.4-0.2-0.8-0.5-1.3-0.8c-0.9,0.4-1.6,0.9-2.2,1.4c-1.8,0.3-3.6,0.6-5.4,0.9
		c3.4-2.4,7.7-4.8,8.6-6.9c3.6-1.2,7.4,1.4,9.4,3.6C-828.1,997.8-831.2,998.4-834.2,999z M-824.9,931.3c0.1,1.3-0.3,2.9-1.2,4.8
		c-1.2,1.7-2.9,2.9-5.1,3.5c-3,0.8-5.9-2.2-8.8-9.1c-1.2-2.9-2.2-5.8-2.9-8.7l-0.7-2.5c-2.1-8-2.1-13.3,0.1-15.9
		c0.8-0.8,1.9-1.5,3.4-2.1c3.4-0.9,6.4,1.2,9.1,6.4c1.5,3.6,2.8,7.2,3.7,10.6C-825.3,926.9-824.5,931.2-824.9,931.3z M-828.1,898.6
		c-0.5,0-1-0.1-1.5-0.2c-2.2-0.6-3.3-2.3-3.4-4.9c-0.1,0-0.1,0-0.1-0.1c0-3.1,5.7-31.1,17.1-84.1c5.7-26.5,10.4-46.5,14-60.1
		c-2.2,1.5-4.6,3-7.3,4.7c-1.1,11.1-2.4,19.5-3.8,25.3c-1.4,5.8-3.6,11-6.4,15.6c-2.9,4.6-7,8.8-12.3,12.7
		c-5.3,3.9-11.8,5.9-19.4,5.9c-7.7,0-13.7-1.1-17.9-3.3c-4.2-2.2-7.5-5.4-9.9-9.8c-0.8-1.5-1.5-3.1-2.1-4.9
		c-1.3,1.7-2.8,3.6-4.4,5.7c-5.5,7.2-10.8,12.1-15.8,15c-4.3,2.5-8.3,3.7-12.2,3.7c-0.7,0-1.5,0-2.1-0.1c-4.6-0.5-8-1.9-10.4-4.2
		c-2.4-2.3-4.1-5.2-5.1-8.6c-1-3.5-1.6-7.6-1.6-12.4v-0.3c0-4.8,1.7-12.4,5-23c3.4-10.7,5.5-17.2,6.3-19.7c0.4-1.3,0.6-2.6,0.6-3.7
		c0-1-0.2-1.9-0.5-2.7c-0.6-1.8-2.4-2.8-5.2-3h-0.7c-2.7,0-5.7,1.1-9.2,3.5c-3.7,2.6-11.2,10-22.3,22.3c-8.1,30.7-12.4,47.2-13,49.1
		c-0.6,2-2.1,3-4.5,3c-2.5,0-4.2-0.6-5-1.8c-0.7-0.9-1-2.2-1-3.8c0-0.4,0-1,0.1-1.6c0.2-2.3,6.2-28.3,17.9-78
		c-6.6,1.4-11.7,2.6-15.6,3.4c-3.8,0.8-6.2,0.7-7.1-0.4c-0.9-1.1-1.5-2.5-1.5-4.2c-0.1-1.8,1.2-3.1,3.9-4.1c2.6-0.9,4.7-1.7,6.3-2.3
		c1.5-0.6,7.1-2.4,16.6-5.4c13.4-39.7,21.2-61.5,23.4-65.2c0,0,0-0.1,0.1-0.1h0c0.1-0.2,0.2-0.4,0.3-0.5c0.2-0.3,0.3-0.5,0.5-0.8
		c0.1-0.2,0.2-0.4,0.4-0.5c0.2-0.2,0.3-0.5,0.5-0.7c0.1-0.2,0.3-0.3,0.4-0.5c0.2-0.2,0.3-0.4,0.5-0.7c0.1-0.2,0.3-0.4,0.4-0.5
		c0.1-0.2,0.3-0.4,0.4-0.6c0.2-0.2,0.3-0.4,0.5-0.6c0.1-0.2,0.3-0.3,0.4-0.5c0.2-0.2,0.4-0.4,0.6-0.6c0.1-0.1,0.2-0.2,0.3-0.4
		c0.2-0.2,0.4-0.4,0.7-0.6c0.1-0.1,0.2-0.2,0.3-0.2c0.3-0.3,0.6-0.5,0.9-0.8c2.5-2,5.8-3.3,9.8-3.9c1.7-0.3,3.3-0.4,4.8-0.4
		c2,0,3.7,0.2,5.2,0.6c2.7,0.9,4.8,2.4,6.3,4.4c0.2,0.2,0.3,0.5,0.5,0.8c0.1,0.1,0.1,0.2,0.2,0.3c0.1,0.2,0.2,0.4,0.3,0.6
		c0.1,0.1,0.1,0.2,0.2,0.4c0.1,0.2,0.2,0.4,0.2,0.6c0.1,0.1,0.1,0.3,0.1,0.4c0.1,0.2,0.1,0.4,0.2,0.6c0,0.2,0.1,0.3,0.1,0.5
		c0.1,0.2,0.1,0.4,0.1,0.6c0,0.2,0.1,0.3,0.1,0.5c0,0.2,0.1,0.5,0.1,0.7c0,0.2,0,0.3,0.1,0.5c0,0.3,0.1,0.6,0.1,0.8
		c0,0.2,0,0.3,0,0.5c0,0,0,0.1,0,0.1h0c0,0.4,0,0.8,0.1,1.2v0.5c0,3.9-1,9.2-2.8,15.8c-2,6.9-5.3,13.7-9.7,20.4
		c-4.4,6.7-9.7,13.2-15.9,19.6c-6.1,6.3-12.8,12.7-20.2,19l-4.1,17.2c11.4-12,19-18.7,23-19.8c4-1.2,7.6-1.8,10.7-1.8s6,0.8,8.5,2.5
		c2.6,1.7,4.3,5.1,5.2,10.2c0.1,0.8,0.1,1.7,0.1,2.7c0,5.4-1.9,13.5-5.7,24.4c-4.2,12-6.3,20.1-6.3,24.4v1c0.3,4.1,1.2,7,2.5,8.9
		c1.3,1.9,3.4,2.9,6.3,3h0.1c2.8,0,6.2-1.6,10.1-4.9c3.9-3.4,7.1-7.3,9.7-11.9c2.6-4.6,4.5-7.7,5.8-9.4c0.6-0.8,1.3-1.6,2-2.1
		c0-3.8,0.3-7.2,0.8-10.3c0.7-4.8,2-9.9,4.1-15.3c2-5.4,6-11,12-16.6c6-5.7,10.7-9.4,14.3-11.2c2.8-1.3,5.2-2,6.9-2
		c0.5,0,0.9,0,1.3,0.1c1.8,0.5,2.7,2,2.8,4.7c5-2.6,8.6-4.1,11-4.4c1-0.2,2.1-0.2,3-0.2c1.2,0,2.3,0.1,3.4,0.2
		c2,0.4,4.1,1.8,6.3,4.3c2.2,2.5,4.5,7.3,6.8,14.3c5-2.8,9.1-5.8,12.2-9.2c3.1-3.4,5.3-5.3,6.5-5.8c0.7-0.2,1.3-0.3,2-0.3
		c0.5,0,1.1,0.1,1.7,0.2c1.2,0.4,2,1.1,2.4,2.2c0.5,1.1,0.7,2.4,0.7,3.8c0,0.7-0.4,1.6-1.1,2.7c-0.2,1.5-0.6,3.3-1.1,5.3
		c7.4-7.2,14.1-11.1,20.2-11.8c1.5-0.2,2.9-0.2,4.4-0.2c4.2,0,7.9,0.7,11.1,2.1c4.2,1.9,7.5,6,9.8,12.3c1.3,3.6,1.9,8.1,1.9,13.7
		c0,4.2-0.3,8.9-1.1,14.3c-1.7,12.3-5.3,22.4-10.9,30.2c9.9-5.3,16.5-10.9,19.8-16.7c3.1-5.2,5.8-7.8,8.1-7.8h0.8
		c2.4,0.7,3.7,2.3,3.7,4.9v0.5c-0.2,3-3.2,8.4-9,16.1c-5.9,7.8-12.9,13.4-21.2,17c-8.3,3.6-17.2,5.5-26.8,5.7
		c-0.3,0.1-0.6,0.1-0.9,0.1c-9.3,0-17.9-3.7-25.5-11.2c-11.7,55.9-18.5,84.9-20.5,87.1C-824.9,897.7-826.5,898.6-828.1,898.6z
		 M-755.5,903.4l-0.5-1c-2-4.2-3.6-6.6-4.9-7c-5.6-0.1-9.5-2.5-11.7-7.1l-1.1-2.3c-1.8-3.7-1.3-7,1.4-9.7c1.1-0.8,2.2-1.4,3.2-1.9
		c2.1-1,4.1-0.6,6.1,1.1c1.1,1.2,2.4,3.3,4.1,6.2c0.8,1.6,0.6,2.7-0.7,3.3c-1.8,0.7-2.8,0.8-3.1,0.2c-0.2-0.4-0.4-0.8-0.5-1.2
		c-1.5-3.2-3-4.5-4.3-3.8l-0.5,0.2c-1.4,0.7-1.6,2.1-0.6,4.3l0.5,1.1c1.7,3.1,4.7,4.5,9.2,4.3c2.1,0.5,4.2,2.7,6.1,6.7
		c0.2,0.4,0.4,0.8,0.6,1.2l0.4,0.8c2.2,4.6,2.9,7.7,2.2,9.3c-0.9,1.6-2.3,2.8-4.3,3.7l-0.1,0c-2.9,1.4-5.3,1.1-7.4-0.8
		c-1.5-1.4-2.8-3.2-3.9-5.6l-0.7-1.5c-0.6-1.2-0.6-2.1,0-2.9c0.4-0.3,1-0.7,1.8-1.2c1.2-0.3,2-0.1,2.4,0.8c0.4,1.2,0.8,2.3,1.3,3.5
		c1.1,2.2,2.5,3.1,4.3,2.6l0.4-0.2C-755,906.2-754.8,905.1-755.5,903.4z M-798.4,928.2L-798.4,928.2c-3.3-8.2-7.7-18.9-13.2-32.2
		c-0.4-1.1-0.2-2,0.7-2.8c1.1-0.9,2.5-1.6,4.2-2.3c3.7-1.5,6.9-0.7,9.6,2.3c2.7,3.8,5.1,8,7,12.8c3.3,8.2,4.4,13.9,3.1,17.1
		c-1.7,2.2-4.4,4.1-8.1,5.6C-796.8,929.4-797.9,929.3-798.4,928.2z M-628.6,930.4l-0.3,0l1.3-0.9L-628.6,930.4z M-616.6,920.2
		l-0.2-0.9c-0.9-1-2.8,2.2-5.2,5.5c-0.3-1.6-0.6-3.4-4.1-0.2c-7,3.2-8.5,9-11.8,13l-2.2,1.7l0.6-0.7c-4.6,2.2-9.4,5.8-12.6,9.5
		c-1.2,0.9-2.4,1.7-3.6,2.6c-0.8-1.2,2-3.4,4.5-5.4c3.1-2.6,5.7-4.7,0.4-3.6c6.7-2.8,12.4-11.9,16.4-15.5
		c-7.8,4.8-17.1,5.2-16.9,1.3c-6.6,7-5,9.3-3.2,11.3c1.8,2,3.8,3.7-2.6,9.4c0,0-2.6,1.5-5.1,2.9c-2.6,1.5-5.2,2.9-5.2,2.9l-0.1,4.5
		c-1,0.6-1.9,1.2-2.9,1.8c-0.1-1.3-0.4-2.5-5,0.8c-1,3.9-7.9,5.4-9.2,7.9l-0.1,0.1c-0.4-1.2-1.2-2.3-5.8,0.3c0,0.6,0.9,1.7-0.2,3.1
		l-2.3,1.3c-4.5-3.3,9.2-6.5,2.4-8.4c-9.2,5.3-5.9,7.6-5.1,9.9c-5.1,2.8-10.3,5.5-15.5,8l0.6-1.1c3.2-5.2,6.1-10.6,8.3-14.5
		c2.2-4,3.6-6.6,3.6-6.6c-1,1.3-2.2,2.6-3.6,3.6c-5.4-1.9-6.8-0.5-3.3-7.3c-4.4,5.1-0.5,7.1-8.9,11.8c2.3-3.7,0.7-8.5-7.6-4.7
		c-3.5,2.8-6.7,5.7-9.7,8.8c-0.5-1.4-1.5-2.2-3.2-1.6c-12.3,4.4-24.8,8.5-37.4,12.3c1.6-0.9,3-2,3.8-2.6c-6.2,2.6-3.8,0.8-10.1,4.1
		c0.3,0.1,0.5,0.1,0.8,0.1c-4.7,1.4-9.5,2.7-14.3,3.9c0.8-0.3,1.7-0.7,2.5-1.1c2.2-2.2,3.5-5.8,6.1-8.6c2.6-2.9,6.3-5,13.3-5.1
		l-0.1,0.9c0.7-1.7,6.2-1.5,7.7-4c-2-0.7-2.1-1.5-1.7-2.3c2.6-1.1,5.3-2.3,7.9-3.5c1.5,1.1,2.7,2.5,3.5,3.7c1.3-3.7,5-4.5,9.6-5.6
		c4.5-1.1,10-2.1,14.4-6.4c-0.7,3.2-12,9.3-6,9.4c0,0,2.7-3.1,5.3-6.3c2.6-3.2,5.1-6.4,5.1-6.4l-5.9,3.2c8-9.1,13.1-6.2,19.8-8
		c2,0.8-1.5,3.5-4.4,5.1c3-1.5,7.3-4.6,10.5-7.9c0,0.2,0.1,0.4,0.5,0.4c0.5-1.2,1.1-2,1.6-3c3.4-3.9,9.9-10.3,11.8-14.6
		c0.6-0.3,1.2-0.5,1.8-0.8c0,0.4-0.1,0.8-0.3,1.1c0.7-0.6,1.3-1.2,1.8-1.7c1.8-0.8,3.7-1.6,5.5-2.6l-0.6,1.3
		c0.6-0.6,1.1-1.2,1.6-1.8c1.7-0.9,3.3-1.7,5-2.6c0.8,0.7,8.3-2,7.8-4.3c16.2-9.3,31.1-20.8,42.8-31.9c0,0,2.3,8.2,4.4,16.5
		c1.1,4.2,2,8.4,2.7,11.5c0.7,3.1,1.1,5.3,1.1,5.3c0.1,0.2,0.3,0.4,0.3,0.8L-616.6,920.2z M-523.1,806.1
		c-22.2,40.4-52.7,77.8-88.4,109.7c1.1-2.5,0.5-4.5-0.5-6c-1.7-2.5-4.7-4.1-3.5-5.8c2.5-2.8,3-6.8,6.8-7.5l-0.2,2.4
		c6.5-8.4-0.7-5.5,6.3-11.6c3.5-7.1-5.1,4.2-3.5-0.9c7.7-6.3-1.5-10,11.5-18.5c0.5,1.5,4.8,2-0.9,9l8.3-4.4c-6,8.7-2,3.7-9,11.9
		c-0.4,6.5,2.3,7.5,1.5,13.4c2.2-3.7-0.7-5.4,3.6-9.7c5.8-4.7,0.7,2.3,1.2,3.8c3.1-10.6,10.8-5,13.2-14.8c-4.8-2-3.5-3.1-10.1-0.6
		c3-5.6,10.5-9.4,13.5-6.2l-2.1-3.5c1.7-0.4,4.9-4.2,5.9-3.9l-0.2-2.9c-5.1,1.7-8.6,3.5-12.6,10.3c0.1-4.1-7.8-1.2-1.8-9.3
		c2.9-3.2,2,1,3.1,1.6c3.2-4.7,5.7-8.1,8.3-10.4c2.5-2.4,4.9-4,7.1-5.5c4.3-3.1,8.7-5.5,12.9-13.7c-1,4.8-9.6,12.1-12.6,20.7
		c6-2,5.9-9.7,9.3-13.4c-1.3,4.7-0.6,6.1,3.9,2.8l-0.6-3.1c1.9-2.6,4.9-7.5,6.1-7.2c-0.6-0.6-2,0.2-4.2,2.2
		c0.9-4.3,3.3-9.6,6.2-15.4c1.5-2.9,3.2-5.9,5.1-8.8c1.8-3,3.8-6,5.9-8.9c1.9,1.7,0,6.4-1.3,9.9c-1.4,3.4-2.2,5.6,2.1,2.1
		c1.1-2.8,1.1-5.9,1.7-9.2c0.6-3.3,1.9-6.8,5.4-10.7c0.5,5.2,4.8-2.7,6.3-1.8c0,0,0.3-3.8,0.5-7.7c0.1-3.8,0.3-7.7,0.3-7.7
		c3.4-5.5,6.4-12.3,7.5-18.4c-0.4,1.9-1.3,4.2-2.6,6.7c-1-5.6,1.3-9.4,3.7-13.5c2.4-4.1,5.6-8.4,6.3-14.6c0,0,0.1,1.5,0.1,3
		c0,1.5,0,3,0,3c2.2-4.1,3.1-8.2,3.8-12.1c0.7-3.9,0.8-7.7,0.8-11.4l3.5,1.2c-2.3-1.1-2.7-5.6-2.6-10.2c0.1-4.6,0.3-9.5,0-11.3
		c-0.6,11.3-3.1,15.6-5.1,19.9c-2,4.3-4.4,8.3-5.7,19.2c-2.5-9.3-1.4-14.9-3.8-24.4c1.1-3,2.3-4.1,3.4-4c-1.2-3.1-4-4.7-4.3-9.8
		l2.2-1c2.5-6.7,1.2-10.3-0.4-13.7c-1.6-3.4-3.2-6.7-1.3-13.2c4.9-2,4.4,11.7,5.4,20.6c-0.2,0.1-0.3,0.3-0.5,0.5l0.5-0.5
		c0,0.2,0,0.4,0.1,0.6c5.5-5.5-0.8,13.9,6.7,7.7l-1.9-4.7c0.8-3.6,2.7-3.4,2.9-1.6c0,0.1,0,0.3,0,0.4c0-0.1,0-0.2,0-0.3
		c0,0,0,0.1,0,0.1c0.3-4.9,0.8-3.6-1.1-6c1.6-10.9,3-10.1,4.6-9.2c0.8,0.5,1.8,1,2.8,0c1.1-1,2.3-3.4,3.4-8.8c1,2.6-0.1,8.7,2.7,7.9
		l-3.1,11.6l3.5,0.9c3-15-0.8-24.6-5.9-31.9c1.9,13.6-3.9,1.1-6.5,7.7c-1.5-2.8-0.2-5,1-6.4c-0.9-1.1-1.1-7.5-3.1-6.9
		c8.9-2.2,11.2-30,19.5-23.2c1.4-4,1.2-12.3,0.5-21.7c-0.2-4.7-0.9-9.7-1.4-14.7c-0.5-4.9-1-9.8-1.1-14.1l2.5,4.7
		c1.9-4.6,2.4-8,2.1-10.5c-0.4-2.6-1.6-4.3-3-5.8c-2.9-3-7-4.9-8.5-10.1c3.6,9.2,3.2-8.5,5.6-12.5c-3.7-8.2-9.3-14.5-10.1-26.2
		c3.2-2.9,9-4,8.1-11.7l-4-4.6c-1-7.6-5.1-17.1-4.3-22.4l0.5,1c-0.1-8.8-5.5-7.9-4.6-1.3l-3.9-7.4l1-0.5c-1.2-2.5-2.5-4.9-4-7.3
		c-1.5-2.4-3-4.9-4.8-7.5c-3.5-5.2-7-11.2-10-19c4.7,3.2,2.4-14.7,8.1-0.2c-3-3.7-2.6,3.5-3.8,4.8c0.8,5.3,5.6,8.9,7,11.2
		c-0.2,0.4-0.3,0.8-0.2,1.3c0.6-0.3,0.7-0.7,0.5-1.2c1.6-2.1,6.5-1.9,9.9,0.3c-4.5-4.7-7.8-14.9-11.2-24c-2.1-4.6-4.3-9.1-6.6-11.9
		c-2.3-2.8-4.6-4.5-7.1-4.1c-5.2-12.8-15.4-27.2-21.8-41.2c0,0.8-0.1,2.3-0.9,2.3l-2.5-10.2c13.8,16.8,26.4,34.6,37.4,53.3
		c23.4,39.9,35.6,85.9,41.4,131.3C-459.9,638.5-480.6,728.7-523.1,806.1z"/>
	<path class="st2" d="M-511.3,758.2c0.1-0.4,0.1-0.7,0.2-1C-511.2,757.5-511.2,757.9-511.3,758.2z"/>
	<path class="st2" d="M-495.2,683.4c-0.1-0.3-0.1-0.5-0.1-0.6C-495.3,683-495.2,683.2-495.2,683.4z"/>
	<path class="st2" d="M-495.3,682.9c0-0.1,0-0.2,0-0.2C-495.3,682.8-495.3,682.8-495.3,682.9z"/>
	<path class="st2" d="M-541.5,818.8c0,0-1.3,2.1-2.6,4.2c-1.3,2.1-2.6,4.2-2.6,4.2c4.4-0.1,1.5-2.3,5.3-6.7l-0.5,7.2
		C-538.8,823.7-540.1,818.1-541.5,818.8z"/>
	<path class="st2" d="M-705.6,247.5c-2.5-0.2-7-3.1-7.5-0.3C-711.7,244.6-704.7,251.9-705.6,247.5z"/>
	<path class="st2" d="M-505.2,460.7c1.9-1.1,2.7,9.5,3.7,2.6C-503.1,458.2-504.1,459.4-505.2,460.7z"/>
	<path class="st2" d="M-505.8,461.4c0.2-0.2,0.4-0.5,0.6-0.7C-505.3,460.8-505.6,461-505.8,461.4z"/>
	<path class="st2" d="M-1215.4,239.4c0,0.2-0.1,0.3-0.1,0.5C-1215.4,239.8-1215.4,239.6-1215.4,239.4z"/>
	<path class="st2" d="M-770,451.6c-1-1.4-2.5-2.3-4.4-2.7c-1.9-0.4-4.5-0.6-7.7-0.6h-14.7v177.5h14.7c3.2,0,5.8-0.2,7.7-0.8
		c1.9-0.5,3.4-1.4,4.4-2.7c1-1.3,1.7-3.2,2.1-5.7c0.4-2.5,0.6-5.8,0.6-9.8V466.6c0-3.8-0.2-6.9-0.6-9.3
		C-768.3,454.9-769,453-770,451.6z"/>
	<path class="st2" d="M-701.4,250l-0.7,0.4c0.1,0,0.2,0.1,0.2,0.1L-701.4,250z"/>
	<polygon class="st2" points="-487.2,527.7 -482.8,532.8 -483.5,530.8 	"/>
	<path class="st2" d="M-492.8,693.9c0,0-0.5-2.8-1.2-5.6c-0.5-1.9-0.9-3.8-1.2-4.8c1.6,7.8-2.1,24,2.4,23.9
		c2.1-5.5,2.4-12.6,1.1-15.7L-492.8,693.9z"/>
	<path class="st2" d="M-1181.4,958.6c0.6-0.3,1.1-1.1,2.4-0.4l-4.7-3L-1181.4,958.6z"/>
	<path class="st2" d="M-1178.3,958.6c-0.2-0.2-0.5-0.3-0.7-0.4L-1178.3,958.6z"/>
	<polygon class="st2" points="-1329.2,821.9 -1332.7,819.7 -1330.8,821.9 	"/>
	<polygon class="st2" points="-1339.3,821.6 -1337.9,826.8 -1335.1,828.4 	"/>
	<path class="st2" d="M-490,657.2c-0.2,0.9-0.4,1.9-0.5,3.1C-490.2,658.9-490.1,658-490,657.2z"/>
	<path class="st2" d="M-1177.3,953.4c-1.7,2.4-7.3-5.4-7.1-1C-1182,952.7-1178.2,956.1-1177.3,953.4z"/>
	<path class="st2" d="M-1365.7,463.5c0-0.6,0.2-1.3,0.2-1.9C-1365.6,462.3-1365.7,462.9-1365.7,463.5z"/>
	<path class="st2" d="M-493,647c-4.3,14.5,4.3-0.8,3,10.1c1.5-6.3,5.5-9.2,6.7-8.4C-485.8,641.8-491.3,658.7-493,647z"/>
	<path class="st2" d="M-809.4,1015.4l-0.7-0.2c0,0-1.3,0.8-2.7,1.7c-1.4,0.8-2.7,1.6-2.7,1.6l0.7,0.2c0,0,1.4-0.8,2.7-1.6
		C-810.7,1016.2-809.4,1015.4-809.4,1015.4z"/>
	<path class="st2" d="M-698.6,960.6c1.5-2,2.6-4.3,3.2-6.1c0,0-0.8,1.5-1.6,3.1C-697.8,959.1-698.6,960.6-698.6,960.6z"/>
	<path class="st2" d="M-715.3,954.1c-0.3,0.1-0.5,0.2-0.7,0.3C-715.8,954.4-715.6,954.2-715.3,954.1z"/>
	<path class="st2" d="M-1346,472.7c0,1,0.2,1.6,0.3,2.3C-1345.7,474.3-1345.8,473.5-1346,472.7z"/>
	<path class="st2" d="M-1355,648.4c-0.4-3.5-0.8-5.6-2.2-4.7l0,2.2c-1.9-2-1.5-1,0,0.8c0.4,2.3,1.4,2,2.1,2.2
		c0.5,0.4,0.9,0.8,1.4,1.2C-1354.1,649.5-1354.6,648.9-1355,648.4z"/>
	<path class="st2" d="M-1351.2,486.4c0.2,0.1,0.3,0.2,0.5,0.3C-1350.8,486.5-1351,486.4-1351.2,486.4z"/>
	<path class="st2" d="M-1348.4,493.8c0.5-1.9,0.7-3.6-0.5-3.7c-1.2,2.8-1.6,5.1-1.4,8C-1349.8,497.7-1348.9,495.7-1348.4,493.8z"/>
	<path class="st2" d="M-1359.9,621c-0.5-0.5-0.9-0.8-1.3-1.1c1.7,5.8,1.2,16.6,5.2,17.5c-0.3-2,1.2-12.4,3.6-10.8
		c-1.4-3.9,1.3-10,0.5-12.2c-1.9,6.7-3.3,0.9-4.9-3.6c1-4.1,3.2,0.6,3.8-2.9c0,0-0.2-2.3-0.3-4.7c-0.1-2.3-0.3-4.7-0.3-4.7l-0.5,8.2
		l-3.8-2.4c0.1,0.3,0.2,0.5,0.4,0.8C-1355.2,619.2-1363.1,606.7-1359.9,621z"/>
	<path class="st2" d="M-1346,596.2c0.2,0.6,0.3,1.1,0.5,1.5C-1345.7,597.2-1345.8,596.7-1346,596.2z"/>
	<path class="st2" d="M-1350.8,629c-0.6-1.4-1.1-2-1.6-2.4C-1352.1,627.6-1351.6,628.4-1350.8,629z"/>
	<path class="st2" d="M-1361.2,619.9c-0.3-0.9-0.6-1.6-1-2.2C-1362.2,619-1361.7,619.5-1361.2,619.9z"/>
	<path class="st2" d="M-498.6,659.8c0.3,0.4,0.8,0.1,1.4-1.3C-497.2,658.5-497.9,659-498.6,659.8z"/>
	<path class="st2" d="M-1365,523.4c0.1-0.1,0.2-0.2,0.4-0.4L-1365,523.4z"/>
	<path class="st2" d="M-1371.6,591.6c-0.1-0.1-0.1-0.2-0.2-0.1C-1371.8,591.6-1371.7,591.6-1371.6,591.6z"/>
	<path class="st2" d="M-1353.6,745.5c-0.7,0.4-0.8,0.9-0.4,1.5C-1353.7,746.6-1353.5,746.1-1353.6,745.5z"/>
	<path class="st2" d="M-770.1,975.7l0.1-0.6C-770.1,975.2-770.1,975.4-770.1,975.7z"/>
	<path class="st2" d="M-1358.2,740.3c-0.2,0.2-0.4,0.4-0.6,0.7C-1358.6,740.9-1358.4,740.7-1358.2,740.3z"/>
	<path class="st2" d="M-1375,555.1c0,0,0.7-0.5,1.4-1.2C-1373.9,553.5-1374.3,553.8-1375,555.1z"/>
	<path class="st2" d="M-546.4,834.8c0.1-1.1,0.1-1.8-0.1-2.2C-546.4,833.1-546.3,833.8-546.4,834.8z"/>
	<path class="st2" d="M-1212.7,278.5l-7.2,7l-1.2,4.3C-1218.8,286.6-1215.8,283.2-1212.7,278.5z"/>
	<path class="st2" d="M-1193.4,259.4c-0.2,0.1-0.4,0.3-0.6,0.4C-1193.9,259.7-1193.6,259.5-1193.4,259.4z"/>
	<path class="st2" d="M-1221.1,276.8c1.8-1.6,1.4-3.2,1.3-3.9c0,0-1.3,1.1-3.2,2.8c-1.9,1.7-4.6,3.8-7.1,6.1c-2.5,2.3-5,4.6-6.9,6.3
		c-1.9,1.7-3.1,2.9-3.1,2.9c1.7,0.5,8.8-3.3,5.5,0.9c2.6-0.3,6.2-4.9,6.5-7.5l0.1,2.3c2.6-6.5,9.8-4.6,7.9-0.7l0.4-0.4
		c0,0,1.4-5,2.8-9.9c1.4-5.1,3.1-10,3.1-10C-1219.5,269-1215.3,271.8-1221.1,276.8z"/>
	<path class="st2" d="M-1210.5,265.5l-0.3-1.5c-0.5,0.2-0.9,0.4-1.3,0.6C-1211.8,265.3-1211.3,265.7-1210.5,265.5z"/>
	<polygon class="st2" points="-1169.8,233.1 -1174.4,237.5 -1172.4,236 	"/>
	<path class="st2" d="M-762.2,1002.9c0,0-1.5,0.9-2.9,1.9c-1.5,0.9-3,1.8-3,1.8l0.7,0.2c0,0,1.3-0.9,2.6-1.9
		C-763.4,1003.8-762.2,1002.9-762.2,1002.9z"/>
	<path class="st2" d="M-705.6,214.5c1.3,0.2,2.5,0.2,3.8,0.1l5.2,1.5l-0.3-0.7l-6.2-1.7l0.3,0.6
		C-705.2,213.6-705.7,213.9-705.6,214.5z"/>
	<path class="st2" d="M-1193.4,259.4c0.2-0.1,0.4-0.2,0.5-0.3C-1193,259.1-1193.2,259.2-1193.4,259.4z"/>
	<path class="st2" d="M-1212.1,264.6c-0.4-0.8-0.6-2.1-0.3-3.7l-1.5,4.7C-1213.5,265.3-1212.8,264.9-1212.1,264.6z"/>
	<path class="st2" d="M-1039,187.3c-1.1,0.4-1.5,0.8-1.7,1.3L-1039,187.3z"/>
	<path class="st2" d="M-1144.8,233.1l0,0.6C-1144.7,233.6-1144.7,233.4-1144.8,233.1z"/>
	<path class="st2" d="M-1233.2,299.3c2-1.5,4-2.9,6.1-4.3l0.4-1C-1227.6,293.4-1235.4,297.1-1233.2,299.3z"/>
	<path class="st2" d="M-1087.3,155.6c-0.5-0.2-1-0.4-1.4-0.5C-1088.3,155.4-1087.8,155.5-1087.3,155.6z"/>
	<path class="st2" d="M-1210.3,254.6c-1.2,2.1-1.9,4.4-2.1,6.3L-1210.3,254.6z"/>
	<path class="st2" d="M-1196.7,973.3l-0.9-0.4l0.1,0.3C-1197.2,973.3-1197,973.4-1196.7,973.3z"/>
	<path class="st2" d="M-1081.8,165.7c7.2-3.7,6-5.7,9.7-9.5c-0.7-4.6-10.2,0.3-15.1-0.6c0.4,0.2,0.7,0.5,0.7,0.8l-7.1,1.4
		c7-0.7,0.9,5-2.3,6.7c-2.4,1.1-7.1,3.2-7,1.6l3.3-2.5c-5.4,0.4-9,7.5-15,7.2c-0.7-0.9,0.9-2.2,1-3c-4.2,5.5-9.6,7.6-16.6,13.7
		l2.6-6.7c-4.2,8-19.2,13.5-30.4,16.5c1.5,0.1,3.7-0.4,3,1.1c-5.2,4.2-11.2,3.6-9.8-0.1c-3.6,6.6-23.1,9.5-27.7,18.9
		c0,0-1.3,2.7-3.1,6.7c-1.7,4.1-4.1,9.5-6.4,14.9c-2.2,5.4-4.3,10.9-5.8,15c-1.5,4-2.5,6.8-2.5,6.8c0.7-1.4,1.7-2.7,2.8-3.9
		c5.4,1.4,6.6-0.1,4.2,6.8c3.4-5.4-0.5-6.9,6.7-12.3c-1.6,3.9,0.6,8.4,7.9,3.9c14.9-15.7,20.7-33.8,36-49.4
		c2.2,2.5,16.2-5.8,23.7-8.5c-1.2,4.5-5.9,8.1-10.9,11.5c3.5-1.5,9.2-4.5,13.7-6.3l-1.3-7.2c19.5-10-2.5,7.4,7.2,4.4
		c5.1-3.2,6-6.4,9.2-8.7c-7.5,4.5-7.8,2.3-8.3-0.1c-0.4-2.4-0.9-4.8-8.7-0.4c0.1-2.7,2.4-5.3,5.5-7.4c3.1-2,7-3.4,10-4
		c8.1,1.6-4.1,5.5-3.6,10.3c6.2-3.5,4.7-3.8,6.4-7.4C-1099.1,172.6-1090.4,161.9-1081.8,165.7z"/>
	<path class="st2" d="M-1278.4,296.8c0.5,1.5,1.1,3.2,4-0.1c7.8-4.7,6.8-12.5,11.9-16.5l-1,1.8c5.3-3.2,10.6-8.8,12.4-13.7
		c3.6,0.3,0.5,3.4-2.1,6.1c-2.6,2.7-4.8,5.1,0.1,3.5c-5.9,3.3-10.2,12.6-13.4,16.4c6.7-5.4,15.7-6.5,16-2.7
		c5.3-7.4,3.4-9.5,1.4-11.2c-2-1.8-4.2-3.2,1.1-9.4c0,0,2.2-1.7,4.5-3.3c2.2-1.7,4.5-3.2,4.5-3.2l-0.8-6.9c5.1-4.4-0.1,6.2,7.4-0.7
		c0.4-3.9,7.2-6.1,7.6-8.7c0.6,1.2,1.4,2.4,5.6-0.7c-0.2-0.8-1.9-2.2,1.4-4.8c5.7,2.8-7.6,7.4-0.7,8.6c9.3-7.1,2.9-8.5,3.1-11.3
		c-0.2,0.4-0.9,0.5-1.9,1.2c-1-1.5,4-3.2,2.2-4.7c-1.7,1-3.1,2.6-4.1,4.1c1.7-3.7-7,0.6-9.9,2.8c-4.8,7.2-18.6,17.3-26.5,25.6
		c0.6-0.9,1.7-2.6,0.2-2.4c-11.8,11.2-17.8,14.7-29.5,29.4l2.4,6.6C-1281.6,303.4-1280.3,300.1-1278.4,296.8z"/>
	<path class="st2" d="M-1141.5,203.9c0.5-0.4,1-0.7,1.6-1.1c-0.6,0.3-1.3,0.6-1.7,0.7C-1141.6,203.6-1141.6,203.7-1141.5,203.9z"/>
	<path class="st2" d="M-1153,215.3c-3.9,0.9-7.4,6.3-12.3,7.7c2.7,0.6-2.6,9,6.3,1c-0.7,0.7,0,0.8-0.6,1.5
		c7.8-1.6,8.2-6.8,13.9-10.1c4.3-0.2-4.1,5.7-0.6,4.6c6.2-5.6,23.4-9.7,19.9-15.7c5.1-3,6.5-1.9,8.7-1.5c2.6-5.4,11-8.2,18.1-10.7
		c7.1-2.4,13.1-4.4,11.4-8.8c-3.1,1.6-8.4,3.5-12.3,7.3l-2.5-6c-6.8,3.3,1.1,5-8.6,9.2l3-1c-3.1,2.4-7.7,4.9-12.5,7.3
		c-4.9,2.3-10,4.6-13.9,6.8c0-2.2-6,0.3-6.5-2.9C-1146.7,207.3-1151.7,211-1153,215.3z"/>
	<path class="st2" d="M-1167,223.3c0.6,0,1.2-0.2,1.8-0.3C-1165.7,222.9-1166.2,223-1167,223.3z"/>
	<path class="st2" d="M-1111.2,184.9c0.5-0.3,1-0.6,1.6-1C-1110.2,184.2-1110.7,184.5-1111.2,184.9z"/>
	<path class="st2" d="M-514.7,535.7c0.1,0.8,0.3,1.6,0.7,2.3C-514.2,537.1-514.5,536.3-514.7,535.7z"/>
	<path class="st2" d="M-520.2,650.9c1.5-0.7,1.2-5.3,1.7-7.7C-519.5,646-523.5,648.1-520.2,650.9z"/>
	<path class="st2" d="M-515.2,528.9c-1.1,3.3-0.4,4.4,0.4,6.8C-515,533.2-514,530.5-515.2,528.9z"/>
	<polygon class="st2" points="-522.3,666 -521.3,664.9 -522.2,659.1 	"/>
	<path class="st2" d="M-500,620.2c0.1,0.1,0.1,0.2,0.2,0.1C-499.8,620.2-499.9,620.2-500,620.2z"/>
	<path class="st2" d="M-512.5,606.5l-0.6-0.4c0.1,0.4,0.2,0.7,0.4,1C-512.6,606.9-512.6,606.7-512.5,606.5z"/>
	<path class="st2" d="M-507.2,525.6c0.2,0.5,0.5,1.6,0.9,2.6C-506.6,527.4-506.8,526.6-507.2,525.6z"/>
	<path class="st2" d="M-523.8,731.6c-0.2-0.1-0.3-0.2-0.5-0.3C-524.2,731.5-524,731.6-523.8,731.6z"/>
	<path class="st2" d="M-1358.8,741c-1.8,1.1-2.9-8.6-3.7-2.2C-1360.7,743.4-1359.8,742.2-1358.8,741z"/>
	<path class="st2" d="M-525.9,727.6c1.3-2.9,1.9-5.4,2-8.4C-525.1,720-528.2,727.3-525.9,727.6z"/>
	<path class="st2" d="M-528.9,427.5c0,0-0.8-1-1.6-2.1c-0.8-1-1.6-2-1.6-2C-531.4,424.2-530.4,431.2-528.9,427.5z"/>
	<path class="st2" d="M-569.1,369.2c-1.4-2.1-3.6-2.8-5.5-4.6c1.9,2.2,3.5,5.2,4.5,9.2C-570,372.3-569.9,370.1-569.1,369.2z"/>
	<polygon class="st2" points="-1151.9,203 -1156.2,207.2 -1151.2,203.1 	"/>
	<path class="st2" d="M-534.5,426.2c0.1,0.5,0.1,0.8,0.1,0.8C-534.4,426.8-534.5,426.5-534.5,426.2z"/>
	<path class="st2" d="M-573.6,380.7c0.1-0.7-1.4-2-2.1-2.7c0.4,0.9,0.9,1.7,1.4,2.5C-574,380.5-573.8,380.6-573.6,380.7z"/>
	<path class="st2" d="M-513.2,571c0.4,2.1-2,13.1-4.3,11.2c1,4.3-1.7,10.6-1,12.9c2.1-7,3.3-0.8,4.7,4c-1.1,4.3-3.2-0.8-3.9,2.9
		l0.1,10l0.8-8.7l3.7,2.7c-0.1-0.3-0.2-0.5-0.3-0.9c-1.6-14.8,5.7-1.2,3.1-16.5c0.4,0.6,0.9,0.9,1.3,1.2
		C-510.7,583.7-508.9,572.2-513.2,571z"/>
	<path class="st2" d="M-1147.3,228.3c5.5-3.1,3.5-1.1,9-5C-1141.8,222.8-1145.9,226.9-1147.3,228.3z"/>
	<path class="st2" d="M-509,589.9c0.2,0.9,0.5,1.8,1,2.4C-508.1,590.9-508.5,590.3-509,589.9z"/>
	<path class="st2" d="M-517.5,582.2c-0.2-1-0.6-2-1.4-2.6C-518.4,581.1-518,581.8-517.5,582.2z"/>
	<polygon class="st2" points="-1112.9,190.3 -1108.2,186.5 -1109,186.4 -1113.6,190.1 	"/>
	<path class="st2" d="M-1320.4,360.4l-0.4-2C-1320.9,359.8-1320.7,360.4-1320.4,360.4z"/>
	<path class="st2" d="M-994.4,180.7c-0.2-0.2-0.3-0.3-0.5-0.5C-995,180.5-994.9,180.7-994.4,180.7z"/>
	<path class="st2" d="M-681.2,221.2c1.2,0.2,2.3,0.5,2.3,0.5c-3.9-1.9-11.7-6.5-14.9-5.8c2.7-0.3,7.6,5.1,10.9,4.3l-0.6,0.5
		C-683.6,220.7-682.4,220.9-681.2,221.2z"/>
	<path class="st2" d="M-1076.6,151c-3.2,0.7-4,1.4-5.7,2.5C-1081.1,155.5-1079.1,151.9-1076.6,151z"/>
	<path class="st2" d="M-1078.6,177.6c-1.3,0.8-2.2,1.6-2.7,2.6C-1080.2,179.3-1079.4,178.4-1078.6,177.6z"/>
	<path class="st2" d="M-1046.5,164.3c4.1-5.9-0.8-10.9-2.6-17.3c-1.2-1.3-15.9,2.3-15,6.7c7.4,0.6-7.9,6.6,4.6,3.8
		c1.8,2.2-2.8,7.3-8.8,7.9c-0.3-2.5,5-3.3,0.7-4.6c-2.9,4-4.9,2.6-2.4,5.7c-5.5,4.3-5.3,7.2-8.7,11c3.4-2.1,9.4-3.7,15.6-5.5
		C-1057,170.2-1050.7,168-1046.5,164.3z"/>
	<path class="st2" d="M-693.8,215.9c-0.4,0-0.7,0.2-1,0.5C-694.6,216.2-694.2,216-693.8,215.9z"/>
	<path class="st2" d="M-990.9,175.7l-7.8,2.7c1.9-0.2,2.8,0.8,3.8,1.8C-994.5,179.2-989.5,177.1-990.9,175.7z"/>
	<path class="st2" d="M-998.7,178.4c-0.9,0.1-2,0.4-3.4,1.2L-998.7,178.4z"/>
	<path class="st2" d="M-854.3,1050.1c3.5-0.4,4.5-0.9,6.4-1.9C-848.8,1046.2-851.5,1049.4-854.3,1050.1z"/>
	<path class="st2" d="M-829.4,742.9c0,0.1,0,0.1,0.1,0.1c3,0,4.6-1,4.7-2.8c-0.9-3.3-3.3-5-7.4-5c-1,1.1-1.6,2.7-1.8,4.7v0.3
		C-833.7,742-832.3,742.9-829.4,742.9z"/>
	<path class="st2" d="M-1042.5,890c-0.8,1.5-1.3,2.6-1.7,3.3l-0.4,0.8c-1.2,2.6-2.7,6.2-4.4,10.7c2.6,0.3,4.8-0.1,6.5-1.3
		c0.8-0.4,1.7-1.5,2.8-3.1c0.7-1.5,1-3.5,0.8-5.8C-1039.6,892.3-1040.8,890.8-1042.5,890z"/>
	<path class="st2" d="M-848,1023.9c-8,3.5-26,3-36,9.2c-5.3,5.4-0.9,11,0,17.5c1.1,1.4,17.1-0.2,16.9-4.7c-7.8-1.5,9.4-5.5-4.3-4.4
		c-1.6-2.4,4.1-6.9,10.5-6.7c0,2.6-5.8,2.7-1.5,4.5c3.7-3.6,5.6-1.9,3.4-5.4C-852.3,1030.1-852.1,1027.2-848,1023.9z"/>
	<path class="st2" d="M-666.1,233.6c1.9,0.4,3.6,0.8,3.3,0C-663.9,233.8-665,233.7-666.1,233.6z"/>
	<path class="st2" d="M-587.6,254.3c-88-57.3-180.4-100.2-286.8-104.9c-6.6-0.3-13.4,2.1-19.9,1.8c106.4,4.7,198.8,47.6,286.8,104.9
		C-603.1,259-591.9,251.5-587.6,254.3z"/>
	<path class="st2" d="M-840.9,1047.4c-0.4-0.3-0.9-0.5-1.5-0.7C-841.9,1047.1-841.3,1047.3-840.9,1047.4z"/>
	<path class="st2" d="M-832.5,915.9c-1.1-4.1-2.7-7.3-4.6-9.4c-0.6-0.4-1.2-0.5-1.8-0.3c-1.2,0.3-1.3,3.5-0.2,9.6
		c-0.2,0,0,1.3,0.5,3.7c3.1,10.1,5.4,15,7.1,14.5c2.1-0.6,2.3-4.9,0.5-13.1L-832.5,915.9z"/>
	<polygon class="st2" points="-1383.1,677.5 -1379.2,680.1 -1384,675.7 	"/>
	<path class="st2" d="M-1379.1,566.1c4.2-14-4.3,0.8-3.1-9.7c-1.5,6.1-5.5,8.9-6.6,8.2C-1386.3,571.2-1380.9,554.8-1379.1,566.1z"/>
	<path class="st2" d="M-1382.2,556.3c0.2-0.9,0.4-1.9,0.5-2.9C-1381.9,554.6-1382.1,555.5-1382.2,556.3z"/>
	<path class="st2" d="M-987.1,685.3c3.8-4.3,5.9-8.1,6.3-11.4c0.2-1.6,0.3-3.3,0.3-4.8c0-1.6-0.1-3.1-0.3-4.5
		c-0.4-2.9-2.2-5.1-5.4-6.5c-2.3-1-5-1.6-8.1-1.6c-1.2,0-2.4,0.1-3.6,0.2c-4.6,0.5-8.5,3.6-11.7,9.3c-2.1,3.7-3.1,9.6-3.1,17.6
		c0,4.1,0.3,8.8,0.8,14C-999.2,693.8-991,689.6-987.1,685.3z"/>
	<path class="st2" d="M-1359.2,680.5c-0.2-0.4-0.6-1.5-1.1-2.4C-1360,678.8-1359.6,679.6-1359.2,680.5z"/>
	<path class="st2" d="M-1380.2,522.2l3,10.3c-0.9-3.4-0.9-9.2-0.8-14c0-4.9-0.3-8.9-2.6-8.8c-1.9,5.1-2.1,11.7-0.5,14.6
		L-1380.2,522.2z"/>
	<path class="st2" d="M-1342.2,403.5l4.1-8.3c-4.2,0.4-1.1,2.3-4.3,6.7l-0.3-6.9C-1345.4,399-1343.5,404.2-1342.2,403.5z"/>
	<path class="st2" d="M-844.7,1021.6c-1.4,0.8-2.4,1.5-3.3,2.3C-846.5,1023.2-845.4,1022.5-844.7,1021.6z"/>
	<path class="st2" d="M-790.4,801.6c2.7,1.4,6,2.3,10,2.9c0.6,0.2,1.4,0.2,2.1,0.2c3.3,0,7-1.1,10.9-3.4c4.7-2.6,8.2-9.2,10.5-19.7
		c2.3-10.5,3.7-18.4,4.1-23.5c0.1-1.2,0.1-2.3,0.1-3.3c0-3.7-0.5-6.6-1.4-8.9c-1.2-2.9-3.4-4.7-6.7-5.2c-1.3-0.2-2.6-0.3-3.9-0.3
		c-2.2,0-4.4,0.3-6.7,0.9c-3.7,1-7.9,3.3-12.4,6.8c-4.6,3.5-8.3,11.4-11.2,23.4c-1.9,7.8-2.9,13.7-2.9,17.8c0,2.4,0.3,4.2,1,5.3
		C-795.4,797.9-793.2,800.3-790.4,801.6z"/>
	<path class="st2" d="M-1339.3,388.1c0,1.1,0.1,1.7,0.3,2.1C-1339.2,389.7-1339.3,389-1339.3,388.1z"/>
	<path class="st2" d="M-971.3,921.4c0.4-0.8,0.6-1.7,0.8-2.6l0.1-0.3c0.7-4.1-1-6.5-5.1-7.2l-0.6-0.1c-0.3,1.4-0.5,2.2-0.5,2.6
		c-0.7,4.2-1.1,7.9-1.4,11.1l1.1,0.2C-974.5,925.5-972.7,924.3-971.3,921.4z"/>
	<path class="st2" d="M-916,660.8c-0.2-1.7-1.1-2.7-3-2.9h-0.7c-7.9,0-16.4,18.4-25.4,55.2c17.9-21.2,27.6-38.5,29.1-51.9V660.8z"/>
	<path class="st2" d="M-1094.2,1047.9c-5.8-1.2-14.4,11.1-20.1,9.9c114.8,24.2,228.5,31.6,341.3-6.4c7-2.4,13.1-7.6,20.1-9.9
		C-865.7,1079.6-979.4,1072.1-1094.2,1047.9z"/>
	<path class="st2" d="M-869,924.2c-0.7-4.2-1.9-7.5-3.7-9.9c-0.5-0.5-1.1-0.6-1.8-0.5c-1.2,0.2-1.6,3.4-1.2,9.5
		c-0.2,0-0.1,1.3,0.1,3.8c2,10.4,3.9,15.4,5.5,15.2c2.1-0.3,2.8-4.7,1.8-13L-869,924.2z"/>
	<path class="st2" d="M-696.8,949.6l0.1,1.6c0.6-0.2,0.9-0.4,1.4-0.5C-695.5,950-696,949.5-696.8,949.6z"/>
	<path class="st2" d="M-695.4,954.5l2.3-4.6c-0.6,0.3-1.3,0.5-2.1,0.8C-694.9,951.5-695,952.9-695.4,954.5z"/>
	<path class="st2" d="M-1330.5,772l-0.1-0.8C-1330.6,771.5-1330.6,771.7-1330.5,772z"/>
	<path class="st2" d="M-667.6,925.2c-2.7,0-7.2,4.4-7.9,7.1l0.3-2.3c-3.7,6.3-10.9,3.7-8.2-0.1l-0.4,0.3c0,0-2.2,4.9-4.5,9.8
		c-1.1,2.5-2.3,4.9-3.2,6.7c-0.9,1.8-1.5,3-1.5,3c6.2-3,2.4-6.1,9.1-10.7c-2.1,1.5-2,3.1-1.9,3.9c0,0,1.5-1,3.8-2.5
		c2.3-1.5,5.3-3.4,8.3-5.5c3-2.1,5.9-4.2,8.1-5.8c2.2-1.6,3.7-2.7,3.7-2.7C-663.7,926-671.6,929.1-667.6,925.2z"/>
	<path class="st2" d="M-1231.8,890.5c0.4,0.1,0.8,0.1,1.2,0C-1230.9,890.6-1231.3,890.6-1231.8,890.5z"/>
	<path class="st2" d="M-794.1,906.9l-0.3-0.6c-3.6-8.8-6.6-12.6-9.1-11.6c-0.2-0.1-0.9,0-2.2,0.4l-1.5,0.8c4,9.1,6.2,14.1,6.7,15.3
		c2.4,6.2,4,10.3,4.8,12.1c3.3-1.8,4.8-3.2,4.5-3.9C-790.4,918.1-791.4,914-794.1,906.9z"/>
	<path class="st2" d="M-1352.3,670.4c-0.1-0.7-0.4-1.5-0.9-2.1C-1352.9,669.2-1352.6,669.9-1352.3,670.4z"/>
	<path class="st2" d="M-1351.5,676.7c0.9-3.2,0.2-4.1-0.9-6.3C-1351.9,672.8-1352.7,675.3-1351.5,676.7z"/>
	<path class="st2" d="M-1336,770.7l2.9,3.8C-1333.7,773.8-1334.2,767.4-1336,770.7z"/>
	<path class="st2" d="M-1171.5,950.7c-1-0.8-2.1-1.5-3-1.8L-1171.5,950.7z"/>
	<polygon class="st2" points="-1350,548.1 -1351,549.2 -1350,554.6 	"/>
	<path class="st2" d="M-1351.9,562.3c-1.5,0.6-1.1,4.9-1.6,7.2C-1352.6,566.9-1348.6,564.9-1351.9,562.3z"/>
	<path class="st2" d="M-692.5,936.6l8.5-6.4l1.9-4.2C-684.9,929-688.5,932.1-692.5,936.6z"/>
	<path class="st2" d="M-1297.5,832.4c-1.6-2.2-2.8-5.1-3.4-9c-0.2,1.4-0.6,3.5-1.5,4.2C-1301.3,829.7-1299.2,830.5-1297.5,832.4z"/>
	<path class="st2" d="M-826.9,755.3c-5.7,0-9.9-0.5-12.4-1.3c-3.1-1-5.1-2.6-6-5c-0.9-2.3-1.5-4.7-1.5-7v-0.4c0-2.3,0.6-4.9,1.7-8.1
		c-8,2.4-13.9,7.4-17.7,14.8c-3.9,7.4-6.1,14.5-6.8,21.2c-0.4,3-0.6,5.7-0.6,8.2c0,3.1,0.3,5.8,0.8,8.1c0.9,4.2,3.3,7.7,7.3,10.6
		c2.9,2.3,6.2,3.4,10,3.4c1.2,0,2.4-0.1,3.8-0.3c5.2-1,10.2-3.7,14.8-8.2c4.6-4.5,7.6-10.6,9.2-18.2c1.2-6.1,1.8-11.2,1.8-15.1
		c0-1,0-1.9-0.1-2.7C-824.2,755.3-825.5,755.3-826.9,755.3z"/>
	<path class="st2" d="M-1147.9,531.5h-15.6v94.3h14.7c3.2,0,5.8-0.2,7.7-0.8c1.9-0.5,3.4-1.4,4.4-2.7c1-1.3,1.7-3.2,2.1-5.7
		c0.4-2.5,0.6-5.8,0.6-9.8v-58c0-6.6-0.8-11.2-2.4-13.7C-1138.1,532.7-1141.9,531.5-1147.9,531.5z"/>
	<path class="st2" d="M-1136.5,451.9c-1-1.4-2.5-2.4-4.5-2.9c-2-0.5-4.6-0.8-7.8-0.8h-14.7v55.9h15.6c5.6,0,9.3-1.1,11.1-3.3
		c1.8-2.2,2.7-6.2,2.7-12v-22.2c0-3.6-0.2-6.6-0.4-9C-1134.9,455.2-1135.5,453.3-1136.5,451.9z"/>
	<path class="st2" d="M-1270.2,247.8c7.1-7.1,14.4-13.9,21.9-20.4C-1256,234-1263.3,240.8-1270.2,247.8z"/>
	<path class="st2" d="M-875,114.5c126.9,6.3,262.5,75.7,341.8,177c2.3,3,17.8-4.5,19.9-1.8C-605.4,172-763.5,107.3-909.4,108
		c-123.4,0.6-244.6,37.2-338.9,119.4C-1162.3,153.8-1026.7,107-875,114.5z"/>
	<path class="st2" d="M-814.6,1021.2c0.7-0.2,1.3-0.5,1.8-0.8C-813.3,1020.7-813.8,1020.9-814.6,1021.2z"/>
</g>
<g>
	<path class="st2" d="M287.8,861.1c1.4,2.8,2.9,6.2,3.2,6.1c18.3-5.5,287.9-83.5,416.1-37.6l7.1-17.5
		C714.2,812.1,574.1,763,287.8,861.1"/>
	<path class="st2" d="M779.6,758.4h15.1v-29.3c0-1.8,0.1-3.5,0.4-4.9c0.3-1.5,0.9-2.8,1.7-3.8c0.9-1.1,2.1-1.9,3.7-2.5
		c1.6-0.6,3.7-0.9,6.3-0.9c2.3,0,4.1,0.3,5.4,0.8c1.4,0.6,2.3,1.4,3,2.4c0.6,1,1.1,2.2,1.3,3.6c0.2,1.4,0.3,2.9,0.3,4.6v30h15v-32.9
		c0-2.7-0.1-5.2-0.4-7.5c-0.3-2.3-0.9-4.4-1.7-6.3c-0.8-1.9-2-3.4-3.4-4.8c-1.5-1.3-3.4-2.3-5.6-3c-2.3-0.7-5.1-1.1-8.3-1.1
		c-3.8,0-7,0.3-9.6,0.8c-2.6,0.5-4.6,1.3-6.3,2.2c-1.6,0.9-2.9,1.9-3.8,3l-1.2-4.7l-11.7,0.9V758.4z"/>
	<rect x="741.9" y="685.3" class="st3" width="15.2" height="13.7"/>
	<rect x="742" y="704" class="st2" width="15" height="54.3"/>
	<path class="st2" d="M695,746.5c-2.7,0-5-0.3-6.8-0.9c-1.8-0.6-3.2-1.5-4.3-2.7c-1-1.2-1.8-2.7-2.2-4.6c-0.4-1.9-0.7-4.1-0.6-6.7
		c0-3.5,0.4-6.3,1.3-8.6c0.9-2.2,2.4-3.9,4.4-5c2-1.1,4.8-1.6,8.2-1.6c2.5,0,4.5,0.4,6,1.1c1.6,0.8,2.8,1.8,3.6,3.2
		c0.9,1.4,1.4,3,1.7,4.8c0.3,1.9,0.5,3.9,0.4,6.1c0,2.2-0.1,4.2-0.5,6c-0.3,1.8-0.9,3.4-1.8,4.7c-0.8,1.3-2.1,2.3-3.6,3.1
		C699.4,746.1,697.4,746.5,695,746.5 M666,774.2h15.1v-20.1c0.8,1.1,1.9,2,3.3,2.7c1.4,0.8,3.2,1.3,5.4,1.8c2.2,0.4,4.9,0.6,8.2,0.6
		c4.8,0,8.7-0.7,11.9-2.2c3.1-1.4,5.6-3.4,7.4-6c1.8-2.6,3.1-5.6,3.8-9c0.7-3.4,1.1-7.1,1.1-11c0-3.9-0.3-7.6-1-11
		c-0.7-3.4-1.9-6.4-3.6-9c-1.7-2.6-4.1-4.6-7.1-6.1c-3-1.5-6.8-2.2-11.5-2.2c-3.8,0-7,0.3-9.6,0.8c-2.6,0.5-4.7,1.2-6.4,2.1
		c-1.6,0.9-2.9,1.9-3.9,3.1l-1.3-4.8l-11.7,0.9V774.2z"/>
	<path class="st2" d="M619.5,746.5c-2.7,0-5-0.3-6.8-0.9c-1.8-0.6-3.2-1.5-4.3-2.7c-1-1.2-1.8-2.7-2.2-4.6c-0.4-1.9-0.7-4.1-0.6-6.7
		c0-3.5,0.4-6.3,1.3-8.6c0.9-2.2,2.4-3.9,4.4-5c2-1.1,4.8-1.6,8.2-1.6c2.5,0,4.5,0.4,6,1.1c1.5,0.8,2.8,1.8,3.6,3.2
		c0.8,1.4,1.4,3,1.7,4.8c0.3,1.9,0.5,3.9,0.5,6.1c0,2.2-0.1,4.2-0.5,6c-0.3,1.8-0.9,3.4-1.8,4.7c-0.9,1.3-2,2.3-3.6,3.1
		C623.9,746.1,621.9,746.5,619.5,746.5 M590.5,774.2h15.1v-20.1c0.8,1.1,1.9,2,3.3,2.7c1.4,0.8,3.2,1.3,5.4,1.8
		c2.2,0.4,4.9,0.6,8.2,0.6c4.8,0,8.7-0.7,11.9-2.2c3.1-1.4,5.6-3.4,7.4-6c1.8-2.6,3.1-5.6,3.8-9c0.7-3.4,1.1-7.1,1.1-11
		c0-3.9-0.3-7.6-1-11c-0.7-3.4-1.9-6.4-3.6-9c-1.7-2.6-4.1-4.6-7.1-6.1c-3-1.5-6.9-2.2-11.5-2.2c-3.8,0-7,0.3-9.6,0.8
		c-2.6,0.5-4.7,1.2-6.4,2.1c-1.7,0.9-2.9,1.9-3.9,3.1l-1.3-4.8l-11.7,0.9V774.2z"/>
	<path class="st2" d="M542.8,746.6c-2.6,0-4.8-0.4-6.5-1.1c-1.7-0.7-3.1-1.7-4.1-3c-1-1.3-1.7-2.9-2.1-4.7c-0.4-1.9-0.6-3.9-0.6-6.2
		c0-2.3,0.2-4.4,0.6-6.2c0.4-1.8,1.1-3.4,2.1-4.7c1-1.3,2.3-2.3,4.1-3c1.7-0.7,3.9-1,6.5-1c2.6,0,4.7,0.3,6.4,1
		c1.7,0.7,3.1,1.7,4.1,3c1,1.3,1.7,2.9,2.1,4.7c0.4,1.8,0.6,3.9,0.6,6.2c0,2.3-0.2,4.4-0.6,6.2c-0.4,1.8-1.1,3.4-2.1,4.7
		c-1,1.3-2.3,2.3-4.1,3C547.6,746.2,545.4,746.6,542.8,746.6 M542.8,759.4c5.1,0,9.5-0.6,13.1-1.9c3.6-1.2,6.5-3.1,8.8-5.5
		c2.3-2.4,3.9-5.4,4.9-8.9c1.1-3.5,1.6-7.6,1.6-12.1c0-4.6-0.5-8.6-1.6-12.1c-1-3.5-2.7-6.5-4.9-8.9c-2.2-2.4-5.2-4.2-8.8-5.5
		c-3.6-1.2-7.9-1.9-13.1-1.9c-5.1,0-9.5,0.6-13.1,1.9c-3.6,1.2-6.5,3.1-8.8,5.5c-2.3,2.4-3.9,5.4-5,8.9c-1.1,3.5-1.6,7.6-1.6,12.1
		c0,4.6,0.5,8.6,1.6,12.1c1.1,3.5,2.7,6.5,5,8.9c2.3,2.4,5.2,4.2,8.8,5.5C533.4,758.8,537.7,759.4,542.8,759.4"/>
	<path class="st2" d="M443.2,758.4h15.1v-29.3c0-1.8,0.1-3.5,0.4-4.9c0.3-1.5,0.9-2.8,1.7-3.8c0.8-1.1,2.1-1.9,3.7-2.5
		c1.6-0.6,3.7-0.9,6.3-0.9c2.3,0,4.1,0.3,5.4,0.8c1.3,0.6,2.3,1.4,3,2.4c0.6,1,1.1,2.2,1.3,3.6c0.2,1.4,0.3,2.9,0.3,4.6v30h15v-32.9
		c0-2.7-0.1-5.2-0.4-7.5c-0.3-2.3-0.9-4.4-1.7-6.3c-0.8-1.9-2-3.4-3.4-4.8c-1.5-1.3-3.3-2.3-5.6-3c-2.3-0.7-5.1-1.1-8.3-1.1
		c-3.4,0-6.3,0.3-8.7,0.7c-2.3,0.5-4.3,1.1-5.7,1.8c-1.5,0.7-2.6,1.5-3.3,2.3v-23.8h-15V758.4z"/>
	<path class="st2" d="M399,759.2c4.7,0,8.6-0.3,11.9-1c3.2-0.7,5.9-1.7,7.9-3.1c2-1.4,3.4-3.2,4.4-5.4c0.9-2.2,1.4-4.9,1.4-8
		c0-2.7-0.4-5-1.2-6.8c-0.8-1.8-1.9-3.4-3.3-4.5c-1.4-1.2-3.2-2.1-5.2-2.8c-2-0.7-4.2-1.3-6.6-1.7c-2.4-0.4-5-0.8-7.8-1.2
		c-2.3-0.3-4.1-0.6-5.4-1c-1.3-0.3-2.2-0.8-2.8-1.4c-0.5-0.6-0.8-1.4-0.8-2.4c0-0.7,0.1-1.2,0.4-1.7c0.3-0.5,0.7-0.9,1.4-1.2
		c0.6-0.3,1.6-0.6,2.8-0.7c1.2-0.2,2.8-0.3,4.7-0.3c1.8,0,3.7,0.2,5.5,0.5c1.9,0.3,3.6,0.7,5.3,1.3c1.7,0.5,3.2,1.1,4.4,1.8
		l7.2-11.7c-1.9-1.1-4.1-2-6.6-2.7c-2.4-0.7-5.1-1.3-7.8-1.7c-2.8-0.4-5.6-0.6-8.6-0.6c-5.7,0-10.3,0.7-13.8,2
		c-3.5,1.3-6,3.2-7.6,5.7c-1.6,2.5-2.4,5.6-2.3,9.3c0,2.8,0.4,5.2,1.2,7.2c0.8,1.9,1.9,3.5,3.3,4.8c1.4,1.2,3.1,2.2,5.1,3
		c2,0.8,4.1,1.4,6.5,1.8c2.4,0.4,4.9,0.8,7.6,1.2c2.5,0.3,4.4,0.6,5.8,0.9c1.4,0.4,2.4,0.8,3,1.4c0.6,0.6,0.9,1.4,0.8,2.4
		c0,1.2-0.3,2.2-0.8,2.8c-0.6,0.7-1.6,1.1-3,1.3c-1.4,0.2-3.4,0.4-5.9,0.3c-2.1,0-4.2-0.2-6.5-0.7c-2.2-0.4-4.5-1.1-6.6-1.9
		c-2.2-0.8-4.2-1.9-6.1-3.1l-7.7,11c2.5,1.6,5.1,2.9,7.9,3.9c2.8,1,5.8,1.8,8.8,2.2C392.8,759,395.9,759.2,399,759.2"/>
	<polygon class="st2" points="289.3,758.4 304.2,758.4 304.2,745.2 310.7,737.4 324.1,758.4 340.8,758.4 320.9,726.2 339.1,704 
		322.7,704 304.2,726.5 304.2,683.9 289.3,683.9 	"/>
	<path class="st2" d="M240.4,758.4h15.1v-26.9c0-2.2,0.2-4,0.6-5.7c0.4-1.7,1.2-3.1,2.4-4.3c1.1-1.2,2.7-2.1,4.7-2.7
		c2.1-0.6,4.7-0.9,7.8-1v-14.4c-2.8,0.1-5.4,0.5-7.7,1.1c-2.3,0.6-4.3,1.4-6,2.3c-1.6,0.9-2.9,2-3.6,3.2l-1.5-5.9l-11.7,0.9V758.4z"
		/>
	<path class="st2" d="M191.5,747.1c-2.3,0-4.1-0.2-5.4-0.6c-1.3-0.4-2.3-1.1-2.8-2c-0.6-0.9-0.9-2-0.8-3.3c0-1.2,0.1-2.2,0.4-3
		c0.3-0.8,0.8-1.5,1.6-2.1c0.8-0.6,2-1,3.6-1.4c1.6-0.3,3.7-0.6,6.2-0.7c2.6-0.1,5.8-0.2,9.6-0.2h1.3v2c0,3.9-1.1,6.8-3.3,8.7
		C199.7,746.3,196.3,747.2,191.5,747.1 M188.6,759.2c5.1,0,9.2-0.6,12.4-1.6c3.1-1.1,5.4-2.5,6.7-4.4c0.7,1.4,1.5,2.5,2.4,3.3
		c0.9,0.8,2,1.3,3.2,1.7c1.3,0.3,2.9,0.5,4.8,0.5c0.6,0,1.1,0,1.7,0v-16c0-0.5,0-1,0-1.6v-16.5c0-3.1-0.2-5.8-0.6-8.2
		c-0.4-2.4-1.1-4.4-2.1-6.1c-1-1.7-2.4-3.1-4.2-4.2c-1.8-1.1-4-1.9-6.8-2.4c-2.8-0.5-6.1-0.8-10-0.8c-2.9,0-5.6,0.2-8.2,0.7
		c-2.6,0.4-4.9,1-7.1,1.7c-2.2,0.7-4.1,1.4-5.7,2.2c-1.6,0.7-2.9,1.5-3.9,2.1l7.5,11c1.1-0.7,2.5-1.4,4.1-2c1.6-0.7,3.4-1.2,5.4-1.7
		c2-0.4,4.1-0.7,6.3-0.7c2.3,0,4.2,0.2,5.6,0.5c1.4,0.3,2.5,0.8,3.2,1.4c0.7,0.6,1.2,1.4,1.5,2.3c0.3,0.9,0.4,2,0.4,3.2H203
		c-6,0-11.2,0.3-15.6,0.8c-4.4,0.6-8,1.5-10.9,2.9c-2.8,1.4-4.9,3.3-6.3,5.8c-1.4,2.5-2.1,5.6-2.1,9.5c0,2.4,0.3,4.6,0.8,6.6
		c0.6,2,1.6,3.8,3.1,5.3c1.5,1.5,3.6,2.7,6.2,3.5C181,758.8,184.4,759.2,188.6,759.2"/>
	<path class="st2" d="M125.3,746.5c-2.7,0-5-0.3-6.8-0.9c-1.8-0.6-3.2-1.5-4.3-2.7c-1-1.2-1.8-2.7-2.2-4.6c-0.4-1.9-0.7-4.1-0.6-6.7
		c0-3.5,0.4-6.3,1.3-8.6c0.9-2.2,2.3-3.9,4.4-5c2-1.1,4.8-1.6,8.2-1.6c2.5,0,4.5,0.4,6,1.1c1.5,0.8,2.7,1.8,3.6,3.2
		c0.9,1.4,1.4,3,1.7,4.8c0.3,1.9,0.5,3.9,0.5,6.1c0,2.2-0.1,4.2-0.5,6c-0.3,1.8-0.9,3.4-1.8,4.7c-0.9,1.3-2.1,2.3-3.6,3.1
		C129.7,746.1,127.7,746.5,125.3,746.5 M96.3,774.2h15.1v-20.1c0.8,1.1,1.9,2,3.3,2.7c1.4,0.8,3.2,1.3,5.4,1.8
		c2.2,0.4,4.9,0.6,8.2,0.6c4.8,0,8.7-0.7,11.9-2.2c3.1-1.4,5.6-3.4,7.4-6c1.8-2.6,3.1-5.6,3.8-9c0.7-3.4,1.1-7.1,1.1-11
		c0-3.9-0.3-7.6-1-11c-0.7-3.4-1.9-6.4-3.6-9c-1.7-2.6-4.1-4.6-7.1-6.1c-3-1.5-6.8-2.2-11.5-2.2c-3.8,0-7,0.3-9.6,0.8
		c-2.6,0.5-4.7,1.2-6.4,2.1c-1.6,0.9-2.9,1.9-3.9,3.1L108,704l-11.7,0.9V774.2z"/>
	<path class="st2" d="M874.7,746.5c2.7,0,5-0.3,6.8-0.9c1.8-0.6,3.2-1.4,4.3-2.6c1-1.2,1.8-2.7,2.2-4.6c0.5-1.9,0.7-4.1,0.7-6.7
		c0-3.5-0.4-6.3-1.3-8.6c-0.9-2.2-2.3-3.9-4.4-5c-2.1-1.1-4.8-1.6-8.2-1.6c-2.5,0-4.5,0.4-6,1.1c-1.6,0.8-2.8,1.8-3.6,3.2
		c-0.8,1.4-1.4,3-1.7,4.8c-0.3,1.9-0.5,3.9-0.4,6.1c0,2.2,0.1,4.2,0.5,6c0.3,1.8,0.9,3.4,1.8,4.7c0.8,1.3,2,2.3,3.6,3.1
		C870.3,746.1,872.3,746.5,874.7,746.5 M903.1,769.7c-0.4,2.4-1.1,4.5-2.2,6.3c-1,1.7-2.5,3.2-4.3,4.3c-1.8,1.1-4.2,1.9-7,2.5
		c-2.8,0.5-6.3,0.8-10.3,0.8c-3,0-5.8-0.2-8.4-0.7c-2.7-0.4-5.1-1-7.3-1.7c-1.5-0.5-2.8-0.9-4-1.4l7.6-11.6c1.2,0.4,2.5,0.8,4,1.1
		c2,0.4,4.2,0.7,6.5,0.7c2.4,0,4.3-0.2,5.8-0.5c1.5-0.3,2.6-0.8,3.3-1.4c0.8-0.6,1.3-1.4,1.5-2.4c0.9-3.3,0.3-7.1,0.3-11.5
		c-0.8,1.1-1.9,2-3.3,2.7c-1.4,0.8-3.2,1.3-5.4,1.7c-2.2,0.4-4.9,0.6-8.2,0.6c-4.8,0-8.7-0.8-11.9-2.2c-3.1-1.4-5.6-3.4-7.4-6
		c-1.8-2.6-3.1-5.6-3.8-8.9c-0.7-3.4-1.1-7.1-1.1-11c0-3.9,0.3-7.6,1-11c0.7-3.4,1.9-6.4,3.6-9c1.7-2.6,4.1-4.6,7.1-6.1
		c3-1.5,6.9-2.2,11.5-2.2c3.8,0,7,0.3,9.6,0.8c2.6,0.5,4.7,1.2,6.4,2.2c1.6,0.9,2.9,1.9,3.9,3.1l1.3-4.8l11.7,0.9v59.2
		C903.7,766.4,903.2,769.1,903.1,769.7"/>
	<path class="st2" d="M769.8,651.9h40.9V520.3c0-7.3-2.9-13.3-7.1-17.6c-4.9-4.9-11.6-7.6-18-7.6h-9.9h-5.8V651.9z M304.8,651.9
		h40.9V533.3v-2h2h20.8c7.3,0,13.3-2.9,17.6-7.1c4.9-4.9,7.6-11.6,7.6-18v-5.6v-5.8H256.8v36.5h46h2v2V651.9z M61.8,653h43
		L167,495.1H125L86,599.9l-1.9,5.1l-1.9-5.1L42.9,495.1H0L61.8,653z M189.9,651.9h40.9V520.3c0-7.3-2.9-13.3-7.1-17.6
		c-4.9-4.9-11.6-7.6-18-7.6h-9.9h-5.8V651.9z M486.4,619.1c-4.3,0-8.2-0.3-11.7-0.8c-3.6-0.6-6.8-1.4-9.7-2.5v0
		c-2.9-1.1-5.4-2.4-7.7-4c-2.3-1.6-4.3-3.4-5.9-5.5c-1.7-2-3.1-4.3-4.2-6.6c-1.2-2.4-2.1-4.9-2.7-7.7c-0.7-2.7-1.1-5.5-1.5-8.5
		c-0.3-2.9-0.5-6-0.4-9.2c0-3.2,0.1-6.3,0.4-9.2c0.3-2.9,0.8-5.8,1.5-8.4c0.7-2.7,1.6-5.3,2.7-7.6c1.2-2.4,2.6-4.6,4.2-6.6h0
		c1.7-2.1,3.7-3.9,6-5.4c2.3-1.5,4.9-2.9,7.7-3.9c2.9-1.1,6.1-1.9,9.7-2.5c3.5-0.5,7.4-0.8,11.7-0.8h0c4.3,0,8.2,0.3,11.7,0.8
		c3.6,0.5,6.8,1.4,9.7,2.5h0c2.9,1.1,5.5,2.4,7.7,3.9c2.3,1.6,4.3,3.4,6,5.4v0c1.6,2,3.1,4.2,4.2,6.6c1.1,2.3,2.1,4.9,2.7,7.6
		c0.6,2.7,1.1,5.5,1.5,8.4c0.3,2.9,0.5,6,0.4,9.2c0,3.2-0.1,6.3-0.4,9.2c-0.3,3-0.8,5.8-1.5,8.5c-0.7,2.8-1.6,5.3-2.7,7.7
		c-1.2,2.4-2.6,4.6-4.2,6.6l0,0c-1.7,2-3.7,3.9-6,5.5c-2.3,1.6-4.8,2.9-7.7,4l0,0c-2.9,1.1-6.1,1.9-9.7,2.5
		C494.7,618.8,490.8,619,486.4,619.1L486.4,619.1z M486.4,654.5c6.3,0,12.4-0.3,18.2-1c5.8-0.7,11.3-1.8,16.5-3.2
		c5.2-1.4,10-3.3,14.5-5.5c4.5-2.3,8.6-5,12.4-8.1h0c3.8-3.1,7.1-6.7,10-10.9c2.9-4.2,5.4-8.8,7.5-14h0c2.1-5.2,3.7-11,4.7-17.4
		c1.1-6.4,1.6-13.4,1.6-21.1c0-7.6-0.6-14.6-1.6-21c-1.1-6.4-2.6-12.1-4.7-17.3l0,0c-2.1-5.2-4.6-9.8-7.5-13.9
		c-2.9-4.1-6.2-7.7-10-10.8h0c-3.8-3.1-7.9-5.8-12.4-8.1c-4.5-2.3-9.3-4.1-14.5-5.5c-5.2-1.4-10.7-2.5-16.5-3.2
		c-5.8-0.7-11.9-1-18.2-1c-6.3,0-12.3,0.3-18.2,1c-5.8,0.7-11.2,1.8-16.5,3.2h0c-5.2,1.4-10,3.2-14.5,5.5c-4.5,2.3-8.6,5-12.3,8.1v0
		c-3.8,3.1-7.1,6.7-10,10.8c-2.9,4.1-5.4,8.8-7.5,13.9v0c-2.1,5.2-3.6,11-4.7,17.3c-1.1,6.4-1.6,13.4-1.6,21
		c0,7.6,0.6,14.7,1.6,21.1c1.1,6.4,2.6,12.2,4.7,17.3v0c2.1,5.2,4.5,9.8,7.5,14c2.9,4.1,6.2,7.7,10,10.8v0c3.7,3.1,7.9,5.8,12.3,8.1
		c4.5,2.3,9.3,4.1,14.5,5.5l0,0c5.2,1.4,10.7,2.5,16.5,3.2C474.1,654.2,480.2,654.5,486.4,654.5 M517.8,481.6l33.1-32.7h-22.5
		c-9.4,0-15.5,0.5-20.2,2.4c-4.5,1.8-7.7,4.9-11.3,10.2L485,478.8h1.5c5.8,0,11.4,0.2,16.8,0.7C508.3,480,513.1,480.7,517.8,481.6
		 M636.8,568.4v-37.1v-2h2h36v0c3.1,0,5.8,0.1,8.2,0.3c2.5,0.3,4.7,0.7,6.5,1.2v0c2,0.6,3.7,1.4,5.1,2.5c1.5,1.1,2.6,2.5,3.5,4.1
		c0.8,1.6,1.4,3.4,1.8,5.6c0.4,2.1,0.5,4.4,0.5,7.1c0,2.6-0.2,4.9-0.5,6.9c-0.4,2.1-1.1,3.9-1.9,5.4c-0.9,1.6-2.1,2.9-3.5,4
		c-1.4,1.1-3.1,1.9-5.1,2.5c-1.8,0.5-4,0.9-6.4,1.2c-2.4,0.2-5,0.3-8,0.3v0h-36.2h-2V568.4z M695.2,651.9h43.6l-27.7-51l-1.1-2
		l2.1-0.8c3.1-1.2,5.9-2.6,8.5-4.2c2.5-1.5,4.8-3.2,6.7-5l0,0c2-1.8,3.7-3.7,5.2-5.7c1.5-2,2.8-4.1,3.8-6.2v0c1.1-2.2,2-4.4,2.7-6.7
		c0.7-2.3,1.3-4.7,1.7-7.1c0.4-2.4,0.7-4.9,0.9-7.3c0.2-2.5,0.3-4.9,0.3-7.4v0c0-2.9-0.1-5.8-0.3-8.7c-0.2-2.8-0.6-5.6-1.1-8.2v0
		c-0.5-2.6-1.2-5.2-2.1-7.6c-0.9-2.4-2-4.7-3.3-6.9v0c-1.3-2.2-2.8-4.2-4.6-6.1c-1.8-1.9-4-3.7-6.4-5.3c-2.4-1.6-5.1-3.1-8.3-4.3
		c-3.1-1.3-6.7-2.4-10.5-3.3c-3.9-0.9-8.2-1.6-12.9-2.1c-4.8-0.5-10-0.7-15.7-0.7v0H597v156.8h39.8v-46.2v-2h2h29.1h1.2l0.6,1.1
		L695.2,651.9z M892.1,595.4l20-51.2l1.9-4.9l1.9,4.9l20,51.2l1.1,2.8h-3H894h-3L892.1,595.4z M830.8,651.9h39.5l7.5-19.5l0.5-1.3
		h1.4h68.6h1.4l0.5,1.3l7.5,19.5h42.3L936.7,494h-43L830.8,651.9z"/>
	<path class="st2" d="M433.5,406c-0.3,0-0.6,0-0.9,0.1c-0.5,0-1,0.1-1.5,0.1c-0.4,0-0.8-0.1-1.1-0.1c-0.8,0-1.5-0.1-2.3-0.1
		c-0.3,0-0.7-0.1-1-0.1c-1.2-0.1-2.4-0.3-3.6-0.6c-0.1,0-0.1,0-0.2,0c-0.1,0-0.1,0-0.2,0c-0.2-0.1-0.5-0.1-0.7-0.1
		c-0.3-0.1-0.6-0.2-0.9-0.3c-0.9-0.2-1.7-0.5-2.5-0.8c-0.5-0.2-0.9-0.3-1.4-0.5c-1-0.4-1.9-0.7-2.8-1.2c-0.3-0.1-0.6-0.3-0.9-0.4
		c-1.2-0.6-2.4-1.2-3.7-1.9c-0.4-0.2-0.8-0.5-1.1-0.7c-0.9-0.5-1.7-1-2.5-1.6c-0.5-0.3-0.9-0.6-1.4-0.9c-0.8-0.5-1.6-1.1-2.3-1.7
		c-0.4-0.3-0.9-0.7-1.3-1c-1.1-0.9-2.1-1.7-3.2-2.7c-0.6-0.5-1.2-1.1-1.9-1.7c-0.5-0.4-1-0.9-1.4-1.4c-0.7-0.7-1.4-1.4-2.1-2.1
		c-0.3-0.3-0.6-0.6-0.8-0.9c-11.1-11.6-21.1-27.1-29.6-44.4c-0.7-1.4-1.4-2.8-2-4.1c-0.2-0.3-0.3-0.7-0.5-1
		c-5.4-11.5-10.1-23.3-13.8-34.6c-0.9,0-1.7,0-2.6,0c-37.6,0-74.6,5.9-81.7,20.9c-4.5,9.6,5.9,22.2,15.4,31.1
		c45.3,42.2,128.1,78.4,163.1,60c6.1-3.2,10.4-8,13.1-14.4C446.7,403.1,440.2,405.5,433.5,406"/>
	<path class="st2" d="M735,224.2c-4.6-10.3-17-15.4-36.9-15.4c-5,0-10.5,0.3-16.4,1c-13,1.4-26.7,3.8-40.5,7
		c-4.7,32-15.8,71.5-29.3,105.2c-0.7,1.8-1.4,3.6-2.1,5.2c-0.9,2-1.7,4-2.7,6c-1.8,3.9-3.8,7.5-5.8,11c-2,3.4-4.2,6.7-6.4,9.7
		c-29.8,41.1-73.9,46.3-94.7,46.3c-0.9,0-1.7,0-2.4,0c-0.3,0-0.5,0-0.7,0c-0.5,0-1,0-1.4,0c-0.3,0-0.5,0-0.8,0c-0.4,0-0.8,0-1.1-0.1
		c-0.3,0-0.5,0-0.7,0c-0.3,0-0.6,0-0.9-0.1c-0.2,0-0.4,0-0.6,0c-0.3,0-0.5,0-0.8-0.1c-0.2,0-0.3,0-0.4,0c-0.2,0-0.4,0-0.6-0.1
		c-0.1,0-0.1,0-0.2,0c-0.3,0-0.6-0.1-0.7-0.1c-0.1,0-0.2,0-0.2,0c-2-0.2-3.9-0.5-5.7-0.8c-0.5-0.1-1-0.2-1.4-0.2
		c-1.7-0.3-3.4-0.6-5.1-0.9c3.2,2.4,6.7,4.8,10.4,7.2l0.1,0.1c2.9,2,72.9,48,141.8-13.5C682.9,342.9,750,258,735,224.2"/>
	<path class="st2" d="M526.5,188.6c6,16.6,11.3,35.7,15.4,54.8l0,0l0,0.2c29.2-14.4,61.4-26,91.8-33.5c4.1-31.1,2.3-57-9.5-67.1
		c-3.5-3-8-4.5-13.4-4.5c-9.4,0-21.5,4.6-36.3,13.8C558.4,162.2,542.1,174.7,526.5,188.6"/>
	<path class="st2" d="M445.1,161.3c-11.1,20.7-20.3,45.4-26.9,70.8c11.9,9.6,23.5,20.3,33.5,30.5c17.4-27.1,40.8-53.9,65.1-76.2
		c-10.9-28.6-24.5-50.7-38.9-53.3c-0.9-0.2-1.8-0.3-2.8-0.3C465.4,132.8,455.3,142.3,445.1,161.3"/>
	<path class="st2" d="M457.6,268.8c0.3,0.3,0.6,0.7,1,1c0.1,0.1,0.3,0.3,0.4,0.4c0.5,0.6,1,1.1,1.5,1.7c1.2,1.3,2.3,2.6,3.5,3.9
		c0,0,0,0,0.1,0.1c0.1,0.2,0.2,0.3,0.4,0.4c1.2,1.4,2.4,2.8,3.4,4.2c0.4,0.5,0.8,1.1,1.2,1.6c0.8,1,1.5,2,2.2,3
		c0.4,0.6,0.8,1.2,1.2,1.9c0.3,0.4,0.5,0.8,0.8,1.3l0.2-0.1l0,0c19.3-17.6,43-31.6,60.8-40.9c-3.8-18.2-8.7-36.5-14.4-52.6
		C496.9,216.3,474.3,242.5,457.6,268.8"/>
	<path class="st2" d="M424,397c8,1.9,15.7,0.5,23.1-4.2c-11.6-1.3-21.4-6.4-29-15.3c-25-29.2-21.2-92-9.1-142.1
		c-19.5-15.1-38.8-26-51.8-26c-2.5,0-4.8,0.4-6.8,1.3c-9.8,4.2-10.3,20.5-9,33.5C347.4,305.7,385.6,387.7,424,397"/>
	<path class="st2" d="M443.5,383.8c-8.6-6.5-14.7-14.7-17.8-24.7c-9-28.4,6.4-63.6,21.6-89.2c-9.7-10.1-20.5-20.1-31.2-28.8
		c-13.5,58.4-10.4,109.4,8.2,131.1C429.5,378.2,435.9,382,443.5,383.8"/>
	<path class="st2" d="M433.5,356.5c2.2,6.9,6,12.8,11.4,17.7c-0.2-0.3-0.3-0.6-0.4-0.9c-0.1-0.3-0.3-0.6-0.4-0.8
		c-0.4-0.8-0.8-1.7-1.1-2.5c0,0,0-0.1,0-0.1c-2-5.1-3.3-10.3-3.7-15.6c0-0.2,0-0.3,0-0.5c-0.1-0.9-0.1-1.8-0.1-2.8
		c0-0.2,0-0.5,0-0.7c0-0.9,0-1.7,0.1-2.6c0-0.3,0-0.6,0.1-0.9c0.1-0.8,0.1-1.6,0.2-2.5c0-0.4,0.1-0.8,0.2-1.2
		c0.1-0.7,0.2-1.5,0.3-2.2c0-0.1,0-0.1,0-0.2c0.1-0.3,0.1-0.6,0.2-0.9c0.2-0.9,0.3-1.8,0.6-2.6c0.2-0.7,0.4-1.4,0.6-2.2
		c0.1-0.4,0.2-0.8,0.3-1.2c0-0.1,0.1-0.2,0.1-0.3c4.4-14.3,13.8-27.5,25.5-39.3c-1.7-2.8-3.7-5.7-5.9-8.6c-1.1-1.4-2.2-2.8-3.5-4.2
		c-1.5-1.7-3.1-3.5-4.7-5.3C433.9,308.8,427.1,336.5,433.5,356.5"/>
	<path class="st2" d="M543.5,251.9c1.7,8.8,3.1,17.4,4.1,25.4c7.6,59.4-29.5,90.1-48.9,101.8c-0.8,0.5-1.6,0.9-2.3,1.4
		c-1.5,0.8-2.8,1.6-4,2.2c-2.9,1.5-4.7,2.2-4.8,2.3c-3.9,1.7-7.7,3-11.4,4.2c4.2,0.9,8.7,1.7,13.5,2.3c3.4,0.5,79.6,10.9,112.3-67.4
		c13.8-33,25.3-72.6,30.4-105.1C602.8,226.5,571.7,237.9,543.5,251.9"/>
	<path class="st2" d="M540.2,285c-0.2-2.2-0.4-4.4-0.7-6.7v0v0c-0.9-7.1-2.1-14.7-3.6-22.5c-23.9,12.6-43.7,26.2-58.4,40
		c21.4,42.7-4,80.2-5.1,81.9c-1.1,1.7-2.3,3.4-3.5,5c5-1.3,10.2-3,15.7-5.4C487.2,376.2,545,352.6,540.2,285"/>
	<path class="st2" d="M471.3,301.9c-19.8,20.8-35.7,50-11.9,79.6c2.1-2.6,4.2-5.4,6.1-8.5C466.6,371.5,488.4,339.1,471.3,301.9"/>
</g>
</svg>
